---
permalink: resume.svg
---

<?xml version="1.0" encoding="UTF-8" standalone="no"?>


<!--Dimensions below set for 8.5x11 paper-->

<svg 
  xmlns:svg="http://www.w3.org/2000/svg"
  xmlns="http://www.w3.org/2000/svg" 
  xmlns:xlink="http://www.w3.org/1999/xlink"
  version="1.1"
  viewBox="-19 -15 90 116.5">
  <defs>
    <style>
      
      @font-face { 
        font-family: Gilbert-Color; 
        src: url('/assets/Gilbert-Color.otf'); 
      }
       
      @font-face { 
        font-family: Gilbert; 
        src: url('/assets/Gilbert.otf'); 
      }
      
      image.origami {
        opacity: 0.5;
      }
      
      circle.bull {
        fill: #071F4B;
        opacity: 0.33;
      }
      
      circle.fold {
        fill: #071F4B;
        opacity: 0.33;
      }
      
      circle.edu {
        opacity: 0.33;
        stroke-width: 3;
      }
      
      path.exp {
        opacity: 0.33;
        fill: none;    
      }
      
      path.fold {
        opacity: 0.33;
        stroke-width: 1;
        fill: none;    
      }
      
      polygon.fold {
        opacity: 0.33;
      }
      
      text{
        font-family: sans-serif;
        fill: #000000;
        font-size: 2px;
        text-shadow: -1px -1px #ffffff;
      }
      
      text.title {
        font-family: Gilbert-Color;
        fill: #071F4B;
        font-size: 6px;
      }
      
      text.subtitle {
        font-size: 3px;
        fill: #071F4B;
        font-family: Gilbert;
      }
      
      text.contitle {
        font-family: Gilbert-Color;
        font-size: 3px;
      }
      
      text.contact {
        fill: #071F4B;
        font-size: 2px;
      }
      
      text.company {
        fill: #071F4B;
        font-size: 2.25px;
      }
      
      text.date {
        fill: #071F4B;
        font-size: 2.25px;
        text-anchor: end;
      }
      
      text.position {
        fill: #071F4B;
      }
      
      text.place {
        fill: #071F4B;
        text-anchor: end;
      }
      
      svg.icon {
        fill: #071F4B;
      }
      
      
    </style>
  </defs>
  <rect x="-19" y="-15" width="90" height="116.5"
    style="fill:white;">
  </rect>

  <circle cx="0" cy="0" r="4" class="fold">
  </circle>
  <circle cx="-8.5" cy="1.5" r="2.5" class="fold">
  </circle>
  <circle cx="-9.5" cy="7.5" r="1.5" class="fold">
  </circle>
  <circle cx="-14" cy="8" r="1" class="fold">
  </circle>
  <circle cx="-14.5" cy="11.5" r="0.5" class="fold">
  </circle>
  <circle cx="-17.5" cy="11.5" r="0.5" class="fold">
  </circle>
  <circle cx="-1.5" cy="-8.5" r="2.5" class="fold">
  </circle>
  <circle cx="-7.5" cy="-9.5" r="1.5" class="fold">
  </circle>
  <circle cx="-8" cy="-14" r="1" class="fold">
  </circle>
  <circle cx="-11.5" cy="-14.5" r="0.5" class="fold">
  </circle>
  <circle cx="8.5" cy="-1.5" r="2.5" class="fold">
  </circle>
  <circle cx="9.5" cy="-7.5" r="1.5" class="fold">
  </circle>
  <circle cx="14" cy="-8" r="1" class="fold">
  </circle>
  <circle cx="14.5" cy="-11.5" r="0.5" class="fold">
  </circle>
  <circle cx="17.5" cy="-11.5" r="0.5" class="fold">
  </circle>

  <polygon class="fold" style="fill:#008ED6;" points="-12 4,5 4,-4 5,-6 5">
  </polygon>
  <polygon class="fold" style="fill:#00D47C;" points="-4 5,-5 -4,-5 -6,-4 -12">
  </polygon>
  <polygon class="fold" style="fill:#008ED6;" points="-5 -4,4 -5,6 -5,12 -4">
  </polygon>
  <polygon class="fold" style="fill:#FFb400;" points="4 -5,5 4,5 6,4 6">
  </polygon>
  <polygon class="fold" style="fill:#FE2BD0;" points="-12 4,-11 -2,-11 10,-12 6">
  </polygon>
  <polygon class="fold" style="fill:#FF0000;" points="-11 -2,-5 -1,-13 -1,-12 -2">
  </polygon>
  <polygon class="fold" style="fill:#00D47C;" points="-5 -1,-6 5,-6 -12,-5 -8">
  </polygon>
  <polygon class="fold" style="fill:#00D47C;" points="-8 5,-12 6,-6 6,-6 5">
  </polygon>
  <polygon class="fold" style="fill:#FF0000;" points="-8 5,-7 9,-7 11,-8 11">
  </polygon>
  <polygon class="fold" style="fill:#00D47C;" points="-12 7,-13 10,-13 -3,-12 -2">
  </polygon>
  <polygon class="fold" style="fill:#FFb400;" points="-19 -9,-19 -7,-13 -1,-12 -2">
  </polygon>
  <polygon class="fold" style="fill:#FF6100;" points="-16 9,-7 9,-11 10,-13 10">
  </polygon>
  <polygon class="fold" style="fill:#FE2BD0;" points="-16 9,-15 6,-15 13,-16 11">
  </polygon>
  <polygon class="fold" style="fill:#FF0000;" points="-12 7,-15 6,-16 6,-17 7">
  </polygon>
  <polygon class="fold" style="fill:#FF6100;" points="-16 6,-17 5,-17 13,-16 11">
  </polygon>
  <polygon class="fold" style="fill:#FE2BD0;" points="-16 6,-17 7,-19 5,-19 3">
  </polygon>
  <polygon class="fold" style="fill:#FF0000;" points="-19 10,-18 10,-16 11,-19 11">
  </polygon>
  <polygon class="fold" style="fill:#FF0000;" points="-17 13,-19 12,-13 12,-15 13">
  </polygon>
  <polygon class="fold" style="fill:#FF6100;" points="-14 10,-13 12,-13 14,-14 14">
  </polygon>
  <polygon class="fold" style="fill:#FFb400;" points="-19 12,-18 10,-18 15,-19 14">
  </polygon>
  <polygon class="fold" style="fill:#FF6100;" points="-19 14,-17 14,-18 15,-19 15">
  </polygon>
  <polygon class="fold" style="fill:#00D47C;" points="-19 14,-18 13,-16 13,-16 14">
  </polygon>
  <polygon class="fold" style="fill:#FF0000;" points="-18 16,-17 16,-17 14,-18 13">
  </polygon>
  <polygon class="fold" style="fill:#FF0000;" points="-12 10,-12 11,-16 11,-14 10">
  </polygon>
  <polygon class="fold" style="fill:#FFb400;" points="-4 -12,2 -11,-10 -11,-6 -12">
  </polygon>
  <polygon class="fold" style="fill:#FE2BD0;" points="2 -12,2 -11,1 -5,1 -13">
  </polygon>
  <polygon class="fold" style="fill:#008ED6;" points="2 -12,1 -13,3 -15,5 -15">
  </polygon>
  <polygon class="fold" style="fill:#FF0000;" points="3 -13,2 -12,-7 -12,-10 -13">
  </polygon>
  <polygon class="fold" style="fill:#008ED6;" points="-7 -15,-6 -15,-7 -12">
  </polygon>
  <polygon class="fold" style="fill:#008ED6;" points="-10 -15,-9 -15,-9 -7,-10 -11">
  </polygon>
  <polygon class="fold" style="fill:#FFb400;" points="-5 -8,-11 -8,-10 -7,-9 -7">
  </polygon>
  <polygon class="fold" style="fill:#FF6100;" points="-11 -16,-10 -14,-10 -7,-11 -6">
  </polygon>
  <polygon class="fold" style="fill:#FE2BD0;" points="-11 -8,-10 -7,-19 2,-19 0">
  </polygon>
  <polygon class="fold" style="fill:#FFb400;" points="-10 -14,-12 -13,-16 -13,-17 -14">
  </polygon>
  <polygon class="fold" style="fill:#008ED6;" points="-12 -15,-13 -15,-12 -13">
  </polygon>
  <polygon class="fold" style="fill:#00D47C;" points="-17 -14,-16 -13,-19 -10,-19 -12">
  </polygon>
  <polygon class="fold" style="fill:#00D47C;" points="-17 -15,-16 -15,-16 -13,-17 -12">
  </polygon>
  <polygon class="fold" style="fill:#008ED6;" points="1 -5,-5 -6,12 -6,8 -5">
  </polygon>
  <polygon class="fold" style="fill:#FF0000;" points="6 -5,5 1,5 3,6 3">
  </polygon>
  <polygon class="fold" style="fill:#008ED6;" points="5 1,11 2,13 2,13 1">
  </polygon>
  <polygon class="fold" style="fill:#FE2BD0;" points="11 2,12 -4,12 -6,11 -10">
  </polygon>
  <polygon class="fold" style="fill:#00D47C;" points="11 -10,7 -9,16 -9,13 -10">
  </polygon>
  <polygon class="fold" style="fill:#FFb400;" points="8 -5,7 -9,7 -10,8 -11">
  </polygon>
  <polygon class="fold" style="fill:#FE2BD0;" points="7 -10,8 -11,4 -15,2 -15">
  </polygon>
  <polygon class="fold" style="fill:#FF0000;" points="6 -11,7 -10,14 -10,16 -11">
  </polygon>
  <polygon class="fold" style="fill:#FF0000;" points="13 -10,12 -7,12 -5,13 -5">
  </polygon>
  <polygon class="fold" style="fill:#FF6100;" points="12 -7,15 -6,18 -6,18 -7">
  </polygon>
  <polygon class="fold" style="fill:#FFb400;" points="15 -6,16 -9,16 -11,15 -13">
  </polygon>
  <polygon class="fold" style="fill:#FF6100;" points="14 -10,13 -12,13 -13,14 -14">
  </polygon>
  <polygon class="fold" style="fill:#FFb400;" points="13 -13,12 -14,19 -14,18 -13">
  </polygon>
  <polygon class="fold" style="fill:#00D47C;" points="13 -12,15 -13,17 -13,19 -12">
  </polygon>
  <polygon class="fold" style="fill:#FF6100;" points="16 -11,16 -9,17 -9,17 -13">
  </polygon>
  <polygon class="fold" style="fill:#FFb400;" points="16 -11,18 -10,20 -10,20 -11">
  </polygon>
  <polygon class="fold" style="fill:#008ED6;" points="18 -10,19 -12,19 -14,18 -15">
  </polygon>
  <polygon class="fold" style="fill:#FF0000;" points="18 -15,17 -14,20 -14,20 -15">
  </polygon>
  <polygon class="fold" style="fill:#FF6100;" points="17 -15,17 -14,18 -13,18 -15">
  </polygon>
  <polygon class="fold" style="fill:#FE2BD0;" points="13 -13,14 -14,13 -15,11 -15">
  </polygon>

  <path stroke="#FF0000" class="fold" stroke-dasharray="0,0,301.2955322265625" 
    d="M -17.5 16 q 0 0.5 -0.5 1 q -0.5 0.5 -0.5 1 l 0 299">
  </path>
  <path stroke="#00D47C" class="fold" stroke-dasharray="0,0,306.2284240722656" 
    d="M -16 13.5 q 0.5 0 0.5 0.5 l 0 2 q 0 0.5 -0.5 1 l -1.5, 1.5 q -0.5 0.5 -0.5 1  l 0 299">
  </path>
  <path stroke="#FF6100" class="fold" stroke-dasharray="0,0,307.5381774902344" 
    d="M -13.5 14 l 0 2 q 0 0.5 -0.5 1 l -3, 3 q -0.5 0.5 -0.5 1  l 0 299">
  </path>
  <path stroke="#FF0000" class="fold" stroke-dasharray="0,0,313.4710693359375" 
    d="M -12 10.5 q 0.5 0 0.5 0.5 l 0 5 q 0 0.5 -0.5 1 l -4.5, 4.5 q -0.5 0.5 -0.5 1  l 0 299">
  </path>
  <path stroke="#FF0000" class="fold" stroke-dasharray="0,0,315.6092529296875" 
    d="M -7.5 11 l 0 3 q 0 0.5 -0.5 1 l -8, 8 q -0.5 0.5 -0.5 1  l 0 299">
  </path>
  <path stroke="#00D47C" class="fold" stroke-dasharray="0,0,323.5421142578125" 
    d="M -6 5.5 q 0.5 0 0.5 0.5 l 0 8 q 0 0.5 -0.5 1 l -9.5, 9.5 q -0.5 0.5 -0.5 1  l 0 299">
  </path>
  <path stroke="#FFb400" class="fold" stroke-dasharray="0,0,328.16558837890625" 
    d="M 4.5 6 q 0 0.5 -0.5 1 l -19, 19 q -0.5 0.5 -0.5 1 l 0 299">
  </path>
  <path stroke="#FF0000" class="fold" stroke-dasharray="0,0,73.58729553222656" 
    d="M 5.5 3 q 0 0.5 0.5 0.5 l 10 0 q 0.5 0 1 -0.5 l 14 -14 q 0.5 -0.5 1 -0.5 l 35 0 q 3.5 0 3.5 -3.5">
  </path>
  <path stroke="#008ED6" class="fold" stroke-dasharray="0,0,64.34283447265625" 
    d="M 13 1.5 l 3 0 q 0.5 0 1 -0.5 l 12.5 -12.5 q 0.5 -0.5 1 -0.5 l 36.5 0 q 3 0 3 -3">
  </path>
  <path stroke="#FF0000" class="fold" stroke-dasharray="0,0,62.06460189819336" 
    d="M 12.5 -5 q 0 0.5 0.5 0.5 l 7 0 q 0.5 0 1 -0.5 l 7 -7 q 0.5 -0.5 1 -0.5 l 38 0 q 2.5 0 2.5 -2.5">
  </path>
  <path stroke="#FF6100" class="fold" stroke-dasharray="0,0,54.8200798034668" 
    d="M 18 -6.5 l 2 0 q 0.5 0 1 -0.5 l 5.5 -5.5 q 0.5 -0.5 1 -0.5 l 39.5 0 q 2 0 2 -2">
  </path>
  <path stroke="#FF6100" class="fold" stroke-dasharray="0,0,55.1987419128418" 
    d="M 16.5 -9 q 0 0.5 0.5 0.5 l 3 0 q 0.5 0 1 -0.5 l 4 -4 q 0.5 -0.5 1 -0.5 l 41 0 q 1.5 0 1.5 -1.5">
  </path>
  <path stroke="#FFb400" class="fold" stroke-dasharray="0,0,49.95423889160156" 
    d="M 20 -10.5 q 0.5 0 1 -0.5 l 2.5 -2.5 q 0.5 -0.5 1 -0.5 l 42.5 0 q 1 0 1 -1">
  </path>
  <path stroke="#FF0000" class="fold" stroke-dasharray="0,0,47.81157302856445" 
    d="M 20 -14.5 l 47 0 q 0.5 0 0.5 -0.5">
  </path>
  
  <svg width="75px" viewBox="-180 -100 360 240" x="5" y="-30" >
    <path d="M -38.231720591933204 11.761613009292166 A 40 40 0 0 0 -31.743753676682086 24.337914917143838" 
      stroke-width="40" stroke-dasharray="14.226072311401367,0,14.226072311401367" 
      stroke="#FE2BD0" class="exp">
    </path>
    <path d="M -31.743753676682086 24.337914917143838 A 40 40 0 0 0 1.268279524620546 39.97988828207788" 
      stroke-width="40" stroke="#FF0000" class="exp"  
      stroke-dasharray="37.557075119018556,0.3793643951416016,37.557075119018556">
      </path>
    <path d="M 1.268279524620546 39.97988828207788 A 40 40 0 0 0 10.623514628737409 38.56346635007027" 
      stroke-width="40" stroke="#FE2BD0" class="exp" 
      stroke-dasharray="9.48404312133789,0,9.48404312133789">
    </path>
    <path d="M 17.26321127169829 62.66563281886419 A 65 65 0 0 0 24.553705550558696 60.18401402146971" 
      stroke-width="65" stroke="#FF6100" class="exp" 
      stroke-dasharray="7.628730254173279,0.07705788135528564,7.628730254173279">
    </path>
    <path d="M 15.10997264649766 37.03631632090443 A 40 40 0 0 0 39.728973309630646 4.648513715442353" 
      stroke-width="40" stroke="#FE2BD0" class="exp"  
      stroke-dasharray="42.67878723144531,0,42.67878723144531">
    </path><path d="M 39.728973309630646 4.648513715442353 A 40 40 0 0 0 39.70934341522841 -4.813319595814945" 
      stroke-width="40" stroke="#00D47C" class="exp"  
      stroke-dasharray="9.48404598236084,0,9.48404598236084">
    </path>
    <path d="M 64.52768304974616 -7.821644343199286 A 65 65 0 0 0 63.14967875966204 -15.39863865903376" 
      stroke-width="65" stroke="#FF6100" class="exp"  
      stroke-dasharray="7.628732614517212,0.07705790519714356,7.628732614517212">
    </path>
    <path d="M 38.86134077517664 -9.47608532863616 A 40 40 0 0 0 26.938032561823448 -29.569281386231552" 
      stroke-width="40" stroke="#FF0000" class="exp"  
      stroke-dasharray="23.710121154785156,0,23.710121154785156">
    </path>
    <path d="M 72.13880375360462 36.83738580571264 A 81 81 0 0 0 21.18841188471427 -78.17960860610457" 
      stroke-width="6" stroke="#008ED6" class="exp"  
      stroke-dasharray="142.59920059204103,1.4403959655761718,142.59920059204103">
    </path>
    <path d="M -44.21882439184271 -54.2650492435359 A 70 70 0 0 0 -66.99033861059829 -20.305037129672634" 
      stroke-width="70" stroke="#00D47C" class="exp"  
      stroke-dasharray="41.49272155761719,0,41.49272155761719">
    </path>
    <path d="M 33.672540702279306 -36.96160173278944 A 50 50 0 0 0 -47.7896507399165 14.702016261615194" 
      stroke-width="50" stroke="#FFb400" class="exp"  
      stroke-dasharray="129.10748977661132,1.3041160583496094,129.10748977661132">
    </path>
  </svg>
  
  <svg width="57.5px" x="17.5" y="15"  viewBox="-180 -100 360 200">
    <circle cx="75" cy="35" r="50" stroke="#FF6100" 
      fill="#FF6100" class="edu">
    </circle>
    <circle cx="-100" cy="-25" r="70" stroke="#FFb400" 
      fill="#FFb400" class="edu">
    </circle>
    <circle cx="-45" cy="0" r="30" stroke="#00D47C" 
      fill="#00D47C" class="edu">
    </circle>
  </svg>
  
  <text class="title" x="29" y="-9">
    BRIAN NOYAMA
  </text>

  <text class="subtitle" x="-16" y="0">
    Skills
  </text>

  {% for topic in site.data.skills.skills %}
    <text x="-16" y="{{ forloop.index0 | times: 3 | plus: 3}}">
      {{ topic.type | strip_html }}
    </text>

  {% endfor %}  
  
  <text class="subtitle" x="-16" y="30">
    Tools
  </text>
  
  {% for topic in site.data.tools.skills %}
    <text x="-16" y="{{ forloop.index0 | times: 3 | plus: 33}}">
      {{ topic.type | strip_html }}
    </text>

  {% endfor %}  
  
  
  <text class="subtitle" x="-16" y="69">
    Hobbies
  </text>
  
  <clipPath id="shift_sq_0" clipPathUnits="objectBoundingBox">
    <polygon points="0,0.1,0.1,1,1,0.9,0.9,0">
    </polygon>
  </clipPath>
  
  <image class="origami" xlink:href="/assets/images/oct-shadow.jpg" 
    clip-path="url(#shift_sq_0)" width="12.5" height="12.5" x="2.5" y="74">
    <title>
      Octagon Shadow fold Origami that I made for my partner
    </title>
  </image>

  {% for topic in site.data.hobbies %}
    <text x="-16" y="{{ forloop.index0 | times: 3 | plus: 72}}">
      {{ topic.desc | strip_html }}
    </text>

  {% endfor %}  
  
  <text class="contitle" x="-16" y="90">
    Contact Me
  </text>
  
  <svg class="icon" viewBox="0 0 32 32" x="-16" y="91"  width="2.5px" height="2.5px">
    <path d="M 6 7.03125 C 5.691406 7.03125 5.402344 7.089844 5.125 7.175781 L 8.039063 9.03125 L 23.960938 9.03125 L 26.875 7.175781 C 26.597656 7.089844 26.308594 7.03125 26 7.03125 Z M 4.113281 7.71875 C 3.4375 8.269531 3 9.097656 3 10.03125 L 3 23.03125 C 3 24.683594 4.347656 26.03125 6 26.03125 L 26 26.03125 C 27.652344 26.03125 29 24.683594 29 23.03125 L 29 10.03125 C 29 9.097656 28.5625 8.269531 27.886719 7.71875 L 16 15.28125 Z M 6 12.445313 L 16 18.8125 L 26 12.445313 L 26 24.03125 L 6 24.03125 Z "/>
  </svg>
  <text class="contact" x="-13" y="93">
    <a href="mailto:brian@noyama-dev.com">
      brian@noyama-dev.com
    </a>
  </text>
  
  <svg class="icon" viewBox="0 0 16 16" x="-16" y="94" width="2.5px" height="2.5px">
    <path d="M7.999,0.431c-4.285,0-7.76,3.474-7.76,7.761 c0,3.428,2.223,6.337,5.307,7.363c0.388,0.071,0.53-0.168,0.53-0.374c0-0.184-0.007-0.672-0.01-1.32 c-2.159,0.469-2.614-1.04-2.614-1.04c-0.353-0.896-0.862-1.135-0.862-1.135c-0.705-0.481,0.053-0.472,0.053-0.472 c0.779,0.055,1.189,0.8,1.189,0.8c0.692,1.186,1.816,0.843,2.258,0.645c0.071-0.502,0.271-0.843,0.493-1.037 C4.86,11.425,3.049,10.76,3.049,7.786c0-0.847,0.302-1.54,0.799-2.082C3.768,5.507,3.501,4.718,3.924,3.65 c0,0,0.652-0.209,2.134,0.796C6.677,4.273,7.34,4.187,8,4.184c0.659,0.003,1.323,0.089,1.943,0.261 c1.482-1.004,2.132-0.796,2.132-0.796c0.423,1.068,0.157,1.857,0.077,2.054c0.497,0.542,0.798,1.235,0.798,2.082 c0,2.981-1.814,3.637-3.543,3.829c0.279,0.24,0.527,0.713,0.527,1.437c0,1.037-0.01,1.874-0.01,2.129 c0,0.208,0.14,0.449,0.534,0.373c3.081-1.028,5.302-3.935,5.302-7.362C15.76,3.906,12.285,0.431,7.999,0.431z"/>
  </svg>
  <text class="contact" x="-13" y="96">
    <a href="https://www.github.com/briannoyama/">
      github.com/briannoyama/
    </a>
  </text>
  
  <svg class="icon" width="2.5px" height="2.5px" x="-16" y="97" viewBox="0 0 24 24">
    <path d="M19 0h-14c-2.761 0-5 2.239-5 5v14c0 2.761 2.239 5 5 5h14c2.762 0 5-2.239 5-5v-14c0-2.761-2.238-5-5-5zm-11 19h-3v-11h3v11zm-1.5-12.268c-.966 0-1.75-.79-1.75-1.764s.784-1.764 1.75-1.764 1.75.79 1.75 1.764-.783 1.764-1.75 1.764zm13.5 12.268h-3v-5.604c0-3.368-4-3.113-4 0v5.604h-3v-11h3v1.765c1.396-2.586 7-2.777 7 2.476v6.759z"/>
  </svg>
  <text class="contact" x="-13" y="99">
    <a href="http://www.linkedin.com/in/briannoyama/">
      linkedin.com/in/briannoyama/
    </a>
  </text>
  
  
  <text class="contact" x="33" y="-6">
    View the interactive résumé:
  </text>
  
  <text class="subtitle" x="28" y="-3">
    <a href="http://www.noyama-dev.com/resume/">
      www.noyama-dev.com/resume/
    </a>
  </text>
  
  
  <text class="subtitle" x="17" y="0">
    Work History
  </text>


  {% for experience in site.data.experience.experiences %}
    {% if forloop.index0 == 4 %}
      {% break %}
    {% endif %}
    <text class="company" x="17" y="{{ forloop.index0 | times: 12 | plus: 3.25}}">
      {{ experience.company | strip_html }}
    </text>
    
    <text class="date" x="68" y="{{ forloop.index0 | times: 12 | plus: 3.25}}">
      {{ experience.time | first | first | modulo: 100}}/{{ experience.time | first | first | divided_by: 100 | round}} - 
      {% capture last_word %}{{ experience.time | last | last }}{% endcapture %}
      {% if last_word == 'now' %}
        Present
      {% else %}
        {{ experience.time | last | last | modulo: 100}}/{{ experience.time | last | last | divided_by: 100}}
      {% endif %} 
    </text>
    
    <text class="position" x="17" y="{{ forloop.index0 | times: 12 | plus: 6}}">
      {{ experience.position | strip_html }}
    </text>


    <circle class="bull" cx="18.5" cy="{{ forloop.index0 | times: 12 | plus: 8}}" r=".75">
    </circle>
    <text x="20" y="{{ forloop.index0 | times: 12 | plus: 9}}">
      {{ experience.points | first }}
    </text>
    
    
    <circle class="bull" cx="18.5" cy="{{ forloop.index0 | times: 12 | plus: 11}}" r=".75">
    </circle>
    <text x="20" y="{{ forloop.index0 | times: 12 | plus: 12}}">
      {{ experience.points | last }}
    </text>
    
  {% endfor %}
  
  <text class="subtitle" x="17" y="54">
    Education
  </text>
  

  {% for school in site.data.education.schools %}
    <text class="company" x="17" y="{{ forloop.index0 | times: 12 | plus: 57.25}}">
      {{ school.name | strip_html }}
    </text>
    
    <text class="date" x="68"  y="{{ forloop.index0 | times: 12 | plus: 57}}">
      {{ school.text | last | split: ',' | last | strip_html }}
    </text>
    
    
    <text class="position" x="17"  y="{{ forloop.index0 | times: 12 | plus: 60}}">
      {{ school.text[1] }}
    </text>
    
    <text class="place" x="68"  y="{{ forloop.index0 | times: 12 | plus: 60}}">
      {{ school.text[0] }}
    </text>
    
    <circle class="bull" cx="18.5" cy="{{ forloop.index0 | times: 12 | plus: 62}}" r=".75">
    </circle>
    <text x="20" y="{{ forloop.index0 | times: 12 | plus: 63}}">
      {{ school.points | first }}
    </text>
    
    <circle class="bull" cx="18.5" cy="{{ forloop.index0 | times: 12 | plus: 65}}" r=".75">
    </circle>
    <text x="20" y="{{ forloop.index0 | times: 12 | plus: 66}}">
      {{ school.points | last }}
    </text>    

  {% endfor %}  


  <text class="subtitle" x="28.5" y="96">
    Tools Used to make Résumé
  </text>
    
  <text x="29" y="99">
    Jekyll
  </text>
  
  <circle class="bull" cx="36.5" cy="98" r=".75">
  </circle>
    
  <text x="38.5" y="99">
    JSON
  </text>
  
  <circle class="bull" cx="45.5" cy="98" r=".75">
  </circle>
    
  <text x="48" y="99">
    SVG
  </text>
  
  <circle class="bull" cx="54.5" cy="98" r=".75">
  </circle>
      
  <text x="56" y="99">
    Liquid
  </text>

</svg>

