<?xml version="1.0" encoding="UTF-8" standalone="no"?>
<!-- Created with Inkscape (http://www.inkscape.org/) -->

<svg
   xmlns:dc="http://purl.org/dc/elements/1.1/"
   xmlns:cc="http://creativecommons.org/ns#"
   xmlns:rdf="http://www.w3.org/1999/02/22-rdf-syntax-ns#"
   xmlns:svg="http://www.w3.org/2000/svg"
   xmlns="http://www.w3.org/2000/svg"
   version="1.1"
   width="1701"
   height="2000"
   id="svg2">
  <defs
     id="defs4" />
  <metadata
     id="metadata7">
    <rdf:RDF>
      <cc:Work
         rdf:about="">
        <dc:format>image/svg+xml</dc:format>
        <dc:type
           rdf:resource="http://purl.org/dc/dcmitype/StillImage" />
        <dc:title></dc:title>
      </cc:Work>
    </rdf:RDF>
  </metadata>
  <path
     d="m 0.2666,1979 c 0,-15 0.2,-21 0.3,-15 0.2,6 0.7004,11 1.1004,11 0.9,0 50.153,-49 50.153,-50 0,-1 -11.35,-1 -25.35,-1 l -25.5034,0 -0.4,13 c -0.1,7 -0.4,-6 -0.5,-29 -0.2,-37 0,-42 1.3004,-41 1.7,0 10.503,-3 10.503,-4 0,-1 -1.3,-2 -6.703,-2 -3.3,-1 -4.3004,0 -4.6004,1 -0.3,1 -0.4,-12 -0.4,-28 0.1,-17 0.3,-23 0.4,-13 0.2,9 0.7004,17 1.1004,17 0.4,0 2.3,-3 4.2,-6 3.4,-6 3.5,-7 4,-19 0.403,-9 0.903,-12 1.803,-13 0.9,0 1.2,3 1.2,12 l 0,13 33.65,33 c 18.6,18 34.11,33 34.55,33 0.4,0 0.8,-10 0.8,-22 l 0,-22 -26.25,-26 c -21.35,-22 -25.85,-27 -24.25,-27 1.5,-1 6.9,4 24.35,22 12.3,12 22.55,22 22.72,22 0.16,0 -1.47,-6 -3.62,-13 l -3.9,-13 -11.1,-11 c -6,-7 -11,-12 -11,-13 0,-3 3.1,-1 13.2,10 l 10.7,10 24.85,-10 c 13.63,-6 27.23,-12 30.03,-13 l 5.3,-2 0,-8 0,-7 -12.3,0 c -11.3,0 -12,0 -8.7,-2 1.9,0 6.5,-1 10.2,-1 6.7,0 7.8,-1 5.7,-3 -0.7,-1 -0.4,-1 1,-2 1.1,0 2.5,1 3.2,1 1.7,2 3,2 6.9,-2 1.9,-1 5.1,-4 7,-4 3.4,-1 3.2,-1 -3.2,5 l -6.8,7 0,8 c 0,8 0.1,8 6.6,21 3.7,6 7.1,12 7.5,12 0.5,0 0.9,-12 0.9,-28 0,-23 0.2,-27 1.5,-27 1.3,0 1.5,4 1.7,32 0.3,29 0.5,32 2,33 1.6,1 6.5,-3 35.8,-33 18.7,-18 34,-34 34,-34 0,-1 -14.3,-1 -31.7,-1 -25.2,0 -31.3,-1 -29.3,-2 1.7,0 12.9,-1 33.9,-1 l 31.5,-1 2.3,-6 c 1.3,-3 2.3,-6 2.3,-7 0,-1 -2.4,-1 -9.2,-1 -8.7,-1 -9.1,-1 -6.3,-2 1.7,-1 5.4,-1 8.4,-1 4.2,0 5.2,-1 4.8,-2 -0.9,-2 2.3,-3 4.4,-1 1.7,2 2.3,2 8.4,0 5.3,-2 6.5,-3 6.1,-5 -0.3,-1 0.3,-2 2,-2 3.6,-2 4.2,-2 4.6,1 0.2,1 1.8,3 6.3,4 3.2,2 6.5,3 7.2,3 0.9,0 1.3,-2 1.3,-8 0,-6 0.4,-7 1.6,-7 1.2,0 1.5,1 1.5,6 0,4 0.3,7 0.6,7 0.4,0 5.7,-5 11.8,-11 7.8,-8 12.3,-11 15,-12 3.4,-1 2.3,0 -11.5,14 l -15.3,14 2.9,7 c 1.5,4 3.3,7 3.9,7 0.6,0 12.8,-12 27.1,-26 22.5,-23 31.4,-31 33.1,-29 0.2,0 -12.3,13 -27.6,28 -15.4,16 -28,28 -28,29 0,0 16.2,1 36,1 l 36,0 0,-32 0,-32 4.5,-1 c 4.1,-1 5.4,-1 14.1,1 5.3,2 9.8,3 10.2,2 0.3,0 -1.4,-2 -3.7,-5 -3.7,-3 -4.1,-4 -2.5,-4 1.3,-1 4,1 8.6,6 l 6.6,6 6.4,-3 6.3,-2 0.3,-9 c 0.2,-6 0.6,-8 1.7,-9 1.2,0 1.5,1 1.5,5 0,3 0.4,5 0.9,5 0.5,0 2.4,-3 4.2,-7 2,-3 4.2,-6 5.3,-7 1.1,0 2.1,0 2.3,0 0.2,0 -2.2,5 -5.3,11 -4.2,7 -5.3,10 -4.4,11 1.3,1 19.9,2 20.5,2 0.2,-1 -1.2,-6 -3.1,-13 -1.9,-7 -3.3,-13 -3.2,-13 0.2,0 1.9,-1 3.8,-1 l 3.4,-1 14.2,14 14.3,14 15.5,-6 c 8.6,-4 15.6,-7 15.6,-8 0,0 -5.6,-6 -12.5,-13 -6.9,-6 -12.5,-12 -12.5,-12 0,-3 4,-1 8,3 6,6 16,15 16.5,15 0.2,-1 -1.2,-6 -3.1,-12 -1.9,-6 -3.4,-12 -3.4,-12 0,-1 2.6,-2 5.8,-3 4.8,-1 7,-1 14.5,0 l 8.8,1 7.2,-4 c 5.1,-2 8.1,-4 10.2,-7 2.4,-3 6.8,-6 9.3,-6 0.2,0 -1.7,2 -4.3,5 -2.6,3 -4.6,6 -4.3,6 0.8,1 27.1,9 27.5,8 0.3,0 -0.8,-3 -2.4,-5 -1.7,-3 -4.4,-8 -6.2,-11 -2.9,-5 -3,-6 -1.3,-6 1.5,0 2.9,1 6.7,8 2.7,5 5.2,9 5.7,9 0.4,0 0.8,-5 0.8,-11 0,-9 0.3,-11 1.5,-11 1.3,-1 1.5,1 1.5,15 l 0,16 2.6,1 c 2.4,1 3.4,0 29.7,-26 19.5,-19 28.2,-27 30.7,-27 2.8,-1 -1.8,3 -24.8,26 -15.5,16 -28.2,29 -28.2,29 0,0 4.2,1 9.3,1 l 9.2,0 27.4,-28 27.5,-26 -1.6,-4 c -1.5,-4 -1.5,-4 0.1,-5 1,0 2.3,1 3.6,4 1.8,4 2.8,4 9.9,7 l 7.9,3 6.6,-3 c 3.6,-1 7.5,-2 8.7,-3 3,-2 7.8,-16 6.9,-20 -0.7,-3 -0.6,-3 2,-2 2,0 3.3,0 4.9,-1 1.1,-2 3.7,-3 5.6,-4 l 3.5,-1 -3.8,4 c -2,2 -3.7,4 -3.7,5 0,0 12.5,0 27.7,0 l 27.7,0 5.4,-14 c 4.8,-13 7.3,-17 8.9,-15 0.3,0 -1.3,5 -3.6,11 -2.3,6 -4.1,11 -4.1,11 0,3 13.6,-8 16.2,-13 0.9,-2 2.4,-6 3.4,-9 1.5,-4 2.3,-6 4.4,-6 1.4,0 6.9,-2 12.2,-4 5.4,-2 9.8,-3 9.8,-3 0,0 -3.2,2 -7,4 -3.9,2 -7,4 -7,4 0,1 9.7,1 21.5,1 11.8,0 21.5,0 21.5,0 0,-1 -3,-4 -6.7,-8 -5.6,-5 -6.4,-7 -4.9,-7 1.3,-1 3.6,1 9,6 3.9,4 7.6,7 8.2,7 1.2,0 14.4,-13 14.4,-14 0,-1 -1.4,-3 -3.2,-4 -2.7,-3 -2.9,-4 -1.4,-4 1.2,-1 2.9,0 5.5,3 3.6,3 3.9,3 11.6,3 7.8,0 7.9,0 20.2,-6 6.7,-4 12.3,-7 12.3,-8 0,0 -5.3,-1 -11.8,-1 -16.5,0 -11.4,-2 7.2,-3 11.6,0 14.1,0 15,-2 0.8,-1 0.6,-2 -0.7,-3 -1.7,-2 -1.7,-2 1.4,-4 4.5,-1 4.9,-1 4.9,2 l 0,2 11.5,0 11.5,0 0,-7 c 0,-5 0.3,-7 1.5,-7 1.2,0 1.5,2 1.5,8 l 0,7 27.4,27 27.6,28 6,-3 c 4,-1 7,-3 7,-3 0,-1 -14,-16 -31.5,-33 -26.2,-26 -32.1,-32 -30.9,-33 1.3,-1 8.1,6 32.9,30 17.5,17 31.5,31 31.5,31 1,0 1,-12 1,-27 l 0,-28 -13,-5 c -23.5,-9 -25.5,-10 -22.5,-11 1,0 5,1 14.5,4 7,3 13,5 14,5 1,0 -1,-3 -5,-8 -3,-3 -5,-6 -5,-7 0,0 9,-3 20,-7 11,-4 20,-6 19,-5 -1,1 -2,96 0,96 0,0 8,-7 16,-15 l 16,-16 0,-39 c 0,-29 1,-38 2,-38 1,-1 1,7 1,34 0,19 0,34 1,34 0,0 4,-5 7,-11 l 7,-12 0,-26 c 0,-18 1,-25 2,-25 1,-1 1,5 1,24 l 1,26 11,5 c 6,2 19,8 29,12 l 18,8 5,-5 c 3,-3 5,-5 5,-6 0,0 -15,-15 -33,-33 -26,-27 -32,-33 -31,-34 3,-1 8,5 33,30 17,17 31,31 32,31 1,0 1,-3 1,-9 l 0,-9 -24,-24 c -20,-20 -24,-25 -23,-25 2,-1 7,4 25,22 13,12 23,22 24,22 0,0 11,-11 23,-23 15,-16 23,-24 23,-26 0,-2 0,-2 -37,-2 -33,0 -37,0 -34,-1 3,-1 11,-2 35,-2 18,0 32,0 32,0 0,-2 -13,-14 -15,-15 -1,0 0,-1 2,-1 3,-1 4,-1 4,0 0,1 13,14 15,14 1,0 14,-13 14,-14 0,-1 -2,-3 -4,-5 -3,-3 -3,-4 -2,-4 2,-1 3,0 6,3 l 5,4 13,0 13,0 3,-6 c 1,-3 2,-7 2,-7 0,-1 -2,-2 -9,-2 -9,0 -9,0 -6,-1 2,-1 7,-2 10,-2 6,0 7,0 8,-2 1,-2 4,-4 5,-3 0,0 0,1 -1,3 -1,3 -1,4 1,6 1,1 3,2 3,2 1,0 3,-3 4,-7 4,-8 4,-9 7,-10 1,0 1,1 -2,9 -2,5 -4,9 -4,10 0,1 2,1 10,1 l 11,0 3,-7 c 2,-4 3,-8 3,-8 0,-1 -2,-3 -4,-5 -3,-4 -4,-4 -2,-5 1,0 3,1 5,3 3,3 4,3 6,3 3,-1 3,-3 -1,-6 -2,-2 -2,-2 0,-3 1,-1 2,0 5,2 l 3,4 8,-4 c 7,-3 8,-3 8,-7 0,-5 3,-5 3,0 0,2 1,4 2,4 3,2 4,2 4,-5 0,-4 0,-6 1,-6 2,0 2,2 2,8 l 1,7 7,3 8,4 7,-7 c 4,-4 7,-8 7,-8 0,-1 -5,-3 -11,-6 -9,-4 -10,-4 -8,-5 2,-1 5,0 13,3 l 9,4 3,-2 c 2,-2 3,-3 3,-4 0,0 -3,-1 -6,-3 -3,-1 -6,-2 -6,-3 0,-1 4,-1 10,1 l 5,2 7,-6 c 4,-4 8,-7 11,-8 l 5,-2 -10,9 -9,9 2,7 c 1,4 3,7 3,7 2,0 32,-30 32,-31 0,0 -4,-1 -9,-1 -8,0 -8,0 -5,-1 2,-1 7,-2 11,-2 7,0 7,0 7,-2 0,-2 1,-3 2,-3 0,0 1,1 1,3 0,2 1,4 3,5 3,3 28,10 29,9 0,-1 -4,-5 -10,-11 -8,-8 -10,-10 -9,-11 2,-1 3,0 18,15 l 10,10 6,-3 6,-2 0,-17 c 0,-14 0,-17 2,-17 1,0 1,2 1,13 0,7 0,12 1,12 2,0 14,-24 14,-27 0,-3 0,-4 2,-4 1,0 1,1 1,4 0,3 3,6 34,37 18,18 34,33 34,33 1,0 1,-10 1,-22 l 0,-22 -19,-20 c -11,-10 -20,-19 -20,-20 0,-3 6,1 19,15 9,9 16,15 17,15 0,0 -1,-6 -3,-13 -4,-13 -4,-13 -9,-18 -4,-5 -5,-5 -3,-6 1,-1 3,0 6,4 l 4,4 17,-7 c 9,-4 22,-9 29,-12 12,-5 13,-5 13,-9 0,-2 1,-4 2,-4 1,0 1,0 1,4 0,3 2,6 7,16 3,7 7,12 7,12 1,0 1,-8 1,-19 0,-15 0,-19 2,-19 1,-1 1,2 1,23 0,24 0,26 4,26 0,0 10,-8 21,-19 l 20,-20 0,-13 c 0,-7 1,32 1,87 0,56 -1,98 -1,95 l 0,-7 -46,0 c -25,0 -46,1 -46,1 0,1 7,8 16,16 14,13 16,16 14,17 -1,0 -5,-4 -19,-16 l -17,-17 -7,2 c -3,2 -6,3 -6,4 0,0 7,8 16,17 12,12 15,15 14,16 -2,0 -5,-3 -17,-14 -8,-8 -15,-15 -15,-15 -1,0 -1,9 -1,20 0,17 0,20 -1,20 -2,0 -2,-3 -2,-22 l 0,-22 -5,-2 c -2,-1 -6,-2 -7,-2 l -3,-1 0,28 c 0,24 0,27 -1,27 -2,0 -2,-3 -2,-26 0,-17 0,-27 -1,-26 0,0 -8,7 -16,15 l -16,15 0,17 c 0,15 0,17 -1,17 -2,0 -2,-2 -2,-13 0,-7 0,-13 -1,-13 0,0 -4,6 -7,13 -5,8 -7,13 -7,16 0,5 -3,5 -3,0 0,-4 -1,-4 -6,-6 -4,-2 -17,-7 -30,-12 l -23,-10 -5,5 c -3,3 -5,5 -5,6 0,0 7,8 17,17 13,13 16,16 15,17 -2,0 -5,-3 -17,-14 -9,-8 -16,-15 -16,-15 -1,0 -1,5 -1,10 l 0,9 8,7 c 4,4 7,8 7,9 0,2 -4,0 -9,-6 -4,-3 -7,-6 -7,-6 -1,0 -7,6 -14,13 -11,11 -18,17 -20,15 0,0 6,-7 14,-14 8,-8 14,-14 14,-15 0,0 -4,-1 -9,-1 l -10,0 -6,7 c -6,6 -6,6 -9,15 -2,9 -4,14 -6,12 0,0 1,-5 2,-10 2,-5 3,-9 2,-10 0,0 -19,1 -20,2 -1,1 0,3 4,11 3,5 5,9 5,10 0,0 -1,0 -2,0 -1,0 -3,-2 -5,-6 -2,-4 -4,-7 -4,-7 -1,0 -1,4 -1,9 0,7 0,8 -1,8 -2,0 -2,-2 -2,-12 l 0,-13 -7,-2 -6,-3 -27,27 c -15,15 -28,27 -29,27 0,0 -2,1 -3,1 -1,0 10,-11 24,-25 15,-15 26,-27 26,-27 -1,-1 -7,1 -14,3 l -12,3 -18,18 -17,17 2,6 c 3,6 3,8 0,7 0,0 -2,-3 -3,-6 -3,-6 -4,-6 -11,-9 l -8,-3 -7,2 c -10,4 -10,4 -14,13 -2,8 -2,8 -1,13 2,4 2,5 1,6 -2,1 -3,0 -4,-4 0,-1 -1,-3 -1,-3 -1,0 -4,3 -8,7 -4,3 -8,7 -10,7 -3,1 -3,1 5,-7 4,-4 8,-8 8,-9 0,0 -16,-1 -36,-1 l -37,0 0,19 c 0,15 0,18 -1,19 -2,0 -2,-2 -2,-17 0,-9 0,-17 -1,-17 -1,0 -13,14 -13,16 0,1 2,6 4,11 4,8 5,9 3,9 -1,1 -2,0 -5,-5 -1,-3 -3,-6 -3,-6 0,0 -2,4 -3,8 -2,5 -3,8 -4,8 -2,1 -2,-1 1,-8 0,-2 1,-4 0,-5 0,0 -5,5 -11,10 -6,6 -11,11 -12,11 0,0 -2,0 -3,0 -1,1 6,-6 14,-14 11,-11 16,-17 16,-19 l 0,-2 -49,0 c -27,0 -49,0 -49,1 0,0 9,10 21,22 12,11 21,20 21,21 0,3 -6,-2 -26,-21 l -22,-22 -6,2 c -4,1 -7,3 -7,4 0,0 10,10 22,22 17,17 21,21 19,22 -1,0 -6,-4 -22,-20 -11,-11 -21,-20 -21,-20 -1,0 -1,12 -1,27 0,23 0,28 -2,28 -1,1 -1,-3 -1,-29 l 0,-30 -5,-2 c -2,-1 -6,-2 -7,-3 l -3,0 0,34 c 0,31 0,36 -2,36 -1,1 -1,-4 -1,-34 0,-18 0,-34 -1,-34 0,0 -8.5,9 -19.5,19 l -18.9,19 3.4,8 c 1.8,5 5.2,14 7.5,20 3.9,9 4.2,12 1.4,12 -0.3,0 -3.1,-7 -6.4,-15 -3.2,-9 -6.3,-15 -6.9,-15 -0.6,0 -1.6,4 -2.2,9 l -1.1,8 3.4,7 c 3.5,8 3.6,9 0.4,10 -1.3,0 -1.8,0 -1.4,-1 0.2,-1 -0.8,-4 -2.3,-7 l -2.7,-6 -42.3,0 c -24.2,0 -42.4,0 -42.4,1 0,0 7.5,8 16.6,16 13.7,13 16.2,16 14.8,17 -1.7,1 -2,1 -27.1,-24 l -10.1,-10 -6.6,3 c -3.6,1 -6.6,3 -6.6,3 0,1 7.2,8 16,17 8.8,9 16,16 16,17 0,3 -5.6,-1 -18.5,-14 -8.2,-9 -15.3,-15 -15.7,-15 -0.4,0 -0.9,9 -1,20 -0.2,16 -0.6,21 -1.6,21 -0.9,1 -1.2,-4 -1.2,-22 l 0,-23 -4.8,-2 c -2.6,-2 -5.9,-3 -7.4,-3 l -2.8,-1 -0.2,29 c -0.2,21 -0.6,28 -1.6,28 -0.9,1 -1.2,-5 -1.2,-27 0,-15 -0.3,-27 -0.8,-27 -1.2,0 -50.2,49 -50.2,50 0,1 3.6,5 8,9 6.4,6 7.7,7 6.5,8 -1.5,1 -8.1,-4 -12.9,-9 -1.1,-1 -2.3,-2 -2.7,-2 -0.5,0 -1,4 -1.1,8 -0.2,6 -0.7,9 -1.6,9 -0.9,1 -1.2,-2 -1.2,-10 l 0,-11 -11,0 -11,0 0,11 0,11 10.7,0 c 10.2,0 10.6,0 7.3,1 -1.9,1 -6.9,2 -11.1,2 -7.1,0 -7.7,0 -10.5,3 -2.7,3 -9.1,6 -10,5 -0.2,0 1.7,-2 4.1,-4 2.5,-3 4.5,-5 4.5,-6 0,-1 -10.4,-11 -23.1,-24 -16.9,-16 -23.8,-22 -25.5,-22 l -2.4,0 -0.2,35 c -0.2,28 -0.6,36 -1.6,37 -0.9,0 -1.2,-7 -1.2,-34 0,-19 -0.3,-34 -0.8,-34 -0.4,0 -3.8,3 -7.5,7 l -6.7,6 -0.2,30 c -0.2,23 -0.6,30 -1.6,31 -0.9,0 -1.2,-7 -1.2,-30 l 0,-30 -27.7,0 -27.7,0 -2.4,6 -2.5,6 25.1,25 c 19.9,21 24.8,26 23.4,27 -1.3,0 -6.8,-5 -23.3,-22 -11.9,-12 -22,-21 -22.4,-21 -0.3,0 0.9,6 2.9,13 l 3.5,13 11.2,11 c 9.1,9 10.8,12 9.3,12 -1.4,1 -4.3,-2 -12.4,-10 l -10.6,-10 -24.4,0 -24.4,0 -6.3,15 c -3.5,9 -6.3,16 -6.3,17 0,1 5.1,1 22.7,1 20.9,0 22.5,0 19.4,2 -2.5,1 -7.5,1 -19.7,1 -9,0 -16.4,0 -16.4,1 0,0 2.3,2 5.2,4 4.8,2 5,2 2.9,3 -1.8,1 -3.6,0 -7.8,-2 -3,-2 -5.7,-3 -6,-3 -0.3,1 0,2 0.7,4 1.1,4 0.8,6 -1,6 -0.5,0 -1.7,-3 -2.6,-6 -0.9,-3 -1.7,-6 -1.9,-6 -0.5,0 -12.5,5 -12.5,6 0,1 1.7,3 3.7,5 3.1,3 3.4,4 1.9,5 -1.2,0 -3,-1 -6.1,-4 l -4.4,-4 -16.3,7 -16.3,7 -0.5,4 c -0.7,6 -3,7 -3,1 l 0,-5 -6.5,-3 c -3.5,-2 -6.9,-3 -7.4,-3 -0.6,0 -1.2,4 -1.3,10 -0.2,7 -0.7,10 -1.5,11 -0.9,0 -1.3,-3 -1.5,-12 l -0.3,-11 -8.5,-4 c -4.7,-2 -12.2,-5 -16.8,-7 l -8.3,-3 -8.5,8 c -4.6,5 -8.3,9 -8.2,10 0.2,0 6,7 13,14 10.7,12 12.4,14 10.8,14 -1.6,1 -4.5,-2 -13.3,-11 -6.1,-7 -11.5,-12 -11.9,-12 -0.5,0 -0.8,4 -0.8,10 l 0,9 4,5 c 2.2,2 3.7,5 3.4,5 -1,2 -3,1 -5.2,-2 -1.3,-2 -2.7,-3 -3.3,-3 -0.6,0 -4.3,3 -8.3,7 -6.4,6 -13.1,10 -14.2,9 -0.3,-1 3.4,-4 8.1,-8 4.7,-5 8.5,-9 8.5,-9 0,-1 -4.4,-1 -9.7,-1 l -9.8,0 -14.5,14 c -9.7,10 -15.7,15 -18,16 -3,1 -1.2,-1 12.3,-15 8.6,-8 15.7,-16 15.7,-17 0,0 -8.5,-9 -18.9,-19 l -18.9,-19 -6.3,2 -6.4,3 -0.3,36 c -0.2,32 -0.4,37 -1.7,37 -1.3,0 -1.5,-4 -1.5,-32 0,-18 -0.4,-33 -0.9,-33 -0.4,0 -3.8,6 -7.5,12 l -6.6,13 0,23 0,23 -2.6,0 c -2.4,1 -5.3,-1 -33.4,-29 -26,-26 -33.1,-33 -33.1,-31 0,0 1.8,6 4,13 l 4,13 20.2,21 c 15.8,15 19.8,20 18.3,20 -1.4,1 -6.9,-4 -21.1,-18 l -19.3,-19 -12.8,4 c -7,3 -20.4,9 -29.8,12 l -17,8 -0.3,7 -0.3,8 46.8,0 c 40.5,0 46.4,0 43.4,2 -2.7,1 -12.7,1 -44.8,1 -22.7,0 -41.3,0 -41.3,1 0,0 3,4 6.8,7 l 6.8,7 11.4,0 c 10.8,0 11.3,0 8,2 -1.9,0 -7,1 -11.2,1 -7.5,0 -7.8,0 -7.8,2 0,3 -2.6,5 -3.3,3 -0.3,-1 -1.2,-1 -2.8,1 -1.3,1 -4,2 -5.9,3 l -3.5,1 5.3,-5 c 2.8,-3 5.2,-6 5.2,-7 0,-1 -13.3,-14 -14.7,-14 -1.1,0 -13.3,13 -13.3,14 0,1 2.5,4 5.6,8 4.8,5 5.4,6 3.9,7 -1.3,0 -3.3,-1 -7.7,-6 l -6,-7 -38.9,0 -39,0 -2,5 c -1.1,2 -2.3,6 -2.6,7 l -0.6,3 44.4,0 c 38.4,0 43.9,0 40.9,2 -2.7,1 -12.5,1 -43.2,1 -21.9,0 -39.8,0 -39.8,1 0,0 4.1,5 9.2,10 7.6,7 8.9,9 7.4,10 -1.4,0 -4.2,-2 -12.1,-10 l -10.3,-10 -6.63,2 c -3.6,1 -6.6,3 -6.6,3 0,1 4,6 9,11 5.03,4 9.03,9 9.03,9 0,3 -4.6,0 -11.53,-7 -4.4,-4 -8.3,-8 -8.7,-8 -0.5,0 -0.8,5 -0.8,12 0,9 -0.3,11 -1.5,11 -1.3,0 -1.5,-2 -1.5,-14 l 0,-13 -4.77,-2 c -2.61,-1 -5.98,-2 -7.48,-3 l -2.8,0 0,19 c 0,16 -0.2,19 -1.5,19 -1.3,1 -1.5,-2 -1.5,-18 0,-10 -0.3,-18 -0.7,-18 -0.5,0 -9.4,9 -20,19 l -19.15,20 -0.3,5 c -0.2,4 -0.8,7 -1.5,7 -0.8,0 -1.3,-1 -1.3,-2 0,-3 -1.5,-2 -3,1 -0.7,2 -1.6,3 -2,3 -0.5,0 -1.6,0 -2.5,1 -1.3,0 -0.9,-1 1.5,-6 1.7,-3 3,-6 2.8,-7 -0.2,0 -4.1,1 -8.503,3 l -8.2004,2 -0.4,6 c -0.2,4 -0.3,-5 -0.3,-19 z m 12.1034,6 9,-3 20.85,-21 20.9,-21 -2.8,-6 c -1.5,-4 -3.3,-7 -3.9,-7 -0.6,0 -13.3,12 -28.25,27 -24.603,25 -27.3034,28 -27.3034,31 0,2 0.5004,3 1.2004,3 0.7,0 5.4,-1 10.303,-3 z m 79.3,-43 c 8.1,-3 8.93,-3 12.33,-13 l 2.3,-7 -3,-8 -2.9,-7 -7.53,-4 c -4.2,-2 -8.3,-4 -9.2,-4 -1,0 -5.13,2 -9.3,3 l -7.65,4 -3.4,8 c -1.9,4 -3.5,8 -3.4,9 0,1 1.7,5 3.7,9 l 3.7,8 7.03,2 c 3.85,2 7.72,3 8.52,3 0.8,0 4.8,-1 8.8,-3 z m -32.75,-27 c 1.6,-4 2.9,-7 2.9,-8 0,-1 -10.4,-1 -30.45,-1 l -30.5034,0 0,8 0,7 27.6034,0 27.55,0 2.9,-6 z m 127.98,-27 c 0,-35 -0.2,-36 -3.9,-36 -1.6,0 -69.1,67 -69.1,68 0,1 16.4,1 36.5,1 l 36.5,0 0,-33 z m -43.3,-3 c 18.3,-19 33.3,-34 33.3,-34 0,-1 -4.2,-1 -9.3,-1 l -9.2,0 -27.4,27 -27.4,28 2.3,6 c 1.3,4 2.8,7 3.4,7 0.6,0 16.1,-15 34.3,-33 z m 54.1,25 6.2,-7 0,-7 c 0,-8 -0.2,-8 -6.2,-20 -3.5,-7 -6.6,-13 -7,-13 -0.5,0 -0.8,12 -0.8,27 0,15 0.3,27 0.8,27 0.4,0 3.5,-3 7,-7 z m -137.88,-8 c 0,0 -8.5,-9 -18.85,-19 l -18.9,-19 -10.6,4 -10.6034,4 0,15 0,16 29.5034,0 c 16.25,0 29.45,0 29.45,-1 z m 12.8,-3 c 3.42,-1 6.23,-3 6.23,-3 0,-2 -61.78,-62 -62.48,-62 -0.2,0 1.4,6 3.5,14 l 4,12 20.75,21 c 11.4,12 20.9,21 21.2,21 0.3,0 3.3,-1 6.8,-3 z m 27.25,-37 c 0,-21 -0.4,-39 -0.9,-39 -0.4,0 -3.8,6 -7.5,12 l -6.6,13 0,23 0,24 6.2,3 c 3.5,2 6.8,3 7.5,3 1,0 1.3,-8 1.3,-39 z m 29.23,12 c 13.7,-13 24.8,-25 24.8,-25 0,-2 -37.3,-39 -38.7,-39 -0.7,0 -3.7,1 -6.8,2 l -5.5,3 0,42 c 0,23 0.3,42 0.7,42 0.5,0 11.9,-11 25.5,-25 z m 197.9,-5 0,-22 -33.6,-34 c -18.4,-18 -34.1,-33 -34.6,-33 -0.5,0 -0.9,9 -0.9,22 l 0,22 33.9,33 c 18.5,19 34,34 34.5,34 0.4,0 0.7,-10 0.7,-22 z m -113.6,5 c 3.7,-5 6.5,-8 6.2,-9 -0.8,0 -26,-8 -26.4,-8 -0.7,1 11.6,25 12.6,25 0.5,0 3.9,-4 7.6,-8 z m 24.3,-3 c 10.5,-4 19.1,-8 18.9,-8 -0.2,-1 -4.1,-2 -8.8,-3 l -8.4,-1 -7.6,4 c -6.2,3 -8.6,5 -12.8,10 -2.8,3 -5.1,6 -5.1,7 0,1 3.8,-1 23.8,-9 z m -6.7,-12 5.9,-2 0,-43 c 0,-23 -0.3,-42 -0.7,-42 -0.7,0 -50.3,50 -50.3,51 0,1 37.3,39 38.2,39 0.6,0 3.7,-1 6.9,-3 z m -16.1,0 c 0,-1 -29.1,-31 -30.1,-31 -0.5,0 -0.9,4 -0.9,10 l 0,10 3.1,2 c 1.8,1 8.4,4 14.8,6 12.8,4 13.1,4 13.1,3 z m -195.93,-1 c 0,-2 -7.5,-27 -8.1,-27 -0.3,0 -2.703,4 -5.303,8 -3.7,7 -4.7004,10 -4.7004,13 l 0,5 4.8004,1 c 2.6,0 5.403,0 6.203,0 3.7,1 7,1 7.1,0 z m 244.93,0 c 0.1,-2 -7.4,-27 -8,-27 -1.1,0 -14.2,24 -13.5,25 0.6,1 13.8,3 18.8,3 1.5,0 2.7,-1 2.7,-1 z m -15.6,-22 6.6,-12 0,-24 0,-24 -6.5,-3 c -3.5,-2 -6.9,-3 -7.5,-3 -0.7,0 -1,13 -1,39 0,23 0.4,39 0.9,39 0.5,0 3.9,-5 7.5,-12 z m -67.4,0 0,-12 -11,0 -11,0 0,12 0,11 11,0 11,0 0,-11 z m 246.1,0 0,-12 -11.5,0 -11.5,0 0,12 0,11 11.5,0 11.5,0 0,-11 z m -271.1,-3 c 0,-9 -0.2,-10 -2.4,-12 -2.4,-2 -27.2,-10 -28.4,-9 -0.6,1 28.8,31 30,31 0.5,0 0.8,-4 0.8,-10 z m 245.1,0 c 0,-9 -0.2,-10 -2.4,-12 -2.4,-2 -27.2,-10 -28.4,-9 -0.6,1 28.8,31 30,31 0.5,0 0.8,-4 0.8,-10 z m -309.83,-5 c 3.8,-6 6.6,-12 6.2,-13 -0.7,0 -12,-2 -17.77,-2 -2.34,0 -3.76,0 -3.79,1 -0.1,2 7.46,27 8.06,27 0.3,0 3.6,-6 7.3,-13 z m 245.63,0 c 4.9,-9 6.2,-12 5.2,-13 -1.4,-1 -19.8,-3 -20.5,-2 -0.8,1 6.9,27 7.8,27 0.5,0 3.9,-6 7.5,-12 z m -12.8,9 c 0,0 -1.6,-6 -3.5,-13 l -3.5,-12 -21.4,-22 -21.4,-22 -6.7,3 c -3.6,2 -6.6,4 -6.6,4 0,1 61,63 62.4,63 0.4,0 0.7,0 0.7,-1 z m 177,-19 c 0,-4 -0.4,-4 -3.5,-6 -3.4,-1 -3.6,-1 -6,1 -1.4,1 -2.5,3 -2.5,4 0,1 8.1,5 10.8,5 0.8,0 1.2,-1 1.2,-4 z m 20,-2 14.5,-7 0.3,-4 c 0.2,-3 -0.1,-4 -1,-4 -0.7,0 -7.8,3 -15.8,6 l -14.5,7 -0.3,4 c -0.2,3 0.1,4 1,4 0.7,0 7.8,-3 15.8,-6 z m -333.6,-1 c 3.5,-3 15.9,-15 27.5,-27 l 21.2,-22 -2.3,-7 c -1.3,-3 -2.8,-6 -3.4,-6 -1.1,0 -67.5,66 -67.5,67 0,1 4.1,1 9.1,1 l 9.1,0 6.3,-6 z m 249.5,-3 9.4,-10 -2.8,-6 c -1.5,-4 -3.1,-7 -3.4,-7 -0.8,0 -32.1,31 -32.1,31 0,1 4.4,1 9.8,1 l 9.7,0 9.4,-9 z m -21.3,-5 c 6.8,-6 14.6,-14 17.5,-17 l 5.2,-6 -7,-17 -6.9,-17 -12.7,0 -12.7,0 0,33 c 0,33 0.2,36 3.3,36 0.5,0 6.5,-5 13.3,-12 z m 71.1,6 c 1.3,-1 2.3,-3 2.3,-3 0,-1 -17.8,-9 -29.3,-14 -1.9,0 -6.7,3 -6.7,5 0,1 27.9,14 30.4,14 0.6,0 2,-1 3.3,-2 z m -338.8,0 c 0,-1 -13.2,-24 -14,-24 -0.9,0 -14.4,17 -13.9,17 0.6,1 25.2,8 26.7,8 0.6,0 1.2,0 1.2,-1 z m 245.1,0 c 0,-1 -13.2,-24 -14,-24 -0.9,0 -14.4,17 -13.9,17 0.6,1 25.2,8 26.7,8 0.6,0 1.2,0 1.2,-1 z m -284.9,-4 c 6.9,-3 8.1,-4 13.3,-11 3.1,-4 5.5,-7 5.2,-8 -0.6,-1 -44.73,18 -44.73,19 0,1 3,1 6.7,1 3.7,1 7.4,1 8.3,1 0.8,1 1.9,1 2.5,1 0.6,0 4.53,-1 8.73,-3 z m 244.9,0 c 4,-2 7.6,-3 8,-4 5,-6 11.1,-14 10.7,-15 -0.7,-1 -43.7,18 -43.7,19 0,0 3,1 6.8,1 3.7,1 7.2,1 7.7,1 2.1,1 3.5,1 10.5,-2 z m 148,-10 c 0,-9 -0.2,-10 -1.9,-11 -3.8,-2 -4.1,-2 -4.1,9 0,8 0.3,10 1.8,11 3.8,2 4.2,1 4.2,-9 z m 18.5,4 c 7.4,-3 13.5,-6 13.5,-6 0,-1 -2.9,-5 -6.4,-9 l -6.3,-7 -7.9,4 -7.9,3 -0.3,11 c -0.2,7 0.1,10 0.8,10 0.6,0 7.1,-3 14.5,-6 z m -171,-7 29,-13 0.3,-8 0.3,-7 -49.1,0 c -26.9,0 -49,0 -49,0 0,1 38.2,40 39,40 0.3,0 13.6,-6 29.5,-12 z m 47.5,-15 c 0,-15 -0.3,-27 -0.7,-27 -0.4,0 -3.8,3 -7.5,6 l -6.8,7 0,8 c 0,8 0,8 6.6,21 3.7,6 7.1,12 7.5,12 0.5,0 0.9,-12 0.9,-27 z m 149.9,24 c 2.8,-1 5.1,-3 5.1,-3 0,-1 -1.1,-3 -2.5,-4 -2.4,-2 -2.6,-2 -6,-1 -3.1,2 -3.5,2 -3.5,6 0,2 0.4,4 0.9,4 0.4,0 3.1,-1 6,-2 z m -54.1,-10 -0.3,-11 -7.8,-3 -7.8,-4 -6.9,7 c -3.9,4 -7,8 -7,8 0,1 26.3,13 28.8,13 1,0 1.2,-2 1,-10 z m -38.8,0 c 2.3,-2 2.3,-2 0.7,-6 -1.5,-3 -2.1,-3 -5.7,-3 -2.2,0 -4,0 -4,1 0,2 4.4,11 5.5,11 0.6,0 2.2,-1 3.5,-3 z m 108.9,-13 6.4,-15 -2.3,-3 c -1.3,-1 -2.8,-2 -3.5,-2 -0.8,0 -8.8,18 -13.1,29 -0.7,2 2.9,7 5,7 0.6,0 4,-7 7.5,-16 z m -21,12 c 2.1,-1 0.6,-4 -5.8,-11 -4.7,-4 -6.3,-5 -8,-5 -1.1,1 -2.1,1 -2.1,2 0,2 11.9,15 13.3,15 0.7,0 1.8,0 2.6,-1 z m -74.5,-12 c 5.5,-6 6.7,-7 6.1,-9 -0.3,-1 -1.2,-2 -1.8,-2 -0.7,0 -4.3,3 -8.1,7 -5.5,5 -6.7,7 -6.1,9 0.3,1 1.2,2 1.8,2 0.7,0 4.3,-3 8.1,-7 z m 85.8,-7 c 3.2,-8 5.8,-15 5.8,-15 0,-1 -3.3,-1 -10.1,-1 l -10.2,0 -3,8 -3,8 6.4,7 c 3.5,3 6.9,7 7.4,7 0.5,0 3.6,-7 6.7,-14 z m -51.2,7 c 0,-3 -2.3,-2 -2.8,0 -0.2,1 0.3,2 1.2,2 1,0 1.6,-1 1.6,-2 z m 11.5,-1 c 6.4,-3 6.5,-3 6.5,-7 0,-2 -0.5,-4 -1,-4 -0.6,0 -4,1 -7.5,3 -6.4,3 -6.5,3 -6.5,7 0,2 0.5,4 1,4 0.6,0 4,-2 7.5,-3 z m -62.5,0 c 0,0 -2.9,-8 -6.3,-16 l -6.3,-15 -4.2,0 c -3,0 -4.2,0 -4.2,1 0,1 11.2,29 12.6,31 0.8,1 8.4,1 8.4,-1 z m 45.7,-2 c 1.3,-2 2.3,-3 2.3,-4 0,0 -2.9,-2 -6.5,-4 l -6.6,-3 -2.4,3 c -1.4,1 -2.5,3 -2.5,3 0,1 10,6 12.4,7 0.6,0 2,-1 3.3,-2 z m -33.2,-6 6.9,-7 -3.5,-8 -3.5,-8 -10.2,0 c -7.5,0 -10.2,0 -10.2,1 0,2 11.5,29 12.5,29 0.6,0 4.2,-3 8,-7 z m 62.3,1 c -0.5,-2 -2.8,-3 -2.8,0 0,1 0.6,2 1.6,2 0.9,0 1.4,-1 1.2,-2 z m -259.4,-6 7.6,-3 3.5,-8 c 1.9,-4 3.5,-8 3.5,-9 -0.1,-1 -1.8,-5 -3.8,-9 l -3.8,-8 -7.8,-3 -7.9,-3 -7.1,3 c -4,1 -8.1,3 -9.2,4 -1.1,1 -3.1,5 -4.5,9 l -2.4,8 3,7 2.9,8 7.5,4 c 4.1,2 8.3,4 9.2,4 0.9,0 5.1,-2 9.3,-4 z m 246.6,0 7.5,-4 2.9,-8 2.9,-7 -2.4,-8 c -1.3,-4 -3.3,-8 -4.4,-9 -1.1,-1 -5.2,-3 -9.2,-4 l -7.1,-3 -7.9,3 -7.8,3 -3.7,8 c -2,4 -3.7,8 -3.8,9 0,1 1.6,5 3.5,9 l 3.4,8 7.3,3 c 4,2 8.2,4 9.3,4 1.1,0 5.4,-2 9.5,-4 z m -33.2,1 c 0.2,-1 -0.5,-1 -1.7,-1 -1.2,0 -2.1,0 -2.1,1 0,2 3.1,2 3.8,0 z m 53,-4 c 1.2,-3 2.2,-6 2.2,-7 0,-1 -4.2,-5 -5.5,-5 -0.6,0 -2.2,3 -3.4,6 l -2.4,7 2.3,2 c 1.3,2 2.8,3 3.4,3 0.6,0 2.1,-3 3.4,-6 z M 374,1764 c 0,0 -3,-4 -6.7,-7 l -6.7,-7 -38.4,0 -38.3,0 -3,6 c -1.6,4 -2.9,7 -2.9,8 0,0 16,1 48,1 26.4,0 48,-1 48,-1 z m 107,0 c 0,-1 -1.3,-4 -2.9,-8 -3,-6 -3,-6 -7,-6 -2.3,0 -4.1,0 -4.1,1 0,0 1.3,4 2.9,7 3,7 3,7 7,7 2.3,0 4.1,-1 4.1,-1 z m 131,0 c 0,-1 -5.6,-4 -12.3,-8 -8.9,-4 -13.4,-6 -16.1,-6 -3.6,0 -3.8,0 -6.7,6 -1.6,4 -2.9,7 -2.9,8 0,0 6.7,1 19,1 10.5,0 19,-1 19,-1 z m -224.8,-8 c 3.8,-4 6.8,-7 6.8,-8 0,-1 -13.1,-14 -14.4,-14 -1.4,0 -14.6,13 -14.6,14 0,2 13.1,15 14.4,15 0.6,0 4.1,-3 7.8,-7 z m 185.7,1 c 1.1,-3 2.1,-6 2.1,-6 0,-1 -1.8,-1 -4,-1 -3.6,0 -4.2,0 -5.7,3 -1.6,4 -1.6,4 0.7,6 1.3,2 2.9,3 3.5,3 0.7,0 2.2,-3 3.4,-5 z m 45.1,4 c 0,-1 -7.1,-27 -7.5,-27 -0.7,-1 -17.6,13 -17.3,14 0.3,1 22.6,14 24,14 0.5,0 0.8,-1 0.8,-1 z m -57,-7 c 2,-4 1.3,-4 -9,-4 -8.8,0 -10,0 -11,2 -2,3 -1.3,4 9,4 8.8,0 10,0 11,-2 z m -24,-2 c 0,-2 -0.7,-2 -2,-2 -2.3,0 -2.6,1 -0.8,3 1.8,1 2.8,1 2.8,-1 z m -109.9,-12 c 1.6,-3 2.9,-7 2.9,-7 0,-1 -7.8,-1 -22.5,-1 -12.4,0 -22.5,0 -22.5,0 0,1 3,4 6.7,8 l 6.7,7 12.9,0 12.8,0 3,-7 z m 11.6,3 c 1.6,-3 1.6,-3 -0.7,-6 -1.3,-1 -2.9,-2 -3.5,-2 -1.1,0 -5.5,9 -5.5,11 0,0 1.8,1 4,1 3.6,0 4.2,-1 5.7,-4 z m 24.3,2 c 2,-4 1.3,-4 -9,-4 -8.8,0 -10,0 -11,2 -2,3 -1.3,4 9,4 8.8,0 10,0 11,-2 z m 7.8,0 c -0.7,-1 -3.8,-2 -3.8,0 0,1 0.9,2 2.1,2 1.2,0 1.9,-1 1.7,-2 z m 66.2,0 c 0,0 -1.2,-4 -2.6,-7 -2.6,-6 -2.7,-6 -6.7,-6 -3.8,0 -3.9,0 -3.4,2 0.3,2 1.5,5 2.6,8 1.9,5 2.2,5 6.1,5 2.8,0 4,-1 4,-2 z m 25,1 c 0,-2 -11.5,-28 -12.5,-28 -0.5,0 -4.1,3 -7.8,6 l -6.9,6 2,5 c 1.1,2 2.7,6 3.6,8 l 1.5,4 10,0 c 6.3,0 10.1,-1 10.1,-1 z m 13,-1 c 0,0 -2.9,-7 -6.3,-15 l -6.3,-15 -4.2,0 c -2.6,0 -4.2,0 -4.2,1 0,1 10.1,25 12.2,29 1.1,2 8.8,3 8.8,0 z m 17,-9 c 2.6,-6 8.2,-19 12.5,-30 l 7.9,-18 -4.9,-5 c -2.7,-3 -5.4,-5 -6,-5 -0.5,0 -8.8,8 -18.4,18 l -17.4,18 4.4,10 c 10.2,24 9.4,23 13.6,23 3.6,-1 3.7,-1 8.3,-11 z m -112.5,1 2.8,-6 -2.3,-3 c -1.3,-1 -2.9,-2 -3.5,-2 -0.7,0 -2.5,3 -4,6 l -2.8,7 2.3,2 c 1.3,2 2.9,3 3.5,3 0.7,0 2.5,-3 4,-7 z m -108.3,-1 6.8,-7 0,-7 c 0,-7 -0.2,-8 -6.6,-20 -3.7,-7 -7.1,-12 -7.5,-12 -0.5,0 -0.9,12 -0.9,26 0,15 0.3,27 0.7,27 0.4,0 3.8,-3 7.5,-7 z m 231.3,-1 c 6.5,-5 7.8,-7 10.4,-12 3,-7 3,-7 2,-17 -1,-8 -1.4,-10 -2.3,-9 -0.3,0 -16.3,37 -18.3,42 -0.9,3 0.6,2 8.2,-4 z m 145.5,-4 0,-9 -6.3,-6 c -6.3,-6 -6.3,-6 -19.1,-10 -7,-2 -13,-3 -13.3,-3 -0.5,1 36.8,38 37.9,38 0.5,0 0.8,-4 0.8,-10 z m -278.1,-2 3.5,-7 -7.2,-8 c -4.5,-4 -7.5,-6 -8.1,-6 -1.1,1 -12.1,27 -12.1,29 0,0 3.3,1 10.2,1 l 10.2,-1 3.5,-8 z m -21,-9 6.4,-15 -2.3,-3 c -1.3,-1 -2.8,-2 -3.5,-2 -0.6,0 -3.9,7 -7.4,15 l -6.4,15 2.3,2 c 1.3,2 2.8,3 3.5,3 0.6,0 3.9,-7 7.4,-15 z m -9.5,-8 7,-16 -3.2,-3 -3.1,-4 -25.3,11 c -13.9,6 -27.2,12 -29.5,13 l -4.3,2 0,7 0,7 25.7,0 25.7,-1 7,-16 z m 90.6,15 c 0,-1 -0.7,-1 -1.7,-1 -2.5,0 -2.8,3 -0.4,3 1.2,0 2.1,-1 2.1,-2 z m -7.3,-1 c 1.3,-2 2.3,-3 2.3,-4 0,-1 -10.3,-5 -12.5,-5 -1.3,0 -5.5,4 -5.5,5 0,1 9.8,5 12.4,6 0.6,0 2,-1 3.3,-2 z m -28.2,-2 c 5.9,-2 6,-2 6.3,-6 0.4,-5 -0.1,-5 -8.4,-2 -5.7,2 -5.9,3 -6.2,7 -0.4,5 0.1,5 8.3,1 z m 46.9,-5 c 5.7,-5 6.8,-6 6.2,-8 -0.4,-1 -1.3,-2 -1.9,-2 -0.7,0 -4.1,3 -7.6,6 -5,5 -6.2,7 -5.6,9 0.3,1 0.9,2 1.3,2 0.4,0 3.8,-3 7.6,-7 z m -58.4,4 c 0,-1 -0.7,-2 -1.5,-2 -1.5,0 -2.1,2 -0.8,3 1.2,1 2.3,1 2.3,-1 z m 317.9,-31 27.4,-27 -2.4,-7 c -1.3,-3 -2.9,-6 -3.5,-6 -1.6,0 -67.4,65 -67.4,67 0,0 2.8,1 9.3,1 l 9.2,0 27.4,-28 z M 479,1718 c 1.2,-1 0.2,-3 -5.5,-8 -7.1,-7 -7.9,-8 -10.5,-6 -1.2,1 -0.2,2 5.5,8 7.1,7 7.9,7 10.5,6 z m 56.7,-5 c 3.5,-4 6.3,-7 6.3,-8 0,-1 -25.7,-12 -28,-12 -0.6,0 -1,4 -1,10 l 0,10 7.2,3 c 4,1 7.7,3 8.3,3 0.5,0 3.8,-3 7.2,-6 z m -28.9,4 c 1.8,-2 1.5,-3 -0.8,-3 -1.3,0 -2,0 -2,2 0,2 1,2 2.8,1 z m 277.1,-33 c 18.7,-19 34.1,-34 34.1,-35 0,0 -12.3,0 -27.2,0 l -27.3,0 -9.7,23 c -5.3,12 -10.9,25 -12.4,29 l -2.7,7 4.8,5 c 2.7,2 5.2,5 5.6,5 0.3,0 16,-16 34.8,-34 z m -290.3,28 6.9,-3 0.3,-10 c 0.2,-8 -0.1,-10 -1,-10 -2.3,0 -28.8,11 -28.8,12 0,2 12.3,14 14.1,14 0.9,0 4.7,-2 8.5,-3 z m 176.4,2 c 0,0 -3,-4 -6.7,-7 -4.7,-5 -7.5,-7 -9.2,-7 -2.6,0 -27.1,13 -27.1,14 0,0 9.7,1 21.5,1 11.8,0 21.5,-1 21.5,-1 z m -37.4,-8 c 6.8,-4 12.4,-7 12.4,-7 0,-1 -25,-8 -26.9,-8 -1.1,0 -1.2,1 -0.7,9 0.7,9 1.3,13 2.3,13 0.3,0 6.1,-3 12.9,-7 z m 50.6,0 c 3.8,-4 6.8,-7 6.8,-8 0,-1 -13.1,-14 -14.4,-14 -1.4,0 -14.6,13 -14.6,14 0,1 13.1,15 14.4,15 0.6,0 4.1,-3 7.8,-7 z m -123.2,5 c 0,-2 -4.4,-11 -5.5,-11 -0.6,0 -2.2,1 -3.5,2 -2.3,3 -2.3,3 -0.7,6 1.5,3 2.1,4 5.7,4 2.2,0 4,-1 4,-1 z m -50,-10 c 0,-9 -0.2,-10 -1.9,-11 -3.8,-2 -4.1,-2 -4.1,9 0,8 0.3,10 1.8,11 3.8,2 4.2,1 4.2,-9 z m -122.7,-1 c 3.7,-4 6.7,-8 6.7,-9 0,0 -27.1,-8 -27.6,-7 -0.7,1 12.5,25 13.5,25 0.4,0 3.8,-4 7.4,-9 z m 193.6,-7 c 8.3,-9 15.1,-16 15.1,-16 0,-1 -4.2,-1 -9.3,-1 l -9.2,0 -9.9,10 -9.9,10 2.8,6 c 1.5,4 3.4,7 4.1,7 0.7,0 8,-7 16.3,-16 z m -171.3,6 c 18.3,-8 24.1,-11 20.7,-11 -0.5,0 -4.6,-1 -9.2,-1 -8.1,-1 -8.6,-1 -15.5,2 -6.5,2 -7.7,3 -12.9,10 -5.5,7 -6.3,9 -5.1,9 0.3,0 10.2,-4 22,-9 z m 324,-3 c -0.8,-9 -1.3,-12 -2.4,-12 -1.4,0 -23.6,12 -23.9,13 -0.2,1 22.1,8 26.1,9 0.5,0 0.6,-4 0.2,-10 z m -271.6,4 c 2.6,-1 3,-2 3,-5 0,-2 -0.4,-4 -0.9,-4 -2,0 -11.1,4 -11.1,5 0,1 4,6 5.2,6 0.5,0 2.2,-1 3.8,-2 z m 86.7,0 c 1.3,-2 2.3,-3 2.3,-4 0,0 -6.8,-4 -15,-7 l -15,-7 -2.5,3 c -1.4,1 -2.5,3 -2.5,3 0,1 26.9,13 29.4,14 0.6,0 2,-1 3.3,-2 z m 199,-23 c 5.1,-12 9,-22 8.8,-22 -0.2,0 -3.8,2 -7.9,5 -6.9,6 -7.9,7 -10.6,13 -2.8,7 -2.9,8 -2,16 0.6,4 1,9 1,9 0,3 2.8,-2 10.7,-21 z m -262.2,13 15,-6 0.3,-4 c 0.2,-3 -0.1,-4 -1,-4 -0.7,0 -8.1,2 -16.3,6 l -15,6 -0.3,4 c -0.2,3 0.1,5 1,5 0.7,0 8.1,-3 16.3,-7 z M 656,1648 c 0,-27 -0.3,-49 -0.7,-49 -1.2,0 -50.3,49 -50.3,50 0,1 10.5,12 23.2,24 16.6,17 23.9,24 25.5,24 l 2.3,0 0,-49 z m 55.7,42 c 6.7,-4 12.3,-7 12.3,-7 0,-1 -9.7,-1 -21.5,-1 -11.8,0 -21.5,0 -21.5,0 0,1 3,4 6.7,8 4.7,5 7.5,7 9.2,7 1.3,0 8,-3 14.8,-7 z m -69.7,3 c 0,-1 -37.3,-38 -38.2,-38 -0.5,0 -0.8,4 -0.8,9 l 0,9 6.3,7 c 6.2,6 6.7,6 18.8,10 14,4 13.9,4 13.9,3 z m -186.2,-3 c 3.4,-1 6.2,-3 6.2,-4 0,-1 -25.8,-27 -26.5,-26 -0.4,0 0.9,6 2.9,13 2.9,11 4.1,14 6.7,16 1.8,2 3.5,4 3.8,4 0.4,0 3.4,-1 6.9,-3 z m 108.4,-6 c 4.9,-5 8.8,-9 8.8,-10 0,0 -8.8,-9 -19.5,-20 l -19.6,-19 -5.7,3 -5.7,2 0,20 0,19 15.5,7 c 8.5,4 15.9,7 16.5,7 0.5,0 4.9,-4 9.7,-9 z m 103,2 6.8,-7 0,-39 0,-38 -4.8,-2 c -2.6,-1 -5.9,-2 -7.5,-3 l -2.7,0 0,48 c 0,26 0.3,48 0.7,48 0.4,0 3.8,-3 7.5,-7 z m -153.5,-1 c 1.3,-2 2.3,-3 2.3,-4 0,-1 -9,-5 -11.1,-5 -0.5,0 -0.9,2 -0.9,4 0,3 0.5,4 2.8,5 3.6,2 4.2,2 6.9,0 z m 221,-13 2.5,-6 -29.2,-30 c -16.1,-17 -29.7,-30 -30.1,-30 -0.5,0 -0.9,16 -0.9,36 l 0,37 27.6,0 27.6,-1 2.5,-6 z M 519,1663 c 0,-8 -0.4,-14 -0.8,-14 -1,0 -12.2,20 -12.2,22 0,1 9.3,6 11.7,6 1,0 1.3,-4 1.3,-14 z m 81,-1 0,-11 -11,0 -11,0 0,11 0,11 11,0 11,0 0,-11 z m 257.5,5 7,-3 3.7,-7 c 2,-4 3.7,-9 3.8,-9 0,-1 -1.6,-6 -3.5,-10 l -3.4,-7 -7.6,-4 c -4.2,-2 -8.4,-3 -9.3,-3 -0.9,0 -5.1,2 -9.2,4 l -7.5,3 -2.9,8 -3,8 2.4,7 c 1.3,4 3.1,8 4,9 1.6,2 13.3,7 16.5,7 1.1,0 5.1,-2 9,-3 z M 575,1659 c 0,-9 0,-9 -3,-11 -3.3,-3 -28,-11 -28.9,-10 -0.6,1 29.9,31 31.1,31 0.5,0 0.8,-4 0.8,-10 z m -64.7,-5 c 3.8,-7 6.6,-13 6.3,-13 -0.7,-1 -12.1,-2 -17.8,-2 -2.4,0 -3.8,0 -3.8,1 -0.1,2 7.4,27 8,27 0.3,0 3.6,-6 7.3,-13 z m 438.7,9 c 0,0 -5.6,-4 -12.3,-8 l -12.3,-6 -24.3,0 -24.2,0 -3,6 c -1.6,4 -2.9,7 -2.9,8 0,0 13.3,1 39.5,1 21.7,0 39.5,-1 39.5,-1 z m -199.5,-8 c 4.7,-4 8.5,-7 8.5,-7 0,-1 -24,-15 -24.7,-14 -0.6,1 6.7,28 7.3,28 0.3,0 4.2,-3 8.9,-7 z m 208.2,-2 c 1.5,-12 1.5,-13 0,-13 -1.7,0 -26.7,7 -26.7,8 0,1 23.4,14 24.5,13 0.5,0 1.5,-4 2.2,-8 z m -222.7,3 c 0,0 -1.6,-6 -3.5,-13 l -3.5,-13 -17.4,-17 -17.4,-17 -6.6,2 c -3.6,1 -6.6,3 -6.6,3 0,2 53,56 54.1,56 0.5,0 0.9,-1 0.9,-1 z m 89.7,-17 c 1.3,-3 2.3,-6 2.3,-7 0,-1 -8.8,-1 -44,-1 -24.2,0 -44,0 -44,1 0,0 5.5,3 12.2,7 l 12.3,7 29.4,-1 29.5,0 2.3,-6 z m 133,-26 c 18,-19 32.8,-34 32.8,-35 1,0 -7,-1 -21.5,-1 l -22.2,0 -33.4,34 c -18.4,18 -33.4,33 -33.4,34 0,0 9,1 22.4,1 l 22.4,0 32.9,-33 z m -50.6,-1 c 16.9,-17 30.7,-31 30.5,-31 -0.1,0 -6,1 -13,3 l -12.7,4 -21.5,21 c -11.8,11 -21.4,20 -21.4,21 0,1 5.4,13 6.3,13 0.6,0 14.9,-14 31.8,-31 z m 42.4,26 10.9,-3 21,-21 20.6,-20 -2.5,-7 c -1,-4 -3,-7 -4,-7 -1,0 -61.5,61 -61.5,62 0,1 1,1 2.2,0 1.3,0 7.2,-2 13.3,-4 z m -124.7,-11 c -0.2,-1 -7,-8 -15.1,-16 l -14.9,-16 -47.9,0 c -26.3,0 -47.9,0 -47.9,1 0,0 7.1,8 15.7,16 l 15.8,16 47.3,0 c 27.9,0 47.2,-1 47,-1 z m 12.9,-3 c 3.5,-1 6.3,-3 6.3,-4 0,-1 -53.7,-54 -54.4,-54 -0.3,1 1.2,7 3.4,14 l 3.9,13 16.7,17 c 9.1,9 16.9,17 17.3,17 0.3,0 3.4,-1 6.8,-3 z m 27.3,-46 c 0,-26 -0.3,-48 -0.7,-48 -0.4,0 -3.8,3 -7.5,7 l -6.8,7 0,38 0,38 6.2,3 c 3.5,1 6.9,3 7.5,3 1,0 1.3,-10 1.3,-48 z m 24,27 19.5,-18 -12.6,-30 -12.5,-30 -7.7,0 -7.7,-1 0,49 c 0,27 0.3,49 0.7,49 0.5,0 9.6,-8 20.3,-19 z m -42,-25 0,-36 -27.7,1 -27.7,0 -2.4,6 -2.5,7 29.4,29 c 16.2,16 29.7,29 30.1,29 0.5,0 0.8,-16 0.8,-36 z m 184,15 c 8,-2 9,-3 12,-13 l 2,-6 -2,-8 c -4,-9 -4,-9 -14,-13 l -7,-2 -8,3 -7,3 -4,7 c -2,5 -3.5,9 -3.5,10 0,1 1.5,5 3.5,9 l 4,8 7,2 c 3,2 7,3 8,3 1,0 5,-1 9,-3 z m -245,-3 c 0,-1 -5.6,-4 -12.3,-8 l -12.4,-7 -29.7,0 -29.7,0 -2,5 c -1.1,3 -2.3,6 -2.6,8 l -0.6,2 44.7,0 c 24.5,0 44.6,0 44.6,0 z m 354,0 c 0,-1 -3,-4 -7,-8 l -6,-7 -39,0 -39,0 -2,5 c -1,3 -2,6 -3,8 l 0,2 48,0 c 26,0 48,0 48,0 z m 13,-8 c 3,-4 6,-8 6,-8 0,-1 -12,-15 -13,-15 -2,0 -15,14 -15,15 0,1 13,14 15,14 0,0 3,-3 7,-6 z m -361,5 c 0,-1 -8.1,-27 -8.5,-27 -0.6,-1 -16.6,13 -16.3,14 0.3,1 22.6,13 24,13 0.5,0 0.8,0 0.8,0 z m 136.2,-9 c 7,-2 12.8,-4 12.8,-5 0,-1 -25.1,-14 -25.8,-13 -0.7,0 -2.1,12 -2.1,18 -0.1,2 0.4,3 1.1,3 0.7,0 7,-1 14,-3 z m -18.2,-4 c 0,0 0.4,-5 1,-9 0.9,-8 0.8,-9 -2.3,-16 -2.9,-7 -3.9,-8 -10.5,-13 -4,-3 -7.5,-6 -7.8,-5 -0.7,0 17.8,44 18.8,44 0.4,0 0.8,0 0.8,-1 z m 88.5,-8 c 1,-4 2.5,-7 2.5,-8 0,0 -13.5,-1 -39,-1 -21.5,0 -39,1 -39,1 0,1 5.5,4 12.2,8 l 12.3,6 23.8,0 24.2,0 3,-6 z m 127.5,-21 0,-28 -7,-2 -6,-3 -30,29 c -17,16 -30,30 -30,31 0,0 16,0 37,0 l 36,0 0,-27 z m 118,21 c 1,-3 2,-7 2,-7 0,-1 -9,-2 -47,-2 -27,0 -48,1 -48,1 0,1 3,4 6,8 l 6,6 39,0 39,0 3,-6 z m -167,-24 c 15,-14 28,-27 28,-27 -1,0 -8,1 -15,3 l -12,3 -18,18 -17,17 2,7 c 1,3 3,6 3,6 1,0 14,-12 29,-27 z m 60,20 c 5,-5 7,-8 7,-10 0,-2 -13,-27 -14,-27 -1,0 -1,10 -1,22 0,12 0,21 1,21 0,0 3,-3 7,-6 z m -137.5,-8 c 0,-2 -49.8,-51 -51,-51 -1.4,0 -38.5,38 -38.5,39 0,1 1.1,4 2.4,7 l 2.5,5 42,0 c 23.2,0 42.6,0 42.6,0 z m 244.5,0 c 0,-2 -49,-51 -51,-51 0,0 -11,11 -23,23 -17,17 -23,24 -23,26 l 0,2 49,0 c 26,0 48,0 48,0 z m 13,-3 c 3,-1 6,-3 6,-3 0,-2 -65,-68 -67,-68 -1,0 -1,3 -1,10 l 0,9 27,27 c 15,15 28,27 28,27 0,0 3,-1 7,-2 z m -218,-43 c 0,-25 0,-45 -1,-45 0,0 -4,6 -7,13 l -7,12 0,30 1,30 5,2 c 10,4 9,8 9,-42 z m 245,0 c 0,-25 0,-45 -1,-45 0,0 -4,6 -7,13 l -7,12 0,30 1,30 5,2 c 10,4 9,8 9,-42 z m 20,27 16,-16 0,-25 0,-24 -15,-6 c -9,-4 -16,-7 -17,-7 -1,0 -1,10 -1,47 0,25 0,46 1,46 0,0 8,-7 16,-15 z m -38,-19 0,-28 -6,-2 c -4,-2 -17,-7 -30,-12 l -23,-10 -5,5 c -3,3 -5,5 -5,5 0,1 67,69 68,69 1,0 1,-12 1,-27 z m -117,13 c 2,-7 4,-13 3,-14 0,0 -19,1 -20,2 -1,1 -1,2 9,20 2,3 3,5 4,5 0,0 2,-6 4,-13 z m 21,-8 c 10,-10 18,-19 18,-19 0,0 -4,-1 -9,-1 l -10,0 -6,7 c -6,6 -6,6 -10,18 -3,14 -3,15 -2,14 0,0 9,-9 19,-19 z m -259.6,3 c 2.1,-8 3.6,-14 3.3,-14 -0.8,-1 -24.8,12 -24.5,13 0.3,1 15.9,14 16.9,14 0.3,0 2.3,-6 4.3,-13 z m 17.8,-6 c 8.2,-8 14.8,-15 14.8,-16 0,0 -4.4,-1 -9.8,-1 -12.7,0 -13.1,1 -17.7,17 -3.8,14 -3.9,14 -2.8,14 0.4,0 7.4,-6 15.5,-14 z m 167.8,-5 c 8,-2 13,-4 13,-4 0,-1 -13,-18 -14,-18 -1,0 -14,24 -14,25 0,1 1,0 15,-3 z m 245,0 c 7,-2 13,-4 13,-4 0,-1 -13,-18 -14,-18 -1,0 -14,24 -14,25 0,1 1,0 15,-3 z m -201,0 c 3,-1 6,-1 6,-2 0,0 -42,-19 -43,-18 0,0 5,9 10,15 2,2 15,6 18,6 2,0 6,-1 9,-1 z m 245,0 c 3,-1 6,-1 6,-2 0,-1 -43,-19 -44,-18 0,0 6,9 11,15 2,2 15,6 18,6 2,0 6,-1 9,-1 z m -54,-15 c 5,-9 7,-13 7,-16 0,-4 0,-4 -6,-7 -4,-1 -7,-3 -8,-3 -1,0 -1,7 -1,19 0,11 0,19 1,19 0,0 4,-5 7,-12 z m 74,8 c 3,-3 5,-6 5,-6 0,-1 -8,-9 -17,-19 l -18,-17 -8,3 c -27,11 -25,11 -26,15 0,3 0,4 5,6 3,1 16,6 29,12 13,6 24,10 24,10 1,0 4,-2 6,-4 z m -213,-19 0,-11 -11,0 -11,0 0,11 0,11 11,0 11,0 0,-11 z m 245,0 0,-11 -11,0 -11,0 0,11 0,11 11,0 11,0 0,-11 z m -25,-2 0,-9 -10,-10 -10,-10 -6,3 c -3,1 -6,3 -6,4 0,1 30,31 31,31 1,0 1,-4 1,-9 z m -382,-15 c 3,-6 6,-12 6,-12 -1,-1 -27,7 -28,8 0,0 13,16 14,16 0,0 4,-5 8,-12 z m 245,0 c 3,-6 6,-12 6,-12 -1,-1 -27,7 -28,8 0,0 13,16 14,16 0,0 4,-5 8,-12 z m 245,0 c 3,-6 6,-12 6,-12 -1,-1 -27,7 -28,8 0,0 13,16 14,16 0,0 4,-5 8,-12 z m -261,10 c 0,0 -2,-4 -5,-7 -5,-6 -7,-7 -13,-10 -7,-3 -7,-3 -16,-2 -8,1 -10,2 -9,3 1,0 41,17 42,17 1,0 1,0 1,-1 z m 245,0 c 0,0 -2,-4 -5,-7 -5,-5 -7,-7 -12,-10 -7,-3 -7,-3 -16,-2 -9,1 -11,2 -10,3 1,0 41,17 42,17 1,0 1,0 1,-1 z m -305,-13 c 6,-6 6,-6 10,-19 2,-7 3,-13 2,-13 0,-1 -37,36 -37,37 0,1 4,1 9,1 l 10,0 6,-6 z m 139,2 c 0,-3 0,-4 -3,-5 -4,-2 -4,-2 -6,0 -2,2 -3,3 -3,4 0,1 8,5 11,5 1,0 1,-1 1,-4 z m 21,-2 15,-6 0,-4 c 0,-3 0,-5 -1,-5 -1,0 -8,3 -17,7 l -14,6 -1,4 c 0,3 0,4 1,4 1,0 8,-3 17,-6 z m 85,0 c 6,-6 6,-6 10,-19 2,-7 4,-13 3,-13 0,-1 -10,8 -24,22 -8,8 -14,15 -14,16 0,0 4,0 9,0 l 10,0 6,-6 z m -7,-19 c 16,-15 24,-24 24,-26 0,-2 -1,-2 -26,-1 l -25,0 -7,15 c -4,9 -7,17 -7,17 0,2 16,18 17,18 1,0 12,-10 24,-23 z m -113,16 c 1,-1 2,-2 2,-3 0,-1 -18,-9 -29,-13 -2,-1 -7,3 -7,5 0,1 28,13 30,13 1,0 2,-1 4,-2 z m -61,-15 13,-14 -7,-16 -7,-16 -13,0 -13,-1 0,28 1,28 5,2 c 3,1 6,2 7,2 0,0 7,-6 14,-13 z m 261,-16 c 17,-16 30,-29 30,-30 0,0 -16,-1 -36,-1 l -36,0 0,28 0,27 5,3 c 3,1 6,2 6,2 1,0 15,-13 31,-29 z m -252,23 c 6,-1 11,-3 11,-3 0,-1 -5,-13 -5,-13 -2,0 -20,18 -20,20 0,0 1,0 1,0 1,0 7,-2 13,-4 z m 66,-6 c 0,-8 0,-10 -2,-11 -4,-2 -4,-1 -4,9 0,9 0,10 2,11 4,3 4,2 4,-9 z m 19,5 c 8,-4 14,-7 14,-7 0,-1 -3,-4 -7,-8 l -7,-7 -8,3 -7,4 -1,10 c 0,7 0,10 1,10 1,0 7,-2 15,-5 z m 161,1 11,-3 17,-17 c 10,-9 18,-17 18,-18 0,-1 -5,-13 -5,-13 -2,0 -56,53 -56,55 0,0 1,0 2,0 1,-1 7,-2 13,-4 z m -289,2 c 1,-1 2,-1 2,-1 0,-2 -13,-24 -14,-24 0,-1 -2,5 -4,12 -2,6 -4,12 -4,13 0,1 1,2 9,1 5,0 10,-1 11,-1 z m 240,1 c 4,-1 7,-2 8,-2 0,-1 -13,-26 -14,-26 -1,0 -8,25 -8,27 0,2 4,2 14,1 z m -85,-3 c 3,-1 5,-2 5,-3 0,0 -1,-2 -3,-3 -3,-3 -3,-3 -6,-1 -3,1 -3,2 -3,5 0,3 0,4 1,4 0,0 3,-1 6,-2 z m -55,-10 0,-10 -8,-4 -8,-3 -7,7 c -4,4 -7,7 -7,8 0,1 26,12 29,12 1,0 1,-2 1,-10 z m 71,-11 6,-16 -2,-2 c -1,-2 -3,-3 -3,-3 -1,0 -14,29 -14,31 0,1 4,5 5,5 1,0 4,-7 8,-15 z m -167,-7 c 0,-12 0,-22 -1,-22 0,0 -3,3 -7,7 -5,5 -7,8 -7,9 0,3 13,27 14,27 1,0 1,-9 1,-21 z m 57,19 c 2,-3 2,-3 1,-6 -2,-3 -2,-4 -5,-4 -3,0 -4,1 -4,2 0,2 3,10 5,10 0,0 2,-1 3,-2 z m 189,-19 c 0,-12 0,-22 -1,-22 0,0 -3,3 -7,7 -5,5 -7,8 -7,9 0,3 13,27 14,27 1,0 1,-9 1,-21 z m -101,18 c 3,-1 2,-3 -5,-10 -5,-6 -7,-7 -9,-6 -1,0 -2,1 -2,2 0,1 13,14 14,14 1,0 2,0 2,0 z m -75,-13 c 6,-5 7,-7 7,-9 -1,-1 -1,-2 -2,-2 0,0 -4,3 -8,7 -6,6 -7,7 -7,9 1,1 2,2 2,2 1,0 5,-3 8,-7 z m 87,-6 c 3,-8 6,-14 6,-15 0,0 -4,-1 -11,0 l -10,0 -3,7 -3,8 7,6 c 3,4 7,7 8,7 0,0 3,-6 6,-13 z m -52,6 c 0,-2 -2,-2 -3,1 0,1 0,1 1,1 1,0 2,-1 2,-2 z m 12,-1 c 6,-2 6,-3 6,-6 0,-4 0,-4 -3,-3 -1,0 -5,1 -7,2 -5,2 -5,2 -5,6 0,3 0,4 1,4 1,0 4,-1 8,-3 z m -63,1 c 0,-1 -3,-8 -6,-16 l -6,-14 -4,0 c -2,-1 -4,0 -4,0 0,1 10,26 12,30 1,2 8,2 8,0 z m 46,-3 c 1,-1 2,-3 2,-3 0,-1 -3,-2 -6,-4 -7,-2 -7,-2 -9,0 -2,1 -3,2 -3,3 0,1 10,6 12,6 1,0 2,-1 4,-2 z m -34,-5 c 8,-7 8,-7 4,-17 l -3,-6 -10,0 c -7,0 -10,1 -10,2 0,2 10,27 11,27 1,0 4,-2 8,-6 z m 63,1 c 0,-1 -1,-2 -1,-2 -1,0 -2,1 -2,2 0,1 1,1 2,1 0,0 1,0 1,-1 z m -14,-5 c 8,-3 9,-4 12,-14 l 2,-6 -3,-8 -2,-8 -8,-4 c -4,-2 -8,-4 -9,-4 -2,0 -6,2 -10,4 l -7,4 -3,8 -3,8 2,7 c 1,3 3,7 4,8 1,2 13,7 16,7 1,0 5,-1 9,-2 z m 246,0 7,-3 3,-8 c 2,-4 4,-8 4,-9 0,-1 -2,-5 -3,-9 l -4,-8 -8,-3 c -4,-2 -8,-4 -9,-4 -1,0 -5,2 -9,4 l -7,4 -3,8 -3,8 2,7 c 1,3 3,7 4,8 2,2 13,7 17,7 1,0 5,-1 9,-3 z m -279,0 c 0,0 -1,-1 -1,-1 -1,0 -2,1 -2,1 0,1 1,1 2,1 0,0 1,0 1,-1 z m 54,-5 2,-6 -2,-2 c -1,-2 -3,-3 -3,-3 -1,0 -3,3 -4,7 l -2,7 2,2 c 4,2 5,2 7,-5 z m -51,0 c 0,-1 -1,-4 -2,-7 -3,-6 -3,-6 -7,-6 -2,-1 -4,0 -4,0 0,1 1,4 3,8 2,6 2,6 6,6 3,0 4,0 4,-1 z m 139,1 c 0,-1 -3,-4 -7,-8 l -6,-7 -14,0 -13,0 -2,5 c -1,3 -2,6 -3,8 l 0,2 22,0 c 13,0 23,0 23,0 z m 243,-1 c 0,-1 -3,-5 -6,-8 l -6,-6 -38,0 -38,0 -3,7 c -2,3 -3,7 -3,7 0,1 16,1 47,1 44,0 47,0 47,-1 z m -230,-7 c 4,-4 7,-8 7,-8 0,-1 -13,-15 -14,-15 -2,0 -15,13 -15,15 0,1 13,14 14,14 1,0 4,-3 8,-6 z m -60,0 c 3,-6 3,-7 -2,-7 -3,0 -3,1 -5,4 -1,3 -1,3 1,6 1,1 3,2 3,2 1,0 2,-2 3,-5 z m -11,-3 c 2,-3 1,-4 -9,-4 -10,0 -11,1 -12,2 -2,4 -1,4 9,4 10,0 11,0 12,-2 z m 301,-5 c 0,-4 0,-7 -1,-7 -1,0 -6,6 -6,7 0,1 5,6 6,6 1,0 1,-3 1,-6 z m -326,3 c 0,-1 -1,-2 -2,-2 -2,0 -3,1 -1,3 1,1 3,0 3,-1 z m -98,-8 c 1,-3 1,-4 -1,-6 -3,-4 -4,-3 -6,2 -3,7 -3,8 2,7 4,0 5,0 5,-3 z m 25,1 c 2,-3 1,-4 -10,-4 -10,0 -10,0 -11,3 -1,1 -1,3 -1,3 0,0 5,0 10,0 10,0 11,0 12,-2 z m 8,2 c 0,-1 -2,-4 -3,-4 -1,0 -1,1 -1,2 0,2 1,2 2,2 1,0 2,0 2,0 z m 65,-1 c 0,-1 -1,-4 -3,-8 -2,-6 -2,-6 -6,-6 -4,0 -4,0 -4,3 1,2 2,5 3,8 2,4 2,4 6,4 3,0 4,0 4,-1 z m 26,0 c 0,-2 -12,-29 -13,-29 0,0 -4,3 -7,7 l -7,7 1,4 c 1,2 2,6 3,8 l 2,4 10,0 c 7,0 11,0 11,-1 z m 12,0 c 0,-1 -3,-8 -6,-16 l -7,-15 -3,0 c -3,-1 -4,0 -4,1 0,1 11,28 13,30 0,2 7,2 7,0 z m 31,-32 c 0,-34 0,-36 -4,-36 -1,0 -36,34 -36,36 0,0 12,29 13,32 1,1 3,1 14,1 l 13,0 0,-33 z m 118,27 c 1,-3 2,-7 2,-7 0,-1 -9,-2 -47,-2 -27,0 -48,1 -48,1 0,0 3,4 7,8 l 6,6 39,0 38,0 3,-6 z m 127,-27 c 0,-34 0,-36 -4,-36 -1,0 -68,67 -68,68 0,1 14,1 36,1 l 36,0 0,-33 z m -371,24 2,-7 -2,-2 c -1,-2 -3,-3 -3,-3 -1,0 -6,10 -6,13 0,1 4,5 5,5 1,0 3,-3 4,-6 z m 329,-27 c 18,-19 33,-34 33,-34 0,-1 -4,-1 -10,-1 l -10,0 -27,28 -27,27 2,7 c 2,3 4,6 4,6 1,0 16,-15 35,-33 z m -192,26 7,-7 0,-8 c 0,-8 0,-8 -7,-20 -3,-7 -7,-13 -7,-13 -1,0 -1,12 -1,27 0,15 0,27 1,27 0,0 3,-3 7,-6 z m 242,3 4,-4 0,-16 0,-17 -4,-7 c -2,-4 -4,-7 -4,-7 -1,0 -1,12 -1,27 0,15 0,27 1,27 0,0 2,-1 4,-3 z m -329,-12 c 0,-1 -1,-2 -2,-1 -2,0 -3,2 0,2 1,0 2,0 2,-1 z m 194,1 c 0,-1 -37,-40 -38,-40 -1,0 -14,6 -30,13 l -28,12 -1,8 0,7 48,0 c 27,0 49,0 49,0 z m -201,-3 c 1,-1 2,-3 2,-3 0,-1 -3,-3 -7,-4 l -6,-3 -3,2 c -1,2 -2,3 -2,4 0,1 10,6 12,6 1,0 2,-1 4,-2 z m 214,0 c 3,-2 6,-3 6,-4 0,-1 -62,-63 -62,-63 -1,1 1,7 3,14 l 4,12 21,22 c 11,12 21,21 21,21 0,0 3,-1 7,-2 z m -242,-2 c 6,-3 6,-3 6,-7 0,-2 0,-4 -1,-4 -1,0 -4,2 -8,3 -6,3 -6,3 -6,7 0,3 0,4 1,4 1,0 4,-1 8,-3 z m 47,-4 c 6,-6 7,-8 7,-10 -1,-1 -2,-2 -2,-2 -1,0 -5,3 -8,7 -6,6 -7,7 -6,10 0,1 1,2 1,2 0,0 4,-3 8,-7 z m 222,-32 c 0,-22 0,-40 -1,-40 0,0 -4,6 -7,13 l -7,12 0,24 0,24 6,3 c 4,2 7,3 8,3 1,0 1,-8 1,-39 z m -281,35 c 0,-1 -1,-2 -1,-2 -2,0 -3,2 -1,4 1,1 2,0 2,-2 z m 310,-22 c 14,-14 25,-26 25,-26 0,-1 -9,-10 -19,-21 l -19,-19 -6,3 -7,3 0,42 c 0,23 0,42 1,42 0,0 12,-11 25,-24 z m -286,14 c 0,-1 0,-2 -1,-2 -1,0 -2,1 -2,2 0,3 2,3 3,0 z m 53,-5 c 0,-1 -3,-10 -4,-11 -1,-1 -6,3 -6,5 0,1 1,3 2,4 1,3 2,3 5,3 2,0 3,0 3,-1 z m 73,-10 c 4,-5 7,-9 7,-9 0,-1 -27,-8 -28,-7 0,0 13,24 14,24 0,0 4,-3 7,-8 z m 23,-2 c 11,-5 21,-9 21,-9 1,-1 -1,-2 -10,-3 -9,-1 -9,-1 -16,2 -6,3 -7,4 -12,11 -6,7 -7,9 -5,8 1,0 11,-4 22,-9 z m 207,-10 c 0,-3 0,-4 -3,-4 -1,-1 -2,-1 -3,0 0,0 4,8 5,8 1,0 1,-1 1,-4 z m -180,-5 c 0,-2 -7,-27 -8,-27 -1,0 -14,26 -14,26 1,1 10,2 17,2 3,0 5,0 5,-1 z m 180,-9 0,-7 -6,-6 c -4,-4 -7,-7 -7,-7 -1,0 -1,5 -1,10 0,9 0,10 2,12 3,2 7,4 10,4 2,0 2,-1 2,-6 z m -17,-12 0,-12 -11,0 -12,0 0,12 0,11 12,0 11,0 0,-11 z m -26,-2 c 0,-10 0,-10 -2,-13 -3,-2 -28,-10 -29,-9 0,0 3,4 7,8 18,19 23,23 23,23 1,0 1,-4 1,-9 z m -64,-6 c 3,-7 6,-12 6,-13 -1,0 -21,-3 -21,-2 -1,0 6,26 7,26 1,0 4,-5 8,-11 z m 107,-6 c 0,-6 0,-12 -1,-12 -1,0 -11,12 -11,13 0,1 10,11 11,11 1,0 1,-5 1,-12 z m -8,-10 8,-9 0,-8 c 0,-5 0,-9 -1,-9 0,0 -34,33 -35,34 0,1 4,1 10,1 l 10,0 8,-9 z m -43,2 c 0,-2 -13,-25 -14,-25 0,0 -4,4 -8,9 -4,5 -6,8 -5,8 4,2 25,8 26,8 0,0 1,0 1,0 z m -40,-5 c 6,-4 9,-5 13,-10 5,-7 6,-9 1,-7 -7,3 -39,16 -39,16 -1,1 2,2 9,3 4,1 8,1 8,1 0,0 3,-1 8,-3 z"
     id="path3066"
     style="fill:#e7e7e7" />
  <g
     transform="translate(59.64,345.3)"
     id="layer1">
    <g
       transform="translate(128,276)"
       id="g3050">
      <path
         d="m -187.6,-621.3 141.96,0 0,2000.3 -141.96,0 z"
         id="path3058"
         style="fill:#89ebff;fill-opacity:0.498" />
    </g>
  </g>
</svg>
