<?xml version="1.0" encoding="UTF-8" standalone="no"?>
<!-- Created with Inkscape (http://www.inkscape.org/) -->

<svg
   xmlns:dc="http://purl.org/dc/elements/1.1/"
   xmlns:cc="http://creativecommons.org/ns#"
   xmlns:rdf="http://www.w3.org/1999/02/22-rdf-syntax-ns#"
   xmlns:svg="http://www.w3.org/2000/svg"
   xmlns="http://www.w3.org/2000/svg"
   version="1.1"
   width="1701"
   height="1212"
   id="svg2">
  <defs
     id="defs4" />
  <metadata
     id="metadata7">
    <rdf:RDF>
      <cc:Work
         rdf:about="">
        <dc:format>image/svg+xml</dc:format>
        <dc:type
           rdf:resource="http://purl.org/dc/dcmitype/StillImage" />
        <dc:title></dc:title>
      </cc:Work>
    </rdf:RDF>
  </metadata>
  <g
     transform="translate(623.6,-311.2)"
     id="layer1">
    <g
       transform="translate(-478.8,129.3)"
       id="g3088">
      <path
         d="m -144.4,1030 c 0,-22 0.2,-31.7 0.4,-22 0.1,10 0.4,18 0.7,18 0.9,0 32.3,-12 45.01,-18 l 14,-6 0.3,-5.4 c 0.2,-3.7 0.78,-5.7 1.75,-6.1 1.17,-0.5 1.45,0.6 1.45,5.6 0,5.9 0.52,6.9 6.65,18.9 3.66,6 7.03,12 7.5,12 0.47,0 0.85,-8 0.85,-18 0,-15.4 0.23,-18.1 1.49,-18.1 1.25,0 1.52,3.4 1.75,23.1 0.24,20 0.45,22 2.01,23 1.49,1 3.73,-1 15.25,-12 7.43,-8 13.5,-13 13.5,-13 0,3 -4.39,9 -12.43,17 -5.26,5 -9.57,10 -9.57,10 0,1 2.97,1 6.59,1 4.82,0 6.47,0 6.17,1 -0.28,1 -3.16,1 -8.59,2 l -8.17,0 0,10 0,10 -3.76,0 c -3.53,0 -4.79,-1 -21.24,-18 -9.61,-9 -18.01,-17 -18.71,-17 -0.7,0 -3.7,1 -6.8,2 l -5.5,3 0,16 c 0,14 -0.2,17 -1.5,17 -1.2,0 -1.5,-2 -1.5,-13 0,-7 -0.4,-12 -0.8,-12 -0.9,0 -12.2,20 -14.1,25 -1.2,3 -3.1,4 -3.1,1 0,-2 -6.7,-9 -8.2,-9 -0.4,0 -0.8,2 -1,6 -0.2,3 -0.4,-12 -0.4,-34 z m 83.61,22 c 0,-9 -0.2,-10 -2.35,-12 -2.32,-2 -27.49,-11 -28.54,-10 -0.58,1 28.97,31 30.13,31 0.42,0 0.76,-4 0.76,-9 z m -64.61,-6 c 3.7,-7 6.5,-13 6.2,-13 -0.7,-1 -12.1,-2 -17.8,-2 -2.4,0 -3.8,0 -3.8,1 -0.1,2 7.4,27 8,27 0.3,0 3.6,-6 7.4,-13 z m -12.8,8 c -0.4,-1 -1.4,-4 -2.3,-7 -0.9,-4 -2,-6 -2.4,-6 -0.5,0 -0.9,2 -0.9,5 0,4 0.5,6 2.2,8 2.6,2 4.3,3 3.4,0 z m 69.41,-22 c 0,-1 -13.22,-24 -13.98,-24 -0.46,0 -3.88,4 -7.61,8 -4.89,6 -6.38,8 -5.34,9 4.22,1 24.62,8 25.68,8 0.69,0 1.25,0 1.25,-1 z m -39.81,-5 c 6.5,-3 8.4,-5 12.83,-10 5.45,-6 5.78,-8 1.2,-6 -1.5,0 -10.73,4 -20.43,8 -9.7,4 -18.2,7 -18.7,7 -0.6,0 -1.1,0 -1.1,1 0,0 3.1,1 6.8,1 3.7,1 7.4,1 8.2,1 0.8,0 2,1 2.5,1 0.6,0 4.5,-2 8.7,-3 z M 581,482.1 c -7.8,-0.2 -9.8,-0.6 -9.8,-1.8 0,-1.2 2.4,-1.4 14,-1.4 l 14.1,0 1.1,-2.6 c 1.1,-2.4 0.6,-3.1 -9.6,-13.4 -8.3,-8.3 -10.7,-11.3 -10.2,-12.6 0.6,-1.5 2.5,0 10.9,8.4 5.6,5.6 10.6,10.2 11,10.2 0.4,0 0.7,-4.2 0.7,-9.3 l 0,-9.3 -8.9,-8.8 c -6.7,-6.7 -8.7,-9.3 -8.3,-10.8 0.4,-1.7 1.8,-0.7 9.1,6.6 4.8,4.7 9.1,8.6 9.6,8.6 0.6,0 9.5,-8.5 19.9,-18.9 l 18.9,-18.9 -1.3,-3.9 c -0.7,-2.1 -1.9,-5.1 -2.6,-6.6 l -1.4,-2.7 -23,0 c -19.8,0 -23,-0.2 -23,-1.5 0,-1.3 2.8,-1.5 19,-1.5 10.5,0 19,-0.4 19,-0.9 0,-0.5 -5.5,-3.8 -12.3,-7.5 -10.8,-5.8 -13,-6.6 -17.6,-6.6 -7,0 -6.5,-2.4 0.5,-2.8 l 5,-0.3 17.4,-17.4 17.3,-17.4 -6.4,-15.6 c -3.5,-8.5 -6.8,-15.5 -7.4,-15.5 -0.5,0 -5.6,4.6 -11.2,10.2 -9.3,9.3 -10.2,9.9 -9.3,6.8 0.6,-2.1 3.5,-6 7.2,-9.7 6.4,-6.5 7,-8.1 2.4,-6.4 -3.8,1.5 -5.6,1.3 -5.6,-0.4 0,-1 2.2,-2.1 6,-3.3 3.3,-0.9 6,-2 6,-2.2 0,-0.3 -2.7,-2 -6,-3.8 -4.1,-2.3 -5.7,-3.7 -5.3,-4.8 0.7,-1.9 0.6,-2 7.7,2.1 3.5,1.9 6.9,3.5 7.5,3.5 1.1,0 6.1,-9.9 6.1,-12.1 0,-0.5 -4.2,-0.9 -10,-0.9 -8.3,0 -9.8,-0.3 -9.4,-1.5 0.5,-1.1 3,-1.5 11.2,-1.8 l 10.6,-0.2 6.8,-16.5 6.9,-16.4 -7.6,-7.6 c -5.7,-5.8 -7.4,-8.1 -6.9,-9.4 0.6,-1.5 2,-0.5 8.5,6 l 7.9,7.8 7,-2.4 c 3.9,-1.4 7,-3 7,-3.7 0,-1.4 -30.9,-31.3 -32.4,-31.3 -0.6,0 -1.7,-1.5 -2.4,-3.2 -1.1,-3 -1,-3.5 1.9,-6.4 1.7,-1.8 3.6,-5.2 4.3,-8 0.7,-2.7 1.6,-5.9 2,-7.1 0.6,-2 0.3,-2.3 -3.1,-2.6 -2.1,-0.2 17.6,-0.5 43.7,-0.6 26.1,0 47,0.2 46.4,0.6 -1.6,1.2 -3.7,15.6 -3.2,22 0.3,3.2 0.2,8.5 -0.2,11.8 -0.5,4.2 -0.7,0.7 -0.8,-12.3 -0.1,-10 -0.5,-18.2 -1,-18.2 -0.4,0 -3.8,3 -7.5,6.8 l -6.7,6.8 0.2,13.4 0.3,13.4 5,1.8 c 5.9,2.2 6.7,2.9 5.6,4.5 -0.6,1 -1.5,1 -4.4,-0.2 -5.6,-2.4 -6.7,-2.1 -6.7,2 0,2.8 0.5,3.7 2.5,4.6 1.9,0.9 2.2,1.5 1.4,2.5 -0.6,0.8 -1.8,1.4 -2.5,1.4 -0.8,0 -1.4,1.1 -1.4,2.7 -0.1,1.5 -0.7,4.1 -1.4,5.8 -1.4,2.9 -1.4,2.9 -1.5,-2.8 -0.1,-3.2 -0.5,-5.7 -1.1,-5.7 -2.2,0 -28,11.4 -28,12.4 0,0.6 2.9,4.2 6.4,8.1 l 6.4,7 6.1,-2.2 c 5.8,-2.1 6.1,-2.1 6.1,-0.4 0,1.3 -1.7,2.5 -5.5,4.1 -5.3,2.1 -5.5,2.3 -5.5,6.1 0,4.4 0.8,4.7 6.4,2.3 3.4,-1.4 3.6,-1.4 3.6,0.4 0,1.3 -1.5,2.5 -5,4 -4.3,1.8 -5.3,2.7 -7.1,6.9 -4.3,10.2 -4.4,12 -1.1,20.5 l 3,7.8 -2.4,4.6 c -1.6,3.1 -2.2,5.3 -1.7,7.1 0.6,2.4 0.4,2.5 -2.2,1.8 -2.5,-0.6 -3.5,0.1 -9.6,6.1 -3.8,3.8 -6.9,7.3 -6.9,7.9 0,0.6 3.6,2.6 8,4.4 8.3,3.4 9.9,4.6 8.3,6.2 -0.5,0.5 -4.5,-0.7 -10.1,-3.1 -5.1,-2.2 -9.9,-4 -10.6,-4 -1.9,0 -6.1,4.8 -5,5.9 0.5,0.5 6,3 12.3,5.7 10.3,4.3 13.4,6.4 11.8,8 -0.4,0.4 -6.5,-1.9 -13.7,-5 -7.2,-3.1 -13.7,-5.6 -14.4,-5.6 -0.7,0 -2.3,1.1 -3.6,2.5 l -2.3,2.4 12.4,29.7 c 8.7,20.9 12.9,29.8 14.1,30.1 2.3,0.6 2.4,3.3 0.2,3.3 -2.2,0 -26.4,13 -26.4,14.1 0,0.5 5.9,0.9 13,0.9 10.9,0 13,0.2 13,1.5 0,1.2 -2.6,1.5 -17.2,1.5 -17.2,0 -20.8,0.7 -20.8,3.8 0,0.5 3.4,4.1 7.5,7.8 5.9,5.4 7.2,7 6,7.6 -1.6,0.9 -6.5,-2.4 -11.4,-7.6 -1.3,-1.5 -2.8,-2.6 -3.3,-2.6 -0.4,0 -0.8,3.3 -0.8,7.4 0,5.6 -0.3,7.5 -1.5,7.9 -1.3,0.5 -1.5,-0.9 -1.5,-9.4 l 0,-9.9 -11,0 -11,0 0,11 0,11 7.3,0.1 c 6.5,0.1 6.9,0.2 3.7,1.1 -1.9,0.5 -5.3,1.2 -7.5,1.5 -2.2,0.2 -4.7,1.1 -5.5,1.8 -1.3,1.1 -13.4,5.8 -13.5,5.3 0,-0.2 -4.4,-0.4 -9.7,-0.6 z m 50.5,-36.6 c 2.2,-1.8 3.4,-4.7 6.3,-15 1.9,-7.1 3.3,-13.1 2.9,-13.4 -0.6,-0.7 -30.5,28.7 -30.5,30 0,0.4 4.2,0.7 9.3,0.7 8,0 9.6,-0.3 12,-2.3 z m 20.8,-12.2 c 6.5,-3.6 11.9,-6.9 11.9,-7.3 0,-1 -16.9,-14.5 -17.4,-14 -0.5,0.5 -7.6,25.6 -7.6,26.9 0,1.5 0.4,1.4 13.1,-5.6 z m 10.9,-15 c 0,-0.7 -18.1,-43.8 -18.6,-44.4 -0.9,-0.9 -1.3,0.8 -2.2,9.6 -1.1,9.1 -1,9.2 2.1,16.7 2.9,6.7 4,8.1 10.2,13 6.6,5.2 8.5,6.4 8.5,5.1 z m -24.6,-30.2 c 0.3,-1 0.8,-5.9 1.2,-11 0.5,-7.5 0.4,-9.2 -0.7,-9.3 -1.9,0 -26.9,7.4 -26.9,8.1 0,0.5 24.1,13.9 25.2,13.9 0.4,0 0.9,-0.7 1.2,-1.7 z m -7.9,-21.9 c 8.5,-2.6 11.6,-4 14.2,-6.6 l 3.4,-3.3 -2.7,-6.2 c -1.5,-3.4 -3.2,-6.2 -3.8,-6.2 -1.2,0 -26.6,25 -26.6,26.3 0,0.4 1,0.5 2.3,0.1 1.2,-0.4 7.1,-2.2 13.2,-4.1 z M 654.6,350 c 2.7,-2.8 2.7,-3 1.2,-6 -1.4,-2.7 -2.2,-3.1 -5.6,-3.1 -2.2,0 -4,0.4 -4,0.8 0,1.6 4.3,11.2 5,11.2 0.3,0 1.9,-1.3 3.4,-2.9 z m 14,-13 c 5.5,-5.6 6.7,-7.3 6.2,-9 -0.4,-1.2 -1.3,-2.1 -1.9,-2.1 -0.7,0 -4.3,3.1 -8.1,6.8 -5.5,5.6 -6.7,7.3 -6.1,9 0.3,1.2 1.2,2.2 1.9,2.2 0.6,0 4.2,-3.1 8,-6.9 z m -16.4,-0.4 c 0,-0.7 -2.9,-8 -6.3,-16.2 l -6.3,-15 -4.2,-0.3 c -2.9,-0.3 -4.2,0 -4.2,1 0,1.1 11.2,28.6 12.6,30.9 0.9,1.4 8.4,1.1 8.4,-0.4 z m 12.5,-8.7 6.9,-7 -3.5,-7.7 -3.5,-7.8 -10.2,-0.3 c -7.5,-0.2 -10.2,0 -10.2,0.9 0,2.4 11.5,28.9 12.5,28.9 0.6,0 4.2,-3.2 8,-7 z m 15.5,-3.5 c 0,-0.9 -0.7,-1.5 -1.5,-1.5 -0.8,0 -1.5,0.6 -1.5,1.5 0,0.8 0.7,1.5 1.5,1.5 0.8,0 1.5,-0.7 1.5,-1.5 z m 2,-5.8 c 0,-0.7 -1,-4 -2.3,-7.3 -2.3,-5.8 -2.4,-5.9 -6.5,-6.2 -2.5,-0.2 -4.2,0.1 -4.2,0.7 0,0.6 1.3,4 3,7.6 2.8,6.2 3,6.5 6.5,6.5 2.2,0 3.5,-0.5 3.5,-1.3 z m -41.3,-20.2 c 1.6,-3.4 1.6,-3.6 -0.7,-6 -1.3,-1.4 -2.9,-2.5 -3.5,-2.5 -1.1,0 -5.5,8.9 -5.5,11.1 0,0.5 1.8,0.9 4,0.9 3.6,0 4.2,-0.4 5.7,-3.5 z m 24.3,1.5 c 2,-3.7 1.3,-4 -9,-4 -8.8,0 -10,0.2 -11,1.9 -2,3.8 -1.3,4.1 9,4.1 8.8,0 10.1,-0.3 11,-2 z m 7.8,0.7 c -0.7,-1.9 -3.8,-2.1 -3.8,-0.3 0,0.9 0.9,1.6 2.1,1.6 1.2,0 1.9,-0.6 1.7,-1.3 z m 8,-8.2 c 2.3,-6.3 2.3,-6.5 0.5,-9 -1,-1.3 -2.3,-2.5 -2.9,-2.5 -0.6,0 -2.3,2.9 -3.9,6.5 l -2.7,6.6 2.3,2.4 c 1.2,1.4 2.8,2.5 3.3,2.5 0.6,0 2.2,-2.9 3.4,-6.5 z m -8.9,-7.8 3.5,-7.8 -6.9,-7 c -3.8,-3.8 -7.4,-6.9 -8,-6.9 -1,0 -12.5,26.4 -12.5,28.8 0,0.9 2.7,1.2 10.2,0.9 l 10.2,-0.2 3.5,-7.8 z m -21.1,-9.9 6.3,-15.2 -3,-3 c -1.7,-1.7 -3.2,-2.8 -3.4,-2.6 -0.6,0.7 -12.7,29.8 -12.7,30.7 0,1.1 4.3,5.3 5.4,5.3 0.6,0 3.9,-6.9 7.4,-15.2 z m 33.2,2.7 c 0,-0.9 -0.4,-1.5 -1,-1.5 -0.5,0 -1,0.6 -1,1.5 0,0.8 0.5,1.5 1,1.5 0.6,0 1,-0.7 1,-1.5 z m -3.1,-4.5 c 1.1,-0.7 0,-2.5 -5.3,-8.5 -7,-7.8 -7.3,-8 -10,-6.9 -2.7,1 -1.8,2.6 5.1,9.6 6.9,6.9 7.8,7.4 10.2,5.8 z m -16.8,-18.6 c 2.4,-1.2 2.9,-2.1 2.9,-5 0,-4 -0.9,-4.2 -7.2,-1.8 -6.1,2.4 -6.5,3 -3.8,5.8 2.7,3 4,3.1 8.1,1 z m 22.9,-9.8 14.5,-6.2 0.3,-3.7 c 0.2,-2.6 -0.1,-3.7 -1,-3.7 -0.7,0 -7.8,2.8 -15.8,6.3 l -14.5,6.2 -0.3,3.8 c -0.2,2.5 0.1,3.7 1,3.6 0.7,0 7.8,-2.8 15.8,-6.3 z m -1,-11.5 15.5,-6.7 0.3,-13.2 0.3,-13.2 -32.7,0 c -29.1,0 -32.9,0.1 -34.6,1.6 -1,0.9 -1.8,2.1 -1.8,2.7 0,1.3 35.2,35.6 36.5,35.5 0.6,0 8,-3 16.5,-6.7 z m 12,-36.9 c 0,-0.4 -2.8,-3.5 -6.2,-7 l -6.2,-6.2 -8.9,0 -9,0 -11.3,6.1 c -6.3,3.4 -11.4,6.6 -11.4,7 0,0.5 11.9,0.9 26.5,0.9 14.6,0 26.5,-0.4 26.5,-0.8 z m 11.7,-6.5 c 2.9,-2.8 5.3,-5.5 5.3,-6 0,-0.4 -5.2,-0.7 -11.5,-0.7 -6.3,0 -11.5,0.3 -11.5,0.7 0,1.1 10.3,11.3 11.4,11.3 0.6,0 3.4,-2.4 6.3,-5.3 z m -61.2,-0.3 c 4.7,-2.6 8.5,-5 8.5,-5.5 0,-0.5 -3.5,-0.9 -7.8,-0.9 l -7.8,0 -1.2,4.5 c -1.3,4.9 -1.5,6.5 -0.7,6.5 0.3,0 4.4,-2.1 9,-4.6 z"
         id="path3108"
         style="fill:#fecb98" />
    </g>
  </g>
</svg>
