<?xml version="1.0" encoding="UTF-8" standalone="no"?>
<!-- Created with Inkscape (http://www.inkscape.org/) -->

<svg
   xmlns:dc="http://purl.org/dc/elements/1.1/"
   xmlns:cc="http://creativecommons.org/ns#"
   xmlns:rdf="http://www.w3.org/1999/02/22-rdf-syntax-ns#"
   xmlns:svg="http://www.w3.org/2000/svg"
   xmlns="http://www.w3.org/2000/svg"
   version="1.1"
   width="1701"
   height="1212"
   id="svg2">
  <defs
     id="defs4" />
  <metadata
     id="metadata7">
    <rdf:RDF>
      <cc:Work
         rdf:about="">
        <dc:format>image/svg+xml</dc:format>
        <dc:type
           rdf:resource="http://purl.org/dc/dcmitype/StillImage" />
        <dc:title></dc:title>
      </cc:Work>
    </rdf:RDF>
  </metadata>
  <g
     transform="translate(623.6,-311.2)"
     id="layer1">
    <g
       transform="translate(-478.8,129.3)"
       id="g3088">
      <path
         d="m 1171,299.3 c 3,-3.8 10,-10.5 14,-14.9 5,-4.4 8,-8.3 8,-8.8 0,-0.4 -8,-0.7 -18,-0.7 -15,0 -18,-0.2 -17,-1.5 0,-1.3 4,-1.5 20,-1.5 l 19,0 3,-6.5 c 2,-3.6 3,-7 3,-7.5 0,-0.7 -7,-1 -20,-1 -17,0 -20,-0.3 -20,-1.5 0,-1.3 3,-1.5 19,-1.5 11,0 19,-0.4 19,-0.8 0,-0.4 -7,-7.8 -16,-16.5 -11,-10.9 -16,-15.7 -18,-15.7 -1,0 -2,-0.6 -2,-3 0,-1.6 1,-3 1,-3.3 1,-0.3 1,-1.1 0,-3.7 0,-1.8 -1,-5.9 -1,-8.9 l 0,-5.6 4,10.9 3,11 18,17.4 17,17.4 7,-2.3 c 3,-1.4 6,-2.9 6,-3.4 0,-0.6 -12,-13.2 -27,-28 -23,-23.4 -29,-30.5 -26,-30.5 0,0 13,12.1 28,27 15,14.8 27,27 27,27 1,0 1,-13.5 1,-30 l 0,-30 -27,-0.3 c -20,-0.2 -17,-0.3 12,-0.4 22,-0.1 39,0.1 38,0.4 -2,0.4 -2,2.8 -2,33.9 0,29.4 0,33.5 2,33 2,-0.7 2,3.3 0,5.1 -1,0.8 -1,1.9 0,4.3 1,1.8 1,5.3 1,7.9 l 0,4.6 -2,-6.5 c -2,-3.6 -4,-7.2 -5,-8.1 -1,-0.8 -5,-2.6 -9,-3.9 l -7,-2.4 -7,2.9 -8,3 -4,7.5 c -2,4.1 -4,8.2 -4,9.2 0,2.7 7,16.7 9,17.4 3,1.3 1,2.9 -8,4.7 l -2,0.5 2,-2.4 2,-2.3 -2,-6.6 c -2,-3.6 -4,-6.5 -4,-6.5 -1,0 -7,6 -15,13.4 -8,8.5 -14,13.8 -15,14.2 -3,0.6 -3,0.1 3,-6.2 z m 70,-81.9 0,-34.5 -7,0 -8,0 0,32.2 1,32.2 5,2.2 c 10,3.9 9,7.1 9,-32.1 z"
         id="path3122"
         style="fill:#fef1e5" />
    </g>
  </g>
</svg>
