<?xml version="1.0" encoding="UTF-8" standalone="no"?>
<!-- Created with Inkscape (http://www.inkscape.org/) -->

<svg
   xmlns:dc="http://purl.org/dc/elements/1.1/"
   xmlns:cc="http://creativecommons.org/ns#"
   xmlns:rdf="http://www.w3.org/1999/02/22-rdf-syntax-ns#"
   xmlns:svg="http://www.w3.org/2000/svg"
   xmlns="http://www.w3.org/2000/svg"
   version="1.1"
   width="1701"
   height="1212"
   id="svg2">
  <defs
     id="defs4" />
  <metadata
     id="metadata7">
    <rdf:RDF>
      <cc:Work
         rdf:about="">
        <dc:format>image/svg+xml</dc:format>
        <dc:type
           rdf:resource="http://purl.org/dc/dcmitype/StillImage" />
        <dc:title></dc:title>
      </cc:Work>
    </rdf:RDF>
  </metadata>
  <g
     transform="translate(623.6,-311.2)"
     id="layer1">
    <g
       transform="translate(-478.8,129.3)"
       id="g3088">
      <path
         d="m -98.98,908.2 c -2.42,-0.4 -2.72,-0.9 -3.02,-5 -0.5,-7.5 -2.7,-7.9 -9,-1.6 -4,3.9 -6.1,5.3 -8.3,5.3 -2.8,0 -2.8,-0.1 2.8,-5.1 3.1,-2.8 5.7,-5.5 5.7,-6 0,-0.5 -4.4,-0.9 -9.8,-0.9 l -9.7,0 -6,6 c -3.3,3.3 -6.5,6 -7.2,6 -1,0 -1.2,-8.8 -1.1,-43.8 0.1,-24.7 0.4,-37.9 0.8,-30.2 0.4,10.9 0.9,14.1 2.5,16.7 1.1,1.8 2.3,3.3 2.7,3.3 0.5,0 0.8,-7.9 0.8,-17.5 0,-14.9 0.2,-17.5 1.5,-17.5 1.3,0 1.5,3.1 1.5,21.7 0.1,21.5 0.6,25.3 3.6,25.3 0.5,0 15.1,-14.2 32.41,-31.5 24.53,-24.6 32.05,-31.5 33.99,-31.5 2.06,0 -3.18,5.6 -29.24,31.7 -17.46,17.5 -31.76,32.1 -31.76,32.5 0,0.4 4.2,0.8 9.3,0.8 l 9.3,0 27.83,-27.5 c 16.56,-16.3 27.62,-28 27.3,-28.7 -0.29,-0.8 -1.26,-3 -2.14,-5.1 -1.52,-3.6 -1.51,-3.7 0.26,-3.7 1.21,0 2.51,1.4 3.71,4.1 2.16,4.8 3.64,5.8 12.55,8.9 l 6.6,2.3 7.9,-2.9 c 6.63,-2.5 8.15,-3.5 9.4,-6.2 2.01,-4.3 5.201,-4.5 4.354,-0.2 l -0.604,3 47.63,0 c 26.19,0 47.62,-0.4 47.62,-0.8 0,-0.4 -3.04,-3.8 -6.77,-7.5 -6.02,-6 -7.22,-6.7 -10.75,-6.8 l -3.98,-0.1 4.07,-1.8 c 2.23,-1 5.52,-2.1 7.31,-2.5 3.11,-0.7 3.2,-0.6 1.96,1.4 -1.19,1.9 -0.75,2.6 5.14,8.5 l 6.43,6.5 -2.89,3 -2.89,3.1 -45.31,0 c -24.92,0 -45.316,0.3 -45.316,0.7 0,0.4 8.5249,9.3 18.946,19.7 l 18.94,18.9 13.31,-5.6 c 7.32,-3 13.49,-5.4 13.72,-5.1 1.17,1.1 -4.79,5.4 -10.96,7.9 -7.45,3 -8.77,4.5 -3.99,4.5 2.23,0 2.83,0.3 2.4,1.5 -0.43,1.1 -2.16,1.5 -6.49,1.5 l -5.91,0 0.73,2.7 c 1.05,4 0.96,8.2 -0.18,8.5 -0.54,0.1 -1.77,-2.7 -2.73,-6.2 -1.75,-6.5 -1.83,-6.6 -22.668,-27.4 l -20.912,-20.9 -6.64,2.3 c -3.99,1.4 -6.52,2.9 -6.35,3.6 0.16,0.7 12.31,13.6 27.0136,28.7 C 21.93,871.3 26.9,876.9 25.8,877.8 24.71,878.7 19.16,873.5 -1.885,851.9 -16.36,837 -28.56,824.9 -29,824.9 c -0.43,0 -0.79,10 -0.79,22.2 l 0,22.2 15.74,15.8 c 13.1722,13.2 15.337,15.8 13.2682,15.8 -1.8142,0 -5.4622,-3 -13.7082,-11.2 -6.17,-6.2 -11.5,-11 -11.84,-10.6 -0.33,0.3 0.78,5.6 2.47,11.7 3.53,12.7 3.58,13.1 1.61,13.1 -1.49,0 -2.08,-1.7 -6.61,-18.3 -1.31,-4.8 -2.72,-8.7 -3.14,-8.7 -0.41,0 -2.44,3.2 -4.52,7.1 -4.97,9.3 -6.83,11.7 -8.2,10.3 -0.76,-0.7 0.81,-4.5 5.42,-13 l 6.49,-11.9 0,-24.3 0,-24.3 -4.75,-2 c -2.61,-1.2 -5.98,-2.3 -7.5,-2.6 l -2.75,-0.6 0,39.2 c 0,30.9 -0.26,39.1 -1.25,38.8 -0.96,-0.3 -1.31,-9 -1.51,-38.1 -0.14,-20.7 -0.63,-37.6 -1.08,-37.6 -1.53,0 -50.17,48.5 -50.17,50 0,0.8 6.08,7.5 13.5,14.9 10.97,11 13.18,13.7 11.88,14.4 -1.26,0.7 -4.23,-1.7 -13.75,-11.2 -6.68,-6.7 -12.43,-12.1 -12.93,-12.1 -0.4,0 -0.7,4.2 -0.7,9.4 0,9.1 0.1,9.5 2.9,11.8 1.54,1.3 5.81,3.2 9.47,4.2 3.65,1 6.64,2.1 6.64,2.6 0,1.5 -3.38,2 -6.72,0.9 -4.31,-1.4 -4.82,-0.9 -2.82,3 1.76,3.4 1.85,3.3 -4.65,2.4 z m -39.62,-10 c 2.1,-2.1 3.8,-4.2 3.8,-4.7 0,-1.2 -7,-8.6 -8.2,-8.6 -0.4,0 -0.8,3.8 -0.8,8.5 0,4.6 0.3,8.5 0.7,8.5 0.4,0 2.4,-1.7 4.5,-3.7 z m 31.8,-17.3 0,-11 -11.5,0 -11.5,0 0,11 0,11 11.5,0 11.5,0 0,-11 z m -26,-2.3 c 0,-8.9 -0.1,-9.4 -2.9,-12.5 -1.9,-2 -3.9,-3.2 -5.5,-3.2 -2.6,0 -2.6,0.1 -2.6,7.7 l 0,7.7 4.7,4.8 c 2.6,2.6 5.1,4.8 5.5,4.8 0.5,0 0.8,-4.2 0.8,-9.3 z m -8,-20.2 c 0,-0.2 -0.3,-1.1 -0.6,-2 -0.9,-2.2 -2.4,-1.9 -2.4,0.5 0,1.1 0.7,2 1.5,2 0.8,0 1.5,-0.2 1.5,-0.5 z m 529,-291.1 c 0,-3.2 -0.4,-3.7 -4,-5.3 -2.5,-1 -4,-2.3 -4,-3.5 0,-1.9 2,-1.7 7.1,1 2.1,1 4.6,1.1 12,0.2 9,-1 10.7,-1.4 9.8,-2.2 -0.2,-0.3 -5.8,-2.7 -12.4,-5.4 -7.4,-3.1 -12.1,-5.7 -12.3,-6.6 -0.2,-0.9 0.1,-1.6 0.7,-1.6 2.2,0 31.1,12.4 30.4,13.1 -2.9,2.6 -11.3,5.9 -15.3,5.9 -5.3,0 -7.3,1 -6.4,3.2 0.4,1.1 -0.4,2.1 -2.5,3.2 l -3.1,1.6 0,-3.6 z M 425,550.7 c 1.8,-1.9 3.2,-3.8 3.2,-4.4 0,-0.5 -8,-8.6 -17.7,-18 -17.2,-16.6 -17.7,-17.2 -16.8,-19.9 0.8,-2.2 2.3,-3.3 6.7,-5 3.1,-1.1 6,-2.4 6.4,-2.8 1.1,-1.1 -3.6,-5.7 -5.8,-5.7 -2.5,0 -2.3,-1.9 1.1,-8.7 6,-12.5 11.6,-27.6 10.4,-28.1 -2,-0.7 -1.5,-3.2 0.7,-3.2 1.8,0 4,-2.7 4,-5 0,-0.6 -0.7,-1 -1.5,-1 -0.8,0 -1.5,-0.7 -1.5,-1.5 0,-0.9 0.7,-1.5 1.6,-1.5 1.2,0 1.5,-0.6 1.1,-2.2 -0.3,-1.2 -0.3,-3.5 0,-5.2 0.6,-3 0.6,-3 2.9,2.2 2.2,5 2.4,5.2 6.4,5.2 2.2,0 4,-0.5 4,-1.1 0,-0.6 -2.7,-7.6 -6,-15.5 -5.9,-14.3 -7.7,-22.4 -4.7,-22.4 1.6,0 27.3,-25.8 26.5,-26.6 -0.3,-0.3 -5.6,0.8 -11.7,2.5 -13.1,3.6 -13.5,3.7 -12.2,1.2 0.7,-1.2 4.9,-2.8 13.6,-5.2 6.9,-1.8 12.4,-3.8 12.2,-4.3 -0.1,-0.5 -4.3,-3.1 -9.2,-5.8 -4.9,-2.7 -9.1,-5.1 -9.3,-5.3 -0.2,-0.2 0,-2 0.4,-3.9 l 0.6,-3.6 38.4,0 c 21.1,0 38.4,-0.4 38.4,-0.8 0,-1.1 -49.3,-50.2 -50.5,-50.2 -0.5,0 -5.6,4.6 -11.2,10.2 -5.7,5.6 -10.3,9.6 -10.3,8.9 0,-2.6 3.1,-6.8 9.4,-13.1 3.7,-3.6 6.6,-6.8 6.6,-7.3 0,-0.4 -1.6,-0.7 -3.6,-0.7 -5.8,0 -3.6,-2.5 2.5,-2.8 l 5.3,-0.3 -0.4,-12.7 -0.3,-12.7 2.8,-2.5 c 2.1,-2 3.7,-5.5 6.7,-15.5 2.1,-7.1 3.7,-13.2 3.4,-13.4 -0.2,-0.3 -2.4,1.5 -4.9,3.9 -4.1,4 -4.5,4.2 -4.5,2.1 0,-1.5 2.3,-4.7 6.2,-8.7 l 6.1,-6.4 -2,-4.8 c -1.5,-3.5 -1.7,-5.5 -1.1,-7.2 0.8,-2.3 1.2,-1.9 4.1,4.7 2.6,5.9 4.3,8.1 9.5,12.3 3.5,2.9 6.6,4.9 6.9,4.6 0.3,-0.3 -1.4,-5.5 -3.9,-11.4 -9,-21.1 -10.8,-26.5 -10,-29.6 0.7,-2.6 1.3,-1.6 6,10.5 2.9,7.3 7.6,18.8 10.5,25.4 l 5.3,12 7.7,0.3 7.7,0.2 0,-34 0,-34 -15.2,-0.3 c -8.4,-0.2 3.6,-0.4 26.7,-0.5 41.4,-0.2 42,-0.2 39,1.6 -2.5,1.6 -3.2,1.7 -4.6,0.5 -1.1,-1 -4.8,-1.3 -13.2,-1.3 l -11.7,0 0,24.9 c 0,22.5 0.2,24.9 1.7,25.2 1.1,0.3 2.1,2.1 2.9,5.7 l 1.2,5.3 -3.2,-3.1 c -1.8,-1.7 -3.6,-3 -4.2,-3 -1.2,0 -14.4,13.2 -14.4,14.5 0,1.3 13.2,14.5 14.5,14.5 0.5,0 3.8,-2.8 7.2,-6.2 5.2,-5.2 6.3,-5.9 6.9,-4.4 0.5,1.3 -1,3.5 -5.9,8.4 l -6.7,6.7 0,12 c -0.1,7.9 -0.5,13 -1.4,15 -1.3,2.7 -1.4,1.5 -1.5,-11.8 l -0.1,-14.7 -33.3,0 c -33.9,0 -35.7,0.1 -35.7,3.7 0,0.8 12.8,14.2 28.5,29.9 22.5,22.5 28.3,28.9 27.6,30.1 -0.7,1.3 -6.4,-4 -29.1,-26.6 -15.5,-15.5 -28.4,-28.1 -28.6,-28.1 -0.2,0 -0.4,4.4 -0.4,9.7 l 0,9.8 26.5,26.5 26.5,26.4 0,6.2 c 0,3.4 -0.7,8.1 -1.5,10.5 -0.9,2.4 -1.4,5.6 -1.1,7.1 0.6,3 -0.1,5.8 -1.5,5.8 -0.5,0 -0.9,-0.7 -0.9,-1.6 0,-0.9 -0.6,-1.4 -1.5,-1.3 -0.8,0.2 -13.1,11.7 -27.4,25.6 -24.7,24.1 -35.9,35.8 -35,36.7 0.3,0.3 6.3,-1.3 13.4,-3.5 l 13,-3.9 16.3,-16.3 c 14.3,-14.2 16.2,-15.7 14.8,-12.2 -1.1,2.6 -6.2,8.6 -14.8,17.1 l -13,13.1 1.5,4.4 c 0.8,2.4 3.3,8.9 5.4,14.4 2.9,7.3 3.7,10.8 3.3,13 l -0.7,3 -1,-2.5 c -0.6,-1.4 -2.7,-6.9 -4.8,-12.3 -2.1,-5.4 -4.1,-9.7 -4.6,-9.7 -0.5,0 -0.9,0.3 -0.9,0.7 0,0.4 -0.4,4.4 -0.9,8.9 -0.9,7.8 -0.8,8.4 2,15.5 1.6,4 3.7,7.9 4.6,8.6 1.9,1.4 1,4.5 -1,3.7 -1.1,-0.4 -2.5,2.7 -5.6,12.6 -2.3,7.2 -4,13.4 -3.7,13.6 0.2,0.3 1.4,0 2.6,-0.6 2.8,-1.5 3.1,-1.2 2.4,3.3 -0.6,3.4 -0.9,3.7 -4.3,3.7 -7.2,0 -7.9,3.5 -1.9,9.6 3.5,3.7 3.9,4.4 2.4,5 -1.1,0.4 -2.6,-0.3 -4.5,-2 -1.5,-1.5 -3,-2.6 -3.3,-2.6 -0.4,0 -0.8,2.1 -1,4.6 -0.2,2.6 -0.8,4.9 -1.5,5.1 -1,0.3 -1.3,-1.4 -1.3,-6.7 l 0,-7 -11,0 -11,0 0,11 0,11 3.3,0 3.2,0.1 -3.6,1.7 c -2,1 -4.3,2.3 -5.1,2.9 -0.8,0.7 -3.2,1.9 -5.4,2.8 l -3.9,1.7 3.3,-3.4 z m 5.2,-19.1 0,-9.3 -9.5,-9.4 -9.5,-9.5 -7,2.4 c -3.8,1.3 -7,2.9 -7,3.6 0,1.4 30.9,31.5 32.2,31.5 0.5,0 0.8,-4.2 0.8,-9.3 z m 27.9,-14.8 c 2.2,-3 10.4,-27 9.5,-27.9 -0.5,-0.5 -30.4,29.1 -30.4,30.2 0,0.4 4.2,0.8 9.3,0.8 9.2,0 9.4,-0.1 11.6,-3.1 z m -6.5,-17.8 18.9,-18.9 -1.3,-3.9 c -0.7,-2.1 -1.9,-5.1 -2.7,-6.6 l -1.4,-2.8 -19.1,0.3 -19.2,0.3 -6.9,16.4 -6.8,16.4 8.8,8.8 c 4.8,4.9 9.2,8.9 9.8,8.9 0.6,0 9.5,-8.5 19.9,-18.9 z m -34.5,-17.7 6.4,-15.5 -2.3,-2.5 c -1.3,-1.3 -2.8,-2.4 -3.4,-2.4 -0.7,0 -4,6.8 -7.4,15.1 l -6.3,15.2 2.8,2.8 c 1.5,1.6 2.9,2.9 3.3,2.9 0.3,0 3.4,-7 6.9,-15.6 z M 457.2,463 c 0,-0.9 -20.2,-12.1 -21.9,-12.1 -1.1,0 -6.1,9.8 -6.1,12 0,0.6 5.6,1 14,1 7.7,0 14,-0.4 14,-0.9 z m 8.4,-2.9 c 0.3,-1 0.8,-5.9 1.2,-11 0.5,-7.5 0.4,-9.2 -0.7,-9.3 -1.9,0 -26.9,7.4 -26.9,8.1 0,0.5 24.1,13.9 25.2,13.9 0.4,0 0.9,-0.7 1.2,-1.7 z m -37.5,-4.4 c 1.2,-2.8 2.1,-5.5 2.1,-6 0,-0.4 -1.8,-0.8 -4,-0.8 -3.6,0 -4.2,0.3 -5.7,3.5 -1.6,3.4 -1.6,3.5 0.7,6 1.3,1.3 2.9,2.5 3.6,2.5 0.6,0 2.1,-2.3 3.3,-5.2 z m 39.4,-45.3 c 18,-17.8 32.7,-32.6 32.7,-33 0,-0.3 -10,-0.5 -22.2,-0.5 l -22.3,0 -17.4,17.4 c -13.7,13.7 -17.2,17.8 -16.7,19.2 3.1,8.3 12.2,29.4 12.6,29.4 0.4,0 15.4,-14.6 33.3,-32.5 z m 39.4,-43 c 1.3,-3.3 2.3,-6.5 2.3,-7.3 0,-1 -7.9,-1.2 -39,-1.2 -21.4,0 -39,0.3 -39,0.8 0,0.5 5.5,3.9 12.3,7.5 l 12.2,6.6 24.5,-0.2 24.4,-0.2 2.3,-6 z m 18.3,-99.3 c 0,-0.4 -3,-3.7 -6.7,-7.5 l -6.7,-6.7 -8,0 c -7.9,0 -8,0 -20.2,6.6 -6.8,3.7 -12.4,7 -12.4,7.5 0,0.5 12.2,0.9 27,0.9 14.9,0 27,-0.4 27,-0.8 z m -46.9,-8.8 c 6.5,-3.6 11.9,-7 11.9,-7.4 0,-1 -16,-14.4 -16.5,-13.8 -0.5,0.4 -8.5,26.1 -8.5,27.1 0,1.2 1,0.7 13.1,-5.9 z m 44.1,-19.2 6.8,-6.7 0,-25.3 0,-25.2 -7.5,0 -7.5,0 0,32 c 0,17.6 0.3,32 0.7,32 0.4,0 3.8,-3.1 7.5,-6.8 z m 24.9,22.8 c -0.1,-2.4 0.2,-3.1 0.9,-2.4 0.7,0.7 0.7,1.8 0.1,3.4 -0.9,2.3 -1,2.3 -1,-1 z"
         id="path3102"
         style="fill:#96fe7e" />
    </g>
  </g>
</svg>
