<?xml version="1.0" encoding="UTF-8" standalone="no"?>
<!-- Created with Inkscape (http://www.inkscape.org/) -->

<svg
   xmlns:dc="http://purl.org/dc/elements/1.1/"
   xmlns:cc="http://creativecommons.org/ns#"
   xmlns:rdf="http://www.w3.org/1999/02/22-rdf-syntax-ns#"
   xmlns:svg="http://www.w3.org/2000/svg"
   xmlns="http://www.w3.org/2000/svg"
   version="1.1"
   width="1701"
   height="1212"
   id="svg2">
  <defs
     id="defs4" />
  <metadata
     id="metadata7">
    <rdf:RDF>
      <cc:Work
         rdf:about="">
        <dc:format>image/svg+xml</dc:format>
        <dc:type
           rdf:resource="http://purl.org/dc/dcmitype/StillImage" />
        <dc:title></dc:title>
      </cc:Work>
    </rdf:RDF>
  </metadata>
  <g
     transform="translate(623.6,-311.2)"
     id="layer1">
    <g
       transform="translate(-478.8,129.3)"
       id="g3088">
      <path
         d="m -144.3,686.4 c 0,-27.1 0.1,-32.4 0.3,-13.8 0.1,16.6 0.6,30.3 1,30.3 0.4,0 13.9,-12.9 30,-28.6 25.07,-24.5 29.21,-29 29.21,-31.5 0,-2.9 -0,-2.9 -6.25,-3.1 l -6.25,-0.1 6.5,-1.4 c 3.58,-0.8 8.75,-2.6 11.5,-4 l 5,-2.6 -3.75,3.9 c -2.55,2.7 -3.75,4.9 -3.75,6.8 0,2.9 12.75,27.5 14.25,27.5 0.42,0.1 0.75,-9.2 0.75,-20.4 0,-17.6 0.22,-20.5 1.5,-20.5 1.3,0 1.5,3.3 1.5,24 l 0,24 6.75,3.1 6.75,3 29.21,-29.8 C -4.012,636.8 9.151,623 9.173,622.6 c 0.02,-0.4 -0.914,-0.7 -2.081,-0.7 -1.773,0 -1.918,-0.3 -0.878,-1.5 0.685,-0.9 2.537,-1.5 4.116,-1.5 2.31,0 3.21,-0.7 4.63,-3.7 0.96,-2 2.71,-4.3 3.87,-5 l 2.11,-1.4 -2.07,5.9 -2.07,5.9 2.96,7.9 2.95,7.9 7.5,3.7 c 4.13,2 8.27,3.7 9.2,3.7 0.93,0 5.11,-1.5 9.29,-3.4 l 7.59,-3.5 3.46,-7.6 c 1.91,-4.1 3.46,-8.2 3.46,-8.9 0,-0.8 -1.56,-4.9 -3.47,-9.1 -3.1,-6.8 -3.91,-7.8 -7.5,-9.2 -5.88,-2.3 -5.13,-3.8 1.6,-3.3 1.16,0.1 2.4,-0.6 2.74,-1.5 0.41,-1 1.29,-1.4 2.55,-1 1.05,0.4 2.21,0.2 2.56,-0.4 0.35,-0.6 1.83,-1 3.29,-1 l 2.64,0 -3.84,3.9 -3.85,3.9 2.79,6.6 c 1.54,3.6 3.27,6.6 3.85,6.6 0.58,0 6.96,-5.9 14.18,-13 7.49,-7.5 13.94,-13 15.01,-13 1.04,0 4.15,-2.2 6.94,-4.8 2.7,-2.6 -3.2,3.6 -13.24,13.8 -10.03,10.2 -18.25,18.8 -18.25,19.2 0,0.4 16.2,0.8 35.99,0.8 l 36,0 0,-27.6 0,-27.5 -3.4,-1.6 c -3.1,-1.5 -3.3,-1.8 -1.8,-2.9 1.3,-1 2.2,-1 4.3,0.1 2.1,1.1 4.4,1.2 11.1,0.4 4.6,-0.5 8.9,-0.9 9.6,-0.9 2.9,0 0.8,-1.9 -5,-4.2 -6,-2.5 -6.1,-2.6 -3.2,-3.2 2.2,-0.5 5,0.1 10.3,2.3 4.1,1.7 7.7,3.1 8.2,3.1 0.4,0 2.6,-2.3 5,-5.1 3.7,-4.5 4.1,-5.4 3.1,-7.1 -1.4,-2.2 -0.8,-3.8 1.4,-3.8 0.8,0 1.4,-0.9 1.4,-1.9 0,-1 0.7,-2.5 1.5,-3.1 1.3,-1.1 1.5,-0.6 1.5,3.8 l 0,5.2 11.5,0 11.5,0 0,-11 0,-11 -2.6,0 c -3.4,0 -2.6,-2.4 0.9,-2.8 1.7,-0.3 4.5,-2.5 8.2,-6.8 5.3,-6 6,-7.4 9.5,-19.2 2.2,-7 3.7,-12.9 3.4,-13.2 -0.2,-0.2 -4,3.1 -8.4,7.5 -4.4,4.3 -8,7.6 -8,7.3 0,-2.8 4.3,-8.7 11.4,-15.8 9.5,-9.4 11.1,-13 5.6,-13 -3,0 -4,-1.3 -1.9,-2.6 0.6,-0.3 0.8,-1.2 0.6,-1.9 -0.3,-0.7 -0.1,-1.8 0.3,-2.6 0.7,-1.1 1.2,-1.1 2.8,0.4 1,0.9 2.3,1.7 2.8,1.7 1.3,0 14.4,-13.3 14.4,-14.5 0,-0.6 -2.5,-3.5 -5.6,-6.6 -4.3,-4.4 -5.4,-6.1 -4.7,-7.3 0.7,-1.3 2.1,-0.4 7.8,5.4 l 7,7 12.8,0 12.8,0 3,-6.5 c 1.6,-3.6 2.9,-7 2.9,-7.5 0,-0.7 -7.9,-1 -22.6,-1 -17.6,0 -22.5,-0.3 -22.1,-1.3 0.3,-0.9 6.3,-1.4 23.7,-1.7 l 23.4,-0.5 7,-16.8 7,-16.8 -8.4,-8.5 c -4.7,-4.6 -8.9,-8.4 -9.5,-8.4 -0.5,0 -8.2,6.8 -16.9,15.2 -13.4,12.9 -15.8,14.8 -15.2,12.3 0.4,-2.1 4.6,-6.9 13.6,-15.6 7.2,-6.9 13,-12.8 13,-13.2 0,-0.4 -2.9,-0.7 -6.6,-0.7 -4.8,0 -6.4,-0.4 -6.1,-1.3 0.2,-0.8 3.1,-1.3 8.5,-1.5 l 8.2,-0.3 0,-11.5 0,-11.4 -2.5,0 c -1.5,0 -2.5,-0.6 -2.5,-1.5 0,-1 1,-1.5 2.8,-1.5 4.7,0 6.9,-3.6 10.8,-17.5 1.9,-7 3.3,-13 3,-13.3 -0.4,-0.4 -3.6,2.3 -7.1,5.8 -5.6,5.6 -6.5,6.1 -6.5,4.1 0,-1.6 2.7,-5.1 8.1,-10.7 l 8.2,-8.3 -2.3,-5.8 c -1.3,-3.2 -2.7,-6.4 -3.2,-7 -0.8,-1.1 2.3,-11.8 3.8,-13.2 0.4,-0.4 0.4,2 0.1,5.3 -0.5,5.1 -0.2,6.9 2.4,13 2.6,6.4 3.7,7.6 10.5,12.9 4.2,3.2 7.8,5.6 8.1,5.3 0.3,-0.3 -3.8,-10.6 -9.1,-22.9 -8.6,-20.1 -10.3,-25.8 -7.7,-25.7 0.3,0 4.9,10 10.1,22.2 5.1,12.3 10.4,24.6 11.6,27.5 l 2.3,5.3 7.6,0 7.5,0 0,-49 c 0,-27 -0.3,-49 -0.7,-49 -0.4,0 -8.8,7.9 -18.5,17.7 -14.8,14.8 -17.8,17.3 -17.8,15.3 0,-1.9 4.4,-6.9 18.2,-20.7 l 18.1,-18.2 -2.8,-6.5 c -1.5,-3.7 -3.3,-6.6 -3.9,-6.6 -0.6,0 -5.7,4.6 -11.4,10.2 -9.5,9.5 -10.2,10 -8.6,6.3 0.8,-2.2 4.7,-7.2 8.5,-11.1 3.8,-3.8 6.9,-7.3 6.9,-7.7 0,-0.4 -1.1,-0.7 -2.5,-0.7 -1.5,0 -2.5,-0.6 -2.5,-1.5 0,-1.2 1.2,-1.5 4.6,-1.5 l 4.5,0 3,-6.5 c 1.6,-3.6 2.9,-7 2.9,-7.5 0,-0.6 -2,-1 -4.5,-1 -3.5,0 -4.3,-0.3 -3.8,-1.5 0.4,-1.3 4.3,-1.5 27.2,-1.4 14.6,0 25.8,0.3 24.8,0.6 -1.2,0.3 -1.7,1.1 -1.4,2.2 0.2,0.9 -0.2,2.6 -0.9,3.6 -0.8,1 -1.4,1.3 -1.4,0.6 0,-0.7 -1.1,-2.3 -2.4,-3.7 -2.4,-2.3 -3,-2.4 -15.6,-2.4 -7.5,0 -14,0.4 -15.1,1 -2,1.1 -8.9,14.6 -8.9,17.5 0,0.7 1.6,4.8 3.5,8.9 l 3.4,7.6 7.6,3.5 c 4.2,1.9 8.2,3.5 8.9,3.5 0.8,0 3.9,-1.2 7,-2.5 5.4,-2.4 5.6,-2.5 5.6,-0.5 0,1.4 -1.2,2.5 -4,3.6 -2.2,0.9 -4,2.1 -4,2.8 0,0.6 1.8,2.9 4,5.1 2.6,2.5 4,4.8 4,6.4 0,2.3 -0.2,2.2 -4.8,-2.2 -2.6,-2.6 -5.1,-4.7 -5.5,-4.7 -0.4,0 -0.7,16.2 -0.7,36 0,35.3 0.1,36 2,36 2.4,0 2.3,-0.2 0.9,3.8 -0.9,2.7 -1.3,2.9 -3,1.9 -1.6,-1.1 -2.7,-0.4 -8.9,5.8 -3.8,3.8 -7,7.4 -7,8 0,0.5 2.7,3.7 6,7 4.9,4.8 6,6.5 6,9.2 l 0,3.2 -33.1,0.3 c -29.8,0.2 -33.3,0.4 -34.2,1.9 -0.9,1.4 0.8,3.7 9.9,13.5 6.1,6.5 14.1,14.4 17.7,17.7 l 6.7,5.9 10.3,-4.2 c 5.6,-2.3 10.8,-4.5 11.5,-4.8 0.7,-0.2 1.2,0.3 1.2,1.5 0,1.4 -2.4,2.9 -10.7,6.3 l -10.8,4.5 -0.3,4.2 c -0.2,2.7 0.1,4.3 0.8,4.3 0.6,0 4.5,-1.4 8.6,-3.2 4.2,-1.7 7.7,-2.9 7.9,-2.6 1.3,1.2 -3.2,4.8 -8.4,6.7 -3.4,1.3 -6.1,2.8 -6.1,3.5 0,0.6 2.3,3.4 5,6.1 4.4,4.3 6.5,8.5 4.3,8.5 -0.4,0 -3.7,-3 -7.4,-6.6 -5.3,-5.3 -7.1,-6.5 -8.8,-6 -1.1,0.4 -2.1,1.2 -2.1,1.9 0,0.7 3.1,4.3 6.9,8.1 4.9,4.8 7.4,6.7 8.6,6.2 1.3,-0.5 1.5,-0.2 1.1,1.4 -0.3,1.1 -0.8,2.9 -1.2,4 -0.3,1.1 -0.9,2 -1.3,2 -0.4,0 -2,2.9 -3.6,6.5 l -2.7,6.6 2.2,2.4 c 2.1,2.1 2.2,2.7 1,5.4 -0.9,2.2 -1.9,3.1 -3.6,3.1 -2.8,0 -2.9,0.5 -0.9,5.3 0.8,2 1.5,6.2 1.5,9.4 l 0,5.8 -7,7 c -5.8,5.7 -7,7.4 -6.5,9.3 0.3,1.3 0.3,3.3 -0.1,4.4 -0.6,2 -0.8,1.8 -2.5,-1.5 -1.7,-3.4 -2.3,-3.7 -5.9,-3.7 -2.2,0 -4,0.4 -4,0.8 0,2 4.4,11.2 5.3,11.2 0.6,0 2.1,-1 3.4,-2.2 2,-1.9 1.8,-1.2 -1.2,4.8 -1.9,3.8 -3.5,7.6 -3.5,8.6 0,1 -0.5,1.8 -1.2,1.8 -0.7,0 -4.3,5.5 -8,12.3 -6.4,11.7 -6.8,12.7 -6.8,18.9 0,4.5 -0.4,6.9 -1.4,7.7 -1.3,1.1 -1.5,0.1 -1.8,-6.5 l -0.3,-7.8 -12.5,-4.8 c -6.9,-2.7 -20.3,-8.1 -29.9,-12.1 l -17.4,-7.2 -4.3,5 c -2.4,2.7 -4.4,5.4 -4.4,6 0,0.5 11.5,12.5 25.6,26.5 20.5,20.6 25.3,25.8 24.2,26.7 -1.1,0.9 -6.3,-3.8 -25.8,-23.3 -13.5,-13.4 -24.8,-24.4 -25.2,-24.4 -0.4,0 -0.8,4.3 -0.8,9.6 l 0,9.7 22,21.7 c 17.5,17.4 21.7,22 20.6,22.9 -1.1,0.9 -5.8,-3.2 -22.7,-19.9 -11.7,-11.6 -21.7,-21 -22.1,-21 -0.5,0 -11.2,10.3 -23.8,23 -17.7,17.7 -23,23.5 -23,25.5 l 0,2.5 41.6,0 c 32.8,0 41.5,0.2 41.2,1.2 -0.4,1 -9.4,1.3 -39.6,1.5 -21.6,0.2 -39.2,0.6 -39.2,1.1 0,0.4 3.1,3.7 6.8,7.4 l 6.8,6.8 19.9,0 c 18.6,0 19.7,0.1 16,1.5 -2.8,1 -8.6,1.4 -19.7,1.4 l -15.8,0.1 0,8.5 c 0,6.9 -0.3,8.5 -1.5,8.5 -1.2,0 -1.5,-1.4 -1.5,-6.5 0,-3.6 -0.3,-6.5 -0.8,-6.5 -0.4,0 -3.8,3.1 -7.6,6.9 -6.1,6.2 -6.8,7.2 -6.4,10.2 0.3,3.1 0,3.5 -4,5.5 l -4.4,2.2 2.6,-2.7 c 1.5,-1.6 2.6,-3.9 2.6,-5.4 l 0,-2.7 -49,0 c -26.94,0 -48.99,0.3 -48.99,0.8 0,0.4 10.35,10.8 23,23 12.65,12.3 22.99,22.7 22.99,23.2 0,2.2 -3.8,0.7 -7,-2.6 -1.9,-2 -12.82,-12.6 -24.23,-23.6 l -20.75,-20.1 -6.5,2.8 c -3.58,1.5 -6.51,3.3 -6.51,4 0,0.7 9.97,10.8 22.16,22.6 18.21,17.5 21.77,21.4 19.96,21.7 -1.71,0.2 -6.92,-4.2 -23.04,-19.8 -11.46,-11 -21.1,-20 -21.43,-20 -0.34,0 -0.73,9.7 -0.88,21.6 -0.2,16.3 -0.58,21.8 -1.52,22.1 -0.97,0.3 -1.25,-4.8 -1.25,-23.7 l 0,-24.2 -6.47,-2.9 c -3.57,-1.6 -6.93,-2.9 -7.49,-2.9 -0.65,0 -1.1,10.6 -1.27,29.6 -0.2,22.7 -0.56,29.8 -1.52,30.1 -0.98,0.3 -1.25,-5.8 -1.25,-28.7 0,-16 -0.39,-29 -0.86,-29 -0.48,0 -7.68,7.1 -16.003,15.9 l -15.137,15.8 0,19.7 c 0,16.7 -0.21,19.6 -1.5,19.6 -1.26,0 -1.5,-2.4 -1.5,-15.5 0,-8.6 -0.38,-15.5 -0.85,-15.5 -1.65,0 -14.15,24.5 -14.15,27.8 0,4.3 -2.76,4.3 -3.18,-0.1 l -0.32,-3.2 -29.88,-12.5 -29.88,-12.5 -4.34,5 c -2.4,2.7 -4.41,5.4 -4.41,5.9 0,0.4 4.96,6.1 11.01,12.6 9.01,9.6 10.68,11.9 9.25,12.4 -1.33,0.6 -3.72,-1.4 -9.98,-8 -4.53,-4.9 -8.45,-8.6 -8.68,-8.3 -0.3,0.2 1.02,5.2 2.88,10.9 2.92,9 3.18,10.6 1.89,11.3 -0.83,0.5 -1.61,0.7 -1.74,0.5 -0.13,-0.2 -2.19,-6.6 -4.53,-14.3 -2.4,-7.7 -4.5,-14.2 -4.7,-14.4 -0.5,-0.6 -31.4,10 -31.4,10.7 0,0.4 8.1,4.7 18,9.7 9.9,4.9 18,9.2 18,9.6 0,2.4 -5.7,0.4 -22.2,-7.8 -10.3,-5.1 -19,-9.3 -19.2,-9.3 -0.3,0 -0.7,4.6 -0.8,10.2 -0.2,5.6 -0.4,-9.5 -0.3,-33.7 z m 120.02,4.4 c 3.66,-6.7 6.43,-12.3 6.17,-12.6 -0.46,-0.5 -26.62,7.3 -27.46,8.1 -0.56,0.6 12.77,16.6 13.8,16.6 0.47,0 3.84,-5.5 7.49,-12.1 z m -95.32,6.5 13.7,-4.6 5.6,-6.3 c 4.99,-5.8 5.92,-7.6 9.48,-18.7 2.16,-6.7 3.75,-12.5 3.52,-12.7 -0.46,-0.5 -46.8,44.5 -47.3,45.9 -0.5,1.5 0.5,1.2 15,-3.6 z m 79.81,3 c 0,-0.3 -2.36,-3.5 -5.25,-7.1 -4.34,-5.4 -6.49,-7.1 -12.45,-9.9 l -7.21,-3.3 -9.29,1 c -8.93,1 -11.44,1.7 -9.3,2.5 0.55,0.3 9.78,4.2 20.5,8.8 18.07,7.8 23,9.5 23,8 z m 4.08,-20.9 c 2.43,-0.8 8.31,-2.6 13.06,-4 l 8.63,-2.6 16.71,-17.5 16.71,-17.4 -2.33,-6.5 c -1.29,-3.6 -2.86,-6.5 -3.51,-6.5 -1.14,0 -53.52,53.2 -54.18,55 -0.43,1.2 -0.32,1.2 4.91,-0.5 z M -75.57,678 c 3.69,-0.4 6.99,-1 7.32,-1.3 0.6,-0.6 -12.6,-24.8 -13.54,-24.8 -0.6,0 -8.09,23.9 -8.03,25.7 0,1.4 4.05,1.5 14.25,0.4 z M 157.2,636.1 c 0,-0.4 -3,-3.7 -6.7,-7.5 l -6.7,-6.7 -38.4,0 -38.31,0 -2.94,6.4 c -1.61,3.6 -2.94,7 -2.94,7.5 0,0.7 15.98,1.1 47.99,1.1 26.4,0 48,-0.4 48,-0.8 z m 13.2,-8 c 3.8,-3.7 6.8,-7.1 6.8,-7.7 0,-1.3 -13.1,-14.5 -14.4,-14.5 -1.3,0 -14.6,13.1 -14.6,14.4 0,1.3 13.2,14.6 14.5,14.6 0.5,0 4,-3.1 7.7,-6.8 z m -16,-20 c 4.7,-4.6 6.8,-7.4 6.8,-9.1 0,-2.7 -12.7,-27.1 -14.1,-27.1 -0.5,0 -0.9,9.6 -0.9,21.5 0,11.8 0.3,21.5 0.7,21.5 0.4,0 3.8,-3.1 7.5,-6.8 z m 12.1,-31 c 2.1,-7 3.8,-13.3 3.7,-14 0,-0.8 -1.4,-1.2 -3.7,-1.2 -5.8,0.1 -17.1,1.5 -17.8,2.2 -0.7,0.6 12.6,25.7 13.5,25.7 0.3,0 2.2,-5.7 4.3,-12.7 z m 20.5,-9.2 c 10.6,-10.5 19.2,-19.2 19.2,-19.5 0,-0.3 -4.4,-0.5 -9.9,-0.5 l -9.8,0 -5.7,6.5 c -5.3,6 -6,7.4 -9.7,19.2 -4.1,13.6 -4,13.3 -3.6,13.3 0.2,0 9,-8.6 19.5,-19 z m 105.7,-50.7 c 3.6,-6.4 6.4,-11.8 6.1,-12.1 -0.5,-0.5 -27.6,6.8 -27.6,7.4 0,0.9 13.3,16.4 14,16.4 0.5,0 3.9,-5.3 7.5,-11.7 z m -15.5,9.6 c 0,-0.6 -2.3,-4 -5.2,-7.5 -4.6,-5.6 -6.2,-6.7 -12.8,-9.3 -7,-2.8 -7.9,-3 -15,-2.1 -4.1,0.5 -8.3,0.9 -9.2,0.9 -2.7,0.1 -2.1,1.7 1,2.9 1.5,0.6 11,4.4 21.2,8.6 10.2,4.1 18.9,7.5 19.3,7.5 0.4,0 0.7,-0.4 0.7,-1 z m 3.5,-30.9 12.9,-12.9 -7,-16.8 -7,-16.8 -12.7,-0.3 -12.7,-0.3 0.2,27.8 0.3,27.7 5.5,2.3 c 3,1.2 6,2.2 6.5,2.2 0.6,0 6.9,-5.8 14,-12.9 z m 8.4,7.8 c 6.4,-1.8 11.7,-3.3 11.9,-3.4 0.7,-0.4 -5.3,-12.4 -6.2,-12.4 -1.2,0 -18.6,17 -18.6,18.2 0,1.1 0.2,1.1 12.9,-2.4 z m -47.7,1.3 c 3.7,-0.4 7,-1 7.4,-1.4 0.6,-0.6 -12.6,-25.7 -13.6,-25.7 -0.6,0 -8.1,24.9 -8,26.7 0,1.4 4,1.5 14.2,0.4 z m 9.8,-30.6 c 0,-11.9 -0.3,-21.5 -0.7,-21.5 -0.4,0 -3.8,3 -7.5,6.7 -4.7,4.6 -6.8,7.5 -6.8,9.1 0,2.7 12.8,27.2 14.2,27.2 0.4,0 0.8,-9.7 0.8,-21.5 z m 54,6.2 c 0,-0.7 -2.9,-8 -6.3,-16.2 l -6.3,-15 -4.2,-0.3 c -2.9,-0.3 -4.2,0 -4.2,1 0,1.1 11.2,28.6 12.6,30.9 0.9,1.4 8.4,1.1 8.4,-0.4 z m 12.5,-8.7 6.9,-7 -3.5,-7.7 -3.5,-7.8 -10.2,-0.3 c -7.5,-0.2 -10.2,0 -10.2,0.9 0,2.4 11.5,28.9 12.5,28.9 0.6,0 4.2,-3.2 8,-7 z m -23.8,-29.5 c 1.6,-3.4 1.6,-3.6 -0.7,-6 -1.3,-1.4 -2.9,-2.5 -3.5,-2.5 -1.1,0 -5.5,8.9 -5.5,11.1 0,0.5 1.8,0.9 4,0.9 3.6,0 4.2,-0.4 5.7,-3.5 z m 24.3,1.5 c 2,-3.7 1.3,-4 -9,-4 -8.8,0 -10,0.2 -11,1.9 -2,3.8 -1.3,4.1 9,4.1 8.8,0 10.1,-0.3 11,-2 z m 7.8,0.7 c -0.7,-1.9 -3.8,-2.1 -3.8,-0.3 0,0.9 0.9,1.6 2.1,1.6 1.2,0 1.9,-0.6 1.7,-1.3 z m -0.9,-16 3.5,-7.8 -6.9,-7 c -3.8,-3.8 -7.4,-6.9 -8,-6.9 -1,0 -12.5,26.4 -12.5,28.8 0,0.9 2.7,1.2 10.2,0.9 l 10.2,-0.2 3.5,-7.8 z m -21,-10.3 6.4,-15.5 -2.3,-2.5 c -1.3,-1.3 -2.8,-2.4 -3.4,-2.4 -0.9,0 -8.9,17.7 -13.2,29.3 -0.7,1.8 2.9,6.7 5,6.7 0.6,0 4,-7 7.5,-15.6 z m 13.2,-20 c 2.5,-1.3 2.9,-2.1 2.9,-5.5 0,-2.1 -0.4,-3.9 -0.9,-3.9 -2,0 -11.1,4.3 -11.1,5.3 0,1.3 4,5.7 5.2,5.7 0.5,0 2.2,-0.7 3.9,-1.6 z M 311,388.2 c 3.4,-1.4 6.2,-2.9 6.2,-3.3 0,-0.8 -30.6,-32 -31.4,-32 -0.3,0 -0.6,4.3 -0.6,9.7 l 0,9.7 9.2,9.3 c 5.1,5.1 9.5,9.3 9.8,9.3 0.3,0 3.3,-1.2 6.8,-2.7 z m 41.2,-48.1 c 0,-0.4 -3,-3.7 -6.7,-7.5 l -6.7,-6.7 -8,0 c -7.9,0 -8,0 -20.2,6.6 -6.8,3.7 -12.4,7 -12.4,7.5 0,0.5 12.2,0.9 27,0.9 14.9,0 27,-0.4 27,-0.8 z m -46.9,-8.8 c 6.5,-3.6 11.9,-6.9 11.9,-7.3 0,-1 -16.9,-14.5 -17.4,-14 -0.5,0.5 -7.6,25.6 -7.6,26.9 0,1.5 0.4,1.4 13.1,-5.6 z m 44.1,-19.2 6.8,-6.7 0,-38.3 0,-38.4 -6.5,-2.9 c -3.5,-1.6 -6.9,-2.9 -7.5,-2.9 -0.6,0 -1,15.9 -1,48 0,26.4 0.3,48 0.7,48 0.4,0 3.8,-3.1 7.5,-6.8 z M 121.7,684.2 c 1.7,-1.6 6.7,-6.5 11.2,-10.7 l 8.1,-7.8 -2.4,4.8 c -3.8,7.4 -11.4,14.6 -16.9,15.9 l -3,0.7 3,-2.9 z"
         id="path3104"
         style="fill:#fb4bfe" />
    </g>
  </g>
</svg>
