<?xml version="1.0" encoding="UTF-8" standalone="no"?>
<!-- Created with Inkscape (http://www.inkscape.org/) -->

<svg
   xmlns:dc="http://purl.org/dc/elements/1.1/"
   xmlns:cc="http://creativecommons.org/ns#"
   xmlns:rdf="http://www.w3.org/1999/02/22-rdf-syntax-ns#"
   xmlns:svg="http://www.w3.org/2000/svg"
   xmlns="http://www.w3.org/2000/svg"
   version="1.1"
   width="1701"
   height="1212"
   id="svg2">
  <defs
     id="defs4" />
  <metadata
     id="metadata7">
    <rdf:RDF>
      <cc:Work
         rdf:about="">
        <dc:format>image/svg+xml</dc:format>
        <dc:type
           rdf:resource="http://purl.org/dc/dcmitype/StillImage" />
        <dc:title></dc:title>
      </cc:Work>
    </rdf:RDF>
  </metadata>
  <g
     transform="translate(623.6,-311.2)"
     id="layer1">
    <g
       transform="translate(-478.8,129.3)"
       id="g3088">
      <path
         d="m -144.6,775.4 -0.2,-45 20.6,0.3 c 18.3,0.2 20.6,0.1 20.1,-1.3 -0.6,-1.6 0.7,-2 4.95,-1.7 1.17,0.1 2.4,-0.5 2.72,-1.3 0.94,-2.5 2.41,-1.8 3.56,1.7 0.71,2.2 8.34,10.5 22.49,24.7 l 21.41,21.4 6.59,-2.8 c 3.63,-1.6 6.61,-3.3 6.62,-3.9 0,-0.6 -10.67,-11.6 -23.75,-24.3 -18.91,-18.4 -23.42,-23.3 -22.03,-23.8 1.34,-0.6 6.95,4.3 24.33,21.1 12.43,12 23.01,22 23.51,22.2 0.54,0.2 0.91,-9.6 0.91,-23.8 0,-20.7 0.21,-24 1.5,-24 1.3,0 1.5,3.5 1.5,26 l 0,26.1 6.48,2.9 c 3.57,1.6 6.94,3 7.5,3 0.67,0 1.02,-10 1.02,-29 0,-25.1 0.21,-29 1.5,-29 1.3,0 1.5,3.7 1.5,28 0,15.4 0.36,28 0.8,28 0.44,0 7.642,-7.2 16.003,-16 L 20.21,739 l 0,-18.4 c 0,-15.5 0.25,-18.6 1.5,-19.1 1.3,-0.5 1.5,1.5 1.5,14.4 0,8.2 0.39,15 0.86,15 0.47,0 3.84,-5.6 7.5,-12.4 5.69,-10.5 6.64,-13 6.64,-17.4 0,-3.5 0.45,-5.2 1.46,-5.6 1.14,-0.4 1.51,0.7 1.75,5.1 l 0.29,5.7 9,3.8 c 13.49,5.7 45.84,18.6 48.59,19.2 1.9,0.5 3.3,-0.2 6.8,-3.8 2.4,-2.4 4.2,-4.9 4,-5.5 -0.2,-0.5 -6.2,-7.1 -13.22,-14.6 -11.09,-11.7 -12.49,-13.5 -10.32,-13.5 1.9,0 5.08,2.7 13.26,11.5 5.88,6.3 11.08,11.5 11.58,11.5 0.4,0 0.8,-4.5 0.8,-9.9 0,-9.5 -0.1,-9.8 -3,-12.6 -1.6,-1.6 -3,-3.3 -3,-3.7 0,-1.4 3.7,-0.9 5,0.7 0.7,0.8 1.8,1.5 2.5,1.5 0.7,0 1.8,-0.7 2.5,-1.5 0.7,-0.9 2.4,-1.5 3.8,-1.5 2.4,0 2.4,0.1 0.9,1.8 -0.9,1 -1.7,2.1 -1.7,2.5 0,0.4 4.4,0.7 9.8,0.7 l 9.8,0 6.2,-6.3 c 6.1,-6.2 6.3,-6.5 9.8,-18.6 1.9,-6.8 3.3,-12.6 2.9,-13 -0.3,-0.3 -5,3.9 -10.5,9.4 -5.5,5.5 -10,9.5 -10,8.9 0,-5.4 21.4,-26.4 26.9,-26.4 0.5,0 3.8,5.1 7.3,11.4 3.5,6.3 6.7,11.5 7.1,11.5 0.4,0 0.7,-6.9 0.7,-15.4 0,-13.1 0.2,-15.5 1.5,-15.5 1.3,0 1.5,2.7 1.5,19 l 0,19 6.8,3.1 6.7,3 29.2,-29.8 c 16.1,-16.4 29.3,-30.2 29.3,-30.6 0,-0.4 -8.9,-0.8 -19.7,-0.8 -16,0 -19.4,-0.2 -17.8,-1.2 1.4,-0.8 8.5,-1.3 21.9,-1.6 l 19.8,-0.3 2.9,-6.4 c 1.6,-3.5 2.9,-6.9 2.9,-7.4 0,-0.6 -3.5,-1 -9,-1 -7.5,0 -8.8,-0.3 -8.3,-1.5 0.4,-1.2 2.3,-1.5 7.9,-1.5 4.1,0 7.4,-0.4 7.4,-0.7 0,-0.4 -1.7,-2.5 -3.7,-4.5 -2.9,-3 -3.4,-4.1 -2.5,-5 1,-1 2.4,-0.1 6.6,4.1 l 5.4,5.3 6.6,-2.4 c 3.6,-1.3 6.6,-2.8 6.6,-3.3 0,-0.6 -3.9,-4.9 -8.7,-9.8 -6.9,-6.9 -8.5,-9 -7.5,-9.9 1,-1 3,0.5 9.5,6.9 4.5,4.6 8.6,8.3 9,8.3 0.4,0 0.7,-9 0.7,-19.9 0,-16.4 0.3,-20.1 1.5,-21.1 1.3,-1.1 1.5,1.6 1.7,22 l 0.3,23.3 6,2.4 c 3.3,1.2 6.5,2.3 7.2,2.3 1,0 1.3,-10 1.5,-45.8 l 0.3,-45.7 5,-9.8 c 2.7,-5.4 5.4,-9.7 6,-9.7 0.6,0 4.1,-3.1 7.9,-6.9 5.5,-5.6 6.7,-7.3 6.2,-9 -0.4,-1.2 -1.1,-2.1 -1.7,-2.1 -0.5,0 -0.9,-2.6 -0.8,-5.8 0,-5.7 0,-5.7 1.5,-3 1.2,2.3 2.1,2.8 5.4,2.8 2.2,0 4,-0.5 4,-1.1 0,-2.6 -6,-13.9 -7.4,-13.9 -1.9,0 -1.9,-0.2 -0.4,-3.5 0.6,-1.4 1.7,-2.5 2.3,-2.5 0.7,0 2.5,-3 4,-6.6 l 2.8,-6.5 -2.6,-2.8 c -2.4,-2.4 -2.5,-3.1 -1.6,-6.4 0.5,-2.1 1.5,-3.7 2,-3.7 0.6,0 0.9,-0.6 0.8,-1.3 0,-0.7 -0.1,-2.1 0,-3.1 0.1,-1.9 0.2,-1.9 2.2,-0.1 2.2,2 3.3,1.8 13.7,-2.7 l 4.2,-1.8 0,-10.5 c 0,-11.2 -0.4,-12 -4.9,-9.6 -1,0.5 -4.1,1.9 -6.9,3 l -5.1,2 1,-2.3 c 0.7,-1.6 3.5,-3.3 8.3,-5.3 7.1,-3 7.1,-3 7.4,-7.2 0.3,-3.4 0,-4.1 -1.5,-4.1 -1,0 -2.9,0.7 -4.3,1.5 -3.3,1.8 -5,1.8 -5,-0.1 0,-0.9 2.3,-2.6 5.6,-4 l 5.7,-2.5 -0.5,-15.4 c -0.4,-13 -0.2,-15.3 1,-14.8 1.4,0.6 15.2,-12.3 15.2,-14.2 0,-0.5 -2.5,-3.5 -5.6,-6.7 -5.6,-5.6 -5.6,-5.6 -4.4,-9.2 l 1.2,-3.6 30.7,0 c 29.8,0 30.9,-0.1 32.7,-2.1 1.8,-2 1.5,-2.3 -27.4,-31.2 -22.6,-22.7 -29.2,-29.8 -29.2,-31.7 0,-2.1 5.3,2.7 29.3,26.7 16.1,16.1 29.6,29.3 30,29.3 0.4,0 0.7,-4.2 0.7,-9.3 l 0,-9.3 -27.5,-27.9 c -26.4,-26.8 -27.6,-27.8 -30,-26.7 -2.2,1 -2.5,0.9 -2.5,-0.7 0,-1.1 1.1,-2.6 2.3,-3.4 1.5,-1 3.4,-4.4 5.2,-9.4 l 2.9,-7.8 -2.1,-5.7 c -1.7,-4.7 -1.9,-6 -0.8,-7.4 1.1,-1.5 1.4,-1.1 3.1,3.4 1,2.8 2.3,5.2 2.9,5.2 1.2,0 13.5,-12.1 13.5,-13.3 0,-0.3 -3.7,-0.8 -8.2,-1 -4.6,-0.2 14.4,-0.4 42.2,-0.5 l 50.4,-0.2 -4.8,4.9 c -4.6,4.7 -4.8,5 -3.7,8.1 1.3,3.9 1.5,9 0.2,9 -0.5,0 -1.1,-0.6 -1.4,-1.3 -0.9,-2.5 -1.8,0.2 -2.6,7.9 -0.5,4.4 -1.3,9.3 -1.7,10.8 -0.5,2.3 -0.8,2.5 -1.6,1.2 -0.8,-1.5 -5.1,-1.6 -42.8,-1.6 -23.1,0 -42,0.3 -42,0.8 0,1.5 48.5,50.2 50,50.2 0.8,0 7.4,-5.9 14.6,-13.1 11.4,-11.4 13,-12.7 12.7,-10.2 -0.3,2.1 -3.4,5.9 -10.9,13.4 -5.7,5.7 -10.4,10.7 -10.4,11.1 0,0.4 3.8,0.8 8.5,0.8 6.9,0 8.5,0.2 8.5,1.5 0,1.2 -1.8,1.5 -10.5,1.5 l -10.5,0 0,11.5 0,11.5 6,0 c 4.9,0 5.8,0.2 5.4,1.5 -0.4,1 -2.2,1.5 -6.2,1.5 -9,0 -10.5,1.8 -14.8,17.3 -1.9,7.1 -3.3,13.1 -2.9,13.5 0.3,0.3 4.1,-3 8.5,-7.3 7.6,-7.6 7.8,-7.7 6.6,-4.1 -0.8,2.3 -4.4,6.9 -9.6,12 l -8.2,8.4 2.4,6.3 c 2.3,6.2 2.5,6.4 6.2,6.7 3.7,0.3 3.8,0.4 3.2,3.4 -0.8,4 -1,4.2 -3.6,2.7 -1.8,-0.9 -2.4,-0.9 -3,0.1 -1.1,1.8 -2.3,18.3 -1.6,20.7 0.5,1.5 -0.5,3.1 -4,6.5 l -4.7,4.6 2.6,6.1 c 1.5,3.4 2.7,7.9 2.7,9.9 l 0,3.7 -4.5,-0.4 c -3.4,-0.3 -4.5,0 -4.5,1.1 0,0.8 1.8,5.6 4,10.8 3.8,8.7 5.1,15 3.2,15 -0.5,0 -3,-5.4 -5.8,-12 -2.7,-6.6 -5.3,-12 -5.9,-12 -0.6,0 -4.1,3 -7.8,6.7 l -6.7,6.8 3.4,8 3.3,8 8.7,0.3 c 6.8,0.2 8.6,0.6 8.6,1.7 0,1.2 -1.7,1.5 -8.5,1.5 -7.3,0 -8.6,0.2 -9.5,1.9 -1.9,3.7 -1.2,4.1 7,4.1 6.4,0 8,0.3 8,1.4 0,1.2 -1.9,1.5 -9.1,1.8 l -9.1,0.3 -3.1,7.8 -3,7.8 7,7.2 c 7,7.1 7,7.2 5.8,10.6 -0.7,1.9 -2.2,3.8 -3.4,4.2 -1.9,0.7 -2.2,1.5 -2,5.1 0.4,8.6 0.4,8.6 -17.9,16.3 l -16.7,7 0,3.9 0,3.9 11,4.8 c 6.1,2.7 11.7,5.2 12.6,5.6 1,0.5 1.4,1.4 1,2.4 -0.5,1.4 -1.8,1.1 -9.5,-2.3 -4.9,-2.1 -9.1,-3.7 -9.3,-3.4 -0.8,0.7 10.7,15 12.8,16 2.7,1.2 2.6,4.9 -0.1,4.1 -1.6,-0.6 -5.8,3 -22,18.7 -14.5,14.1 -21.2,19.9 -24.2,21.1 -3.8,1.4 -1.9,-0.6 15.7,-17.7 11,-10.7 19.7,-19.7 19.4,-20.1 -0.4,-0.4 -6.5,0.9 -13.5,2.9 l -12.8,3.5 -17.3,17.3 c -15.5,15.4 -17.3,17.5 -16.7,19.8 2,7.2 -0.2,9.1 -3.1,2.7 -1.8,-3.9 -2.6,-4.5 -9.5,-7.1 -8.2,-3.2 -10.2,-3 -20.3,1.3 -4.4,1.9 -5,2.6 -8.2,9.6 -1.9,4.2 -3.5,8.1 -3.5,8.7 0,0.7 1,3.6 2.2,6.6 1.9,4.5 2,5.4 0.8,6.2 -1.2,0.7 -1.9,-0.1 -3.4,-3.6 -1,-2.4 -2.3,-4.4 -3,-4.4 -0.6,0 -6.3,5.1 -12.5,11.4 -6.3,6.3 -12.7,12 -14.1,12.6 -2.5,1 -24.2,24.1 -30.4,32.3 -4.6,5.9 -5.4,6.1 -14,2.2 -7.5,-3.4 -7.6,-3.4 -15.8,-2.5 -4.6,0.5 -8.6,1 -9,1 -0.4,0 -0.8,0.3 -0.8,0.8 0,0.5 6.1,3.5 13.5,6.7 11.4,4.9 13.4,6 12.2,7.2 -1.1,1.1 -4,0.2 -18,-5.9 l -16.7,-7.2 -5,4.9 c -2.8,2.7 -4.9,5.5 -4.8,6.1 0.2,0.7 5.4,6.6 11.6,13.3 8.9,9.4 11.1,12.4 10.4,13.6 -0.7,1.4 -2.9,-0.5 -11.7,-9.9 -6,-6.4 -11.3,-11.6 -11.7,-11.6 -0.4,0 -0.8,4.3 -0.8,9.7 l 0,9.8 7.3,6.6 c 5.6,5.2 7,7 6,7.9 -0.9,1 -2.5,0 -7.5,-4.4 -3.4,-3.1 -6.8,-5.6 -7.4,-5.6 -0.6,0 -11.6,10.1 -24.3,22.6 -19.61,19.2 -23.09,23 -23.09,25.5 l 0,2.9 12.49,0 c 10.7,0 12.4,0.2 11.9,1.5 -0.5,1.2 -2.6,1.5 -10.5,1.5 -5.4,0 -9.89,0.3 -9.89,0.8 0,0.4 2.03,2.7 4.49,5.2 2.5,2.4 4.5,4.7 4.5,5.2 0,2.2 -4.1,0.2 -8.49,-4.2 -2.7,-2.8 -5.37,-5 -5.93,-5 -0.55,0 -3.5,2.4 -6.54,5.4 -3.95,3.9 -6.59,5.6 -9.28,6.1 l -3.75,0.7 0,-27.7 0,-27.6 -5.52,-2.5 c -3.04,-1.3 -6.15,-2.4 -6.91,-2.4 -1.27,0 -58.6595,58 -59.399,60 -0.1983,0.6 12.719,1 31.869,1 28.52,0 32.07,0.1 30.96,1.5 -1.06,1.2 -6.12,1.5 -34.15,1.5 l -32.917,0 -1.929,4.5 c -1.174,2.7 -2.575,4.5 -3.584,4.5 -1.12,0 -1.47,-0.6 -1.08,-1.8 2.978,-9.1 2.978,-9.5 0,-17.2 l -2.86,-7.5 -7.5,-3.7 c -4.12,-2.1 -8.26,-3.8 -9.19,-3.8 -0.93,0 -5.11,1.5 -9.29,3.4 l -7.59,3.5 -3.46,7.6 c -3.93,8.6 -4.05,9.4 -1.94,13.5 1.45,2.8 1.42,3 -0.53,3 -1.13,0 -2.32,-0.7 -2.63,-1.5 -0.32,-0.9 -1.15,-1.5 -1.85,-1.5 -0.7,0 -1.83,0.6 -2.52,1.5 -0.68,0.8 -2.39,1.5 -3.79,1.5 l -2.55,0 2.17,-2.4 c 1.2,-1.2 2.17,-2.6 2.17,-3 0,-0.3 -16.2,-0.6 -36,-0.6 l -36.01,0 0,11 c 0,9.1 -0.2,11 -1.5,11 -1.2,0 -1.5,-1.7 -1.5,-9 0,-5 -0.4,-9 -0.8,-9 -0.5,0 -1.8,1 -3,2.2 -1.7,1.9 -2.2,3.8 -2.4,10.3 -0.2,4.4 -0.5,-12.3 -0.6,-37 z m 4.2,20.2 c 0.7,-1.1 0.6,-2 -0.3,-3.2 -2.1,-2.5 -3.1,-1.8 -3.1,2 0,3.8 1.5,4.3 3.4,1.2 z m 84.68,-9.2 c 1.61,-3.6 2.93,-7 2.93,-7.5 0,-0.7 -15.18,-1 -45.5,-1 l -45.51,0 0,3.2 c 0,2.4 1,4.2 4.2,7.5 l 4.2,4.3 38.39,0 38.35,0 2.94,-6.5 z m 78.45,-24.1 c 14.72,-15.1 26.56,-27.7 26.32,-27.9 -0.86,-0.9 -26.08,7.4 -28.07,9.2 -1.1,1 -8.74,8.8 -16.991,17.5 l -14.999,15.8 2.298,6.5 c 1.263,3.5 2.832,6.5 3.487,6.5 0.655,0 13.235,-12.4 27.955,-27.6 z m 59.71,19.8 c 5.3,-5.2 6.77,-7.3 6.77,-9.6 0,-3.1 -12.58,-27.6 -14.14,-27.6 -0.47,0 -0.86,9.9 -0.86,22 0,12.1 0.33,22 0.73,22 0.4,0 3.77,-3.1 7.5,-6.8 z m -137.23,-8 c 0,-0.4 -8.88,-9.6 -19.74,-20.5 l -19.74,-19.7 -24.73,0 -24.8,0 0,20.5 0,20.5 44.51,0 c 24.48,0 44.5,-0.4 44.5,-0.8 z m -52.01,-28.7 c 0,-0.9 0.7,-1.5 1.5,-1.5 0.8,0 1.5,0.6 1.5,1.5 0,0.8 -0.7,1.5 -1.5,1.5 -0.8,0 -1.5,-0.7 -1.5,-1.5 z m 201.29,4.7 c 2.08,-7 3.77,-13.3 3.75,-14 -0,-0.8 -1.43,-1.2 -3.78,-1.2 -5.73,0.1 -17.1,1.5 -17.81,2.2 -0.62,0.6 12.61,25.7 13.56,25.7 0.28,0 2.2,-5.7 4.28,-12.7 z m 20.61,-8.4 c 10.2,-10 18.8,-18.5 18.9,-19 0.2,-0.5 -4.1,-0.8 -9.5,-0.8 l -9.8,0 -5.8,5.8 c -5.5,5.6 -5.9,6.2 -9.71,18.7 -2.18,7.1 -3.97,13.1 -3.97,13.2 -0,1.2 3.66,-2.1 19.88,-17.9 z m -74.63,-8.9 c 7.24,-2.2 13.33,-4.2 13.54,-4.4 0.55,-0.6 -12.81,-16.5 -13.82,-16.5 -0.75,0 -13.98,23.1 -13.98,24.4 0,0.9 0.34,0.8 14.26,-3.5 z m 44.99,-0.5 c 3.17,-0.3 5.75,-0.9 5.75,-1.3 0,-0.6 -20.21,-9.1 -39.55,-16.6 -4.25,-1.6 -3.82,0.2 1.54,6.7 4.28,5.1 6.51,6.8 12.37,9.4 4.87,2.2 8.26,3.1 10.64,2.8 1.93,-0.2 6.09,-0.6 9.25,-1 z m 52.74,-24.9 0,-11.5 -11.5,0 -11.5,0 0,11.5 0,11.5 11.5,0 11.5,0 0,-11.5 z M 169.4,678 c 3.7,-0.4 7,-1 7.4,-1.3 0.7,-0.8 -11.8,-23.1 -13.2,-23.6 -0.6,-0.1 -2.5,5 -4.3,11.4 -1.8,6.4 -3.5,12.2 -3.8,13 -0.6,1.6 3.2,1.7 13.9,0.5 z m 153.1,-96.9 15.8,-15.8 -0.3,-24.4 -0.3,-24.4 -14.5,-5.8 c -8,-3.1 -15.3,-5.7 -16.2,-5.8 -1.7,0 -1.8,2.8 -1.8,46 0,25.3 0.4,46 0.8,46 0.4,0 7.8,-7.1 16.5,-15.8 z m 36.3,-21.8 c 7.1,-2 13.1,-3.8 13.3,-4 0.5,-0.5 -13.1,-17.4 -14,-17.4 -0.7,0 -13.9,23.2 -13.9,24.4 0,0.9 1.1,0.7 14.6,-3 z m -9.2,-14.8 c 4.8,-8.9 6.6,-13.4 6.6,-16 0,-3.7 -0.2,-3.9 -6.5,-6.7 -3.5,-1.6 -6.9,-2.9 -7.5,-2.9 -0.6,0 -1,6.7 -1,19 0,10.4 0.4,19 0.9,19 0.4,0 3.8,-5.6 7.5,-12.4 z m 6.6,-28.7 c 0,-3.6 -0.3,-4.1 -3.5,-5.6 -3.4,-1.7 -3.5,-1.6 -6,0.7 -1.4,1.3 -2.5,2.9 -2.5,3.5 0,1.2 8.1,5.2 10.8,5.4 0.8,0 1.2,-1.4 1.2,-4 z m 20,-2.3 14.5,-6.2 0.3,-4.2 c 0.2,-3 -0.1,-4.2 -1,-4.2 -0.7,0 -7.8,2.8 -15.8,6.3 l -14.5,6.2 -0.3,4.3 c -0.2,2.9 0.1,4.2 1,4.1 0.7,0 7.8,-2.8 15.8,-6.3 z m -34.3,-2.8 c 1.3,-1.2 2.3,-2.7 2.3,-3.3 0,-0.6 -2.6,-2.1 -5.7,-3.3 -3.2,-1.1 -10.2,-3.8 -15.5,-5.8 l -9.8,-3.8 -2.5,2.4 c -1.4,1.3 -2.5,2.8 -2.5,3.4 0,0.9 27.8,12.3 30.4,12.5 0.6,0 2,-0.9 3.3,-2.1 z m 14.3,-13.8 c 0,-8.8 -0.2,-10.1 -1.9,-11 -3.8,-2 -4.1,-1.3 -4.1,8.9 0,8.4 0.3,10.1 1.8,11 3.8,2.2 4.2,1.5 4.2,-8.9 z m 18.5,4.2 c 7.5,-3.1 13.5,-6.1 13.5,-6.7 0,-0.6 -2.8,-4.1 -6.3,-7.9 l -6.2,-6.8 -8,3.4 -8,3.5 -0.3,10.1 c -0.2,6.7 0.1,10.2 0.8,10.2 0.6,0 7.1,-2.6 14.5,-5.8 z m -27.5,-8.1 0,-10 -7.4,-3 c -4.1,-1.7 -7.8,-3.1 -8.2,-3.1 -1.2,0 -14.4,13.2 -14.4,14.4 0,1.1 25.2,11.3 28.3,11.5 1.5,0.1 1.7,-1 1.7,-9.8 z m 50,-1.1 c 1.2,-0.8 0.2,-2.3 -5.6,-8.1 -5.9,-5.9 -7.5,-7 -9.3,-6.5 -1.2,0.4 -2.1,1.1 -1.9,1.6 0.2,0.4 2.9,3.8 6.1,7.4 5.7,6.4 7.7,7.5 10.7,5.6 z m -41,-12 c 0,-2.3 -1,-2.6 -2.8,-0.8 -1.7,1.7 -1.5,2.8 0.8,2.8 1.3,0 2,-0.7 2,-2 z m 11.8,-0.7 c 6.1,-2.6 6.2,-2.7 6.2,-6.6 0,-3.8 -0.1,-4 -2.7,-3.4 -1.5,0.3 -4.9,1.4 -7.5,2.6 -4.6,1.9 -4.8,2.2 -4.8,6 0,4.9 0.5,4.9 8.8,1.4 z m -17.1,-2.5 c 1.3,-1.2 2.3,-2.7 2.3,-3.3 0,-0.7 -2.9,-2.2 -6.5,-3.5 l -6.6,-2.3 -2.4,2.3 c -1.4,1.3 -2.5,2.8 -2.5,3.4 0,1.1 9.2,5.3 11.9,5.5 0.8,0 2.5,-0.9 3.8,-2.1 z m 29.1,-3.5 c -0.4,-2.5 -2.8,-2.9 -2.8,-0.4 0,1.2 0.7,2.1 1.6,2.1 0.9,0 1.4,-0.7 1.2,-1.7 z m -46,-5.1 c 0.2,-0.7 -0.5,-1.2 -1.7,-1.2 -1.2,0 -2.1,0.6 -2.1,1.5 0,1.9 3.1,1.6 3.8,-0.3 z m 32,-0.9 c 8.2,-3 8.9,-3.7 12.3,-13.4 l 2.3,-6.6 -2.9,-7.9 -3,-7.9 -7.5,-3.7 c -4.1,-2.1 -8.2,-3.8 -9.2,-3.8 -0.9,0 -5.1,1.5 -9.3,3.4 l -7.6,3.5 -3.4,7.6 c -1.9,4.2 -3.5,8.3 -3.4,9.3 0,0.9 1.7,5 3.7,9.2 l 3.7,7.5 7,2.6 c 3.9,1.5 7.7,2.8 8.5,2.8 0.8,0 4.8,-1.1 8.8,-2.6 z m 21,-3.1 c 1.2,-3.2 2.2,-6.2 2.2,-6.7 0,-1.3 -4.2,-5.5 -5.5,-5.5 -0.6,0 -2.2,2.9 -3.4,6.5 l -2.3,6.6 2.3,2.4 c 1.2,1.4 2.7,2.5 3.3,2.5 0.6,0 2.1,-2.6 3.4,-5.8 z m 5.2,-13.2 c 0,-1.4 -0.7,-2 -2,-2 -2.3,0 -2.5,1 -0.8,2.8 1.8,1.7 2.8,1.4 2.8,-0.8 z m 0,-6.5 c 0,-0.8 -1.2,-4.1 -2.6,-7.5 -2.6,-5.9 -2.7,-6 -6.6,-6 -3.9,0 -4,0.1 -3.5,2.7 0.3,1.5 1.5,4.9 2.6,7.5 2,4.6 2.2,4.8 6.1,4.8 2.8,0 4,-0.5 4,-1.5 z m -7,-18.1 c 0,-0.9 -0.7,-1.5 -1.7,-1.3 -2.5,0.5 -2.8,2.9 -0.4,2.9 1.3,0 2.1,-0.7 2.1,-1.6 z m -7.3,-1.6 c 1.3,-1.2 2.3,-2.7 2.3,-3.3 0,-0.6 -3,-2.3 -6.7,-3.8 l -6.7,-2.7 -2.3,2.2 c -1.3,1.1 -2.3,2.6 -2.3,3.3 0,1 10,6.1 12.4,6.4 0.6,0 2,-0.9 3.3,-2.1 z m -28.2,-1.8 c 6.2,-2.8 6.5,-3.1 6.5,-6.5 0,-4.3 -0.7,-4.3 -8.6,-1.1 -5.7,2.3 -5.9,2.5 -6.2,6.5 -0.2,2.4 0.1,4.1 0.8,4.1 0.6,0 4,-1.4 7.5,-3 z m 46.9,-4.9 c 5.5,-5.6 6.7,-7.3 6.2,-9 -0.4,-1.2 -1,-2.1 -1.4,-2.1 -0.4,0 -3.8,3.1 -7.6,6.8 -5.5,5.6 -6.7,7.3 -6.1,9 0.3,1.2 1,2.2 1.4,2.2 0.3,0 3.7,-3.1 7.5,-6.9 z m -58.4,3.9 c 0,-1.1 -0.7,-2 -1.5,-2 -1.5,0 -2,2.1 -0.8,3.3 1.2,1.3 2.3,0.7 2.3,-1.3 z m 53.5,-11 c 4.3,-4.4 6.6,-7.4 6,-7.9 -1.2,-1.2 -27,-12.1 -28.4,-12.1 -0.7,0 -1.1,3.7 -1.1,10.4 l 0,10.4 7.3,3 c 4,1.7 7.7,3.1 8.2,3.1 0.6,0 4.2,-3.1 8,-6.9 z M 362,414 c 0.2,-0.6 -0.3,-1.1 -1.2,-1.1 -0.9,0 -1.6,0.7 -1.6,1.5 0,1.8 2.2,1.5 2.8,-0.4 z m 3.2,-14.6 c 0,-9.3 -0.2,-10.6 -1.9,-11.5 -3.8,-2 -4.1,-1.3 -4.1,9.4 0,8.9 0.3,10.6 1.8,11.5 3.9,2.3 4.2,1.5 4.2,-9.4 z m 50,9.6 c 0,-2.2 -4.4,-11.1 -5.4,-11.1 -0.7,0 -2.3,1.1 -3.6,2.5 -2.3,2.4 -2.3,2.6 -0.7,6 1.5,3.1 2.1,3.5 5.7,3.5 2.2,0 4,-0.4 4,-0.9 z m -11.3,-11.3 c 1.3,-1.2 2.3,-2.7 2.3,-3.3 0,-0.6 -6.7,-4 -15,-7.5 l -15,-6.3 -2.5,2.3 c -1.4,1.3 -2.5,2.8 -2.5,3.4 0,1 26.9,13.3 29.4,13.5 0.6,0 2,-0.9 3.3,-2.1 z m 9.8,-9.8 2.8,-2.9 -10.8,-25.3 c -5.9,-14 -11.5,-27.3 -12.5,-29.6 l -1.9,-4.2 -7,0 -7.1,0 0.2,25.7 0.3,25.7 15.5,6.7 c 8.5,3.7 16,6.8 16.6,6.8 0.6,0 2.3,-1.3 3.9,-2.9 z m -44.8,-5.2 c 1.3,-1.2 2.3,-2.7 2.3,-3.4 0,-1 -8.9,-5.4 -11.1,-5.4 -0.5,0 -0.9,1.7 -0.9,3.9 0,3.3 0.5,4.2 2.8,5.5 3.6,2 4.2,1.9 6.9,-0.6 z m 49.3,-8.6 c 0.1,-1 0.5,-5 1,-9 0.9,-6.8 0.8,-7.6 -2,-14.4 -1.6,-3.9 -3.3,-7.4 -3.7,-7.8 -6,-5.1 -14.5,-11.2 -14.9,-10.7 -0.8,0.7 17.6,43.7 18.7,43.7 0.5,0 0.9,-0.8 0.9,-1.8 z m -44,-21.7 c 0,-12.4 -0.3,-22.5 -0.7,-22.5 -0.4,0 -3.8,3 -7.5,6.7 l -6.8,6.7 0,12.8 0,12.9 6.3,2.9 c 3.4,1.6 6.8,2.9 7.5,2.9 0.9,0.1 1.2,-5.1 1.2,-22.4 z m 44.4,-27.1 c 2.1,-7.5 3.6,-13.8 3.3,-14.1 -0.8,-0.8 -24.8,12.7 -24.5,13.8 0.4,1 15.9,13.8 16.9,13.8 0.3,0 2.3,-6 4.3,-13.5 z m -14.7,-9.1 c 6.8,-3.6 12.3,-7 12.3,-7.5 0,-0.5 -11.9,-0.8 -26.5,-0.8 -14.6,0 -26.5,0.3 -26.5,0.7 0,0.4 3,3.8 6.7,7.5 l 6.8,6.8 7.4,0 c 7.3,0 7.7,-0.2 19.8,-6.7 z M 457.2,217 c 0,-0.5 -5.5,-3.8 -12.3,-7.5 l -12.4,-6.6 -24.2,0 -24.2,0 -2,4.7 c -1.1,2.6 -2.3,6 -2.6,7.5 l -0.5,2.8 39.1,0 c 21.5,0 39.1,-0.4 39.1,-0.9 z m 8.4,-2.9 c 0.3,-1 0.8,-6 1.2,-11.1 0.6,-7.9 0.5,-9.4 -0.7,-8.9 -0.8,0.2 -6.9,2 -13.7,3.8 -6.7,1.8 -12.1,3.8 -11.9,4.3 0.3,0.9 22.5,13.6 23.9,13.6 0.4,0.1 0.9,-0.7 1.2,-1.7 z m -25.2,-22 c 4.3,-4.2 7.8,-8 7.8,-8.5 0,-0.4 -10,-0.7 -22.2,-0.7 l -22.2,0 -7.8,7.7 c -4.3,4.2 -7.8,8.1 -7.8,8.5 0,0.4 10,0.8 22.2,0.8 l 22.3,0 7.7,-7.8 z m 15.8,1.2 c 9,-2.5 13.2,-4.2 15.2,-6.1 1.6,-1.5 2.8,-3.1 2.8,-3.5 0,-0.5 -4.4,-0.8 -9.7,-0.8 l -9.7,0 -6.3,6.2 c -5.9,5.8 -7.3,7.8 -5.5,7.8 0.4,-0.1 6.3,-1.6 13.2,-3.6 z"
         id="path3098"
         style="fill:#656cfe" />
    </g>
  </g>
</svg>
