<?xml version="1.0" encoding="UTF-8" standalone="no"?>
<!-- Created with Inkscape (http://www.inkscape.org/) -->

<svg
   xmlns:dc="http://purl.org/dc/elements/1.1/"
   xmlns:cc="http://creativecommons.org/ns#"
   xmlns:rdf="http://www.w3.org/1999/02/22-rdf-syntax-ns#"
   xmlns:svg="http://www.w3.org/2000/svg"
   xmlns="http://www.w3.org/2000/svg"
   version="1.1"
   width="1701"
   height="1212"
   id="svg2">
  <defs
     id="defs4" />
  <metadata
     id="metadata7">
    <rdf:RDF>
      <cc:Work
         rdf:about="">
        <dc:format>image/svg+xml</dc:format>
        <dc:type
           rdf:resource="http://purl.org/dc/dcmitype/StillImage" />
        <dc:title></dc:title>
      </cc:Work>
    </rdf:RDF>
  </metadata>
  <g
     transform="translate(623.6,-311.2)"
     id="layer1">
    <g
       transform="translate(-478.8,129.3)"
       id="g3088">
      <path
         d="m -144.6,1206 c 0,-27 0.2,-48 0.5,-47 0.5,1 8.7,5 10.9,5 2.5,0 16.4,-7 17,-9 0.8,-2 4.4,-2 4.4,0 0,2 2.6,2 17.51,2 14.89,0 17.5,0 17.5,1 0,2 -2.5,2 -16.5,2 -9.11,0 -16.51,0 -16.51,1 0,0 2.3,3 5.1,5 11.23,11 18.94,21 18.29,22 -0.5,2 -3.82,-1 -14.79,-13 l -14.2,-15 -6.7,3 c -3.7,2 -6.7,4 -6.7,4 0,1 8.4,10 18.6,19 16.23,16 19.83,20 17.26,21 -0.36,0 -8.96,-8 -19.16,-17 -10.2,-10 -18.8,-18 -19.1,-18 -0.3,0 -0.6,10 -0.6,22 l 0,22 14,14 c 12.1,12 16.2,18 13.3,18 -0.4,0 -5.8,-5 -12,-11 -6.2,-6 -11.4,-11 -11.7,-11 -0.3,0 1,6 3,12 2.7,9 3.2,11 2.2,12 -1.8,1 -2.8,1 -2.8,0 0.1,-2 -7.4,-27 -8,-27 -0.4,0 -2.7,4 -5.3,8 -3.6,7 -4.7,10 -4.7,13 l 0,5 4.8,0 c 2.6,1 6.1,1 7.7,2 2.9,1 2.9,1 -1.8,1 -2.6,1 -6.1,1 -7.7,1 -2.2,-1 -3,-1 -3.3,1 -0.3,1 -0.5,-21 -0.5,-48 z m 6.1,17 3.7,-7 0,-24 0,-24 -3.9,-2 c -2.2,-1 -4.2,-2 -4.5,-2 -0.3,0 -0.6,15 -0.6,33 0,18 0.4,33 0.8,33 0.4,0 2.4,-3 4.5,-7 z M 763.6,426.6 c 0.3,-1.2 0.6,-3.1 0.6,-4 0,-1 0.5,-1.6 1,-1.2 0.6,0.3 1,1.5 1,2.5 0,3.5 1.7,2.1 3.5,-2.8 1,-2.6 4.7,-11.8 8.3,-20.5 3.5,-8.7 6.2,-16.1 5.9,-16.4 -0.3,-0.3 -3.4,1.7 -6.8,4.6 -3.4,2.8 -6.3,5 -6.5,4.7 -1.3,-1.3 2.3,-6 8.5,-11 3.9,-3.1 7.1,-6.1 7.1,-6.7 0,-0.5 -1.8,-1.8 -4,-2.9 -2.7,-1.4 -4,-2.7 -4,-4.1 0,-1.2 0.4,-2 0.8,-1.8 0.4,0.2 3.5,1.8 6.9,3.6 l 6.3,3.3 29,0 29.1,0 3,-6.5 c 1.6,-3.6 2.9,-7 2.9,-7.5 0,-0.7 -13.1,-1 -39,-1 -34,0 -39,-0.2 -39,-1.5 0,-1.3 4.9,-1.5 38,-1.5 20.9,0 38,-0.4 38,-0.8 0,-0.4 -7.1,-7.8 -15.7,-16.5 l -15.8,-15.7 -21.2,0 c -18.5,0 -21.1,-0.2 -20.6,-1.5 0.4,-1.3 3.3,-1.5 16.9,-1.5 9,0 16.4,-0.4 16.4,-0.9 0,-1.7 -24.6,-14.1 -27.9,-14.1 -4,0 -3.7,-2.3 0.4,-3 2.6,-0.5 3.6,-2.4 15.3,-29.9 l 12.5,-29.3 -4.9,-4.9 c -2.6,-2.7 -5.3,-4.9 -5.9,-4.9 -0.6,0 -3.3,2.2 -6,5 -2.7,2.7 -5.2,5 -5.6,5 -1.5,0 0.6,-5.1 3.2,-7.6 3.6,-3.4 3.7,-4.4 0.4,-4.4 -1.5,0 -2.5,-0.6 -2.5,-1.5 0,-1.1 1.2,-1.5 4.5,-1.5 l 4.5,0 0,-11 0,-11 -3,0 c -2,0 -3,-0.5 -3,-1.5 0,-1.1 1,-1.5 3.3,-1.5 2.8,0 4.6,-1.4 12.5,-9.3 5.1,-5.1 9.2,-9.6 9.2,-10 0,-0.4 -4.4,-0.8 -9.7,-1 -5.4,-0.2 10,-0.3 34.2,-0.3 24.2,-0.1 41.7,0.1 38.8,0.3 l -5.3,0.4 0,24.9 0,25 3,0 c 2.8,0 3,0.2 2,1.9 -0.5,1.1 -1,2.3 -0.9,2.8 0.1,0.4 0.1,1.6 0,2.7 -0.1,1.8 -0.2,1.8 -2.4,-0.3 -1.3,-1.2 -2.7,-2.1 -3.3,-2.1 -1.3,0 -14.4,13.2 -14.4,14.5 0,0.6 3.2,4.1 7,8 6.3,6.2 7.2,6.8 9,5.7 2.4,-1.5 2.6,-0.6 1,4.2 -0.5,1.7 -1.6,5.1 -2.4,7.6 l -1.5,4.5 0,-5.3 -0.1,-5.2 -27.5,0 -27.5,0 -3.1,6.7 -3.1,6.8 27.2,26.5 c 20.5,20.1 27.1,27 27,28.8 0,2 -4.8,-2.3 -25.5,-22.4 -14.1,-13.6 -25.7,-24.5 -26,-24.3 -0.2,0.3 1.3,6.3 3.5,13.4 l 4,12.9 17.5,17.5 17.4,17.5 3.6,-1.7 c 4.4,-2.1 4.5,-2.1 4.5,0.1 0,1.1 -1.4,2.5 -3.5,3.5 -3,1.4 -4.2,3.1 -7,9.2 -1.9,4.2 -3.5,8.2 -3.5,9.1 0,0.8 1.8,5.3 4.1,10 3,6.4 3.9,9.2 3.4,11.4 -0.6,2.9 -3.1,4.7 -3.7,2.7 -0.3,-0.7 -1.5,-0.3 -3.3,1 -1.7,1.2 -4.1,2.4 -5.5,2.8 -2,0.6 -1.5,-0.3 2.9,-4.9 l 5.4,-5.5 -2.8,-6.6 c -1.5,-3.6 -3.3,-6.5 -3.9,-6.5 -0.6,0 -8.6,7.5 -17.7,16.6 -11.9,11.9 -17.8,17 -20.5,18 -3.3,1.1 -1.3,-1.2 14.9,-17.5 10.3,-10.2 18.7,-19 18.7,-19.4 0,-0.4 -12.2,-0.7 -27.2,-0.5 l -27.2,0.3 -5.3,12 c -2.9,6.6 -7.4,17.4 -9.9,24 -2.6,6.6 -5.2,12.5 -5.8,13.1 -0.6,0.6 -2.6,1.4 -4.5,1.7 -3.1,0.6 -3.3,0.5 -2.7,-1.6 z m 56.6,-110.3 c 0,-0.9 -8,-26.8 -8.5,-27.2 -0.6,-0.7 -16.6,13 -16.3,14 0.4,0.9 22.6,13.6 24.1,13.7 0.4,0 0.7,-0.2 0.7,-0.5 z m -15,-27.1 c 5.7,-4.7 7.4,-6.8 9.9,-12.4 2.9,-6.6 3,-7.2 2.1,-14.1 -0.5,-4.1 -0.9,-8.1 -1,-9.1 0,-4.5 -2.4,-0.2 -10.4,18.5 -8.1,19.1 -9.4,22.8 -8,22.8 0.3,0 3.6,-2.6 7.4,-5.7 z m 67,-21.1 c 0,-0.4 -3,-3.7 -6.7,-7.5 -5.3,-5.3 -7.4,-6.7 -9.7,-6.7 -2.9,0 -27.5,12.7 -27.6,14.2 0,0.4 9.9,0.8 22,0.8 12.1,0 22,-0.4 22,-0.8 z m -38.5,-7.6 c 6,-3.5 11.1,-6.7 11.2,-7.3 0.2,-0.5 -4.9,-2.4 -11.3,-4.2 -6.4,-1.8 -12.3,-3.6 -13.2,-3.9 -1.3,-0.5 -1.4,0.7 -0.8,9.2 0.8,9.8 1.3,12.6 2.5,12.5 0.3,0 5.5,-2.9 11.6,-6.3 z m 24.5,-43.6 0,-34 -15.2,0 -15.3,0 -10.2,10.2 c -5.7,5.6 -10.3,10.7 -10.3,11.2 0,0.6 10.2,11.3 22.8,23.8 18.6,18.7 23.2,22.8 25.5,22.8 l 2.7,0 0,-34 z m -15,30.2 c 0,-1 -36.2,-37.2 -37.2,-37.2 -0.4,0 -0.8,4.1 -0.8,9.2 l 0,9.3 6.3,6.2 c 6.1,6.1 6.6,6.4 17.7,9.7 12.4,3.6 14,4 14,2.8 z m 26.2,-7 6.8,-6.7 0,-25.3 0,-25.2 -7.5,0 -7.5,0 0,32 c 0,17.6 0.3,32 0.7,32 0.4,0 3.8,-3.1 7.5,-6.8 z"
         id="path3116"
         style="fill:#fdb2fe" />
    </g>
  </g>
</svg>
