<?xml version="1.0" encoding="UTF-8" standalone="no"?>
<!-- Created with Inkscape (http://www.inkscape.org/) -->

<svg
   xmlns:dc="http://purl.org/dc/elements/1.1/"
   xmlns:cc="http://creativecommons.org/ns#"
   xmlns:rdf="http://www.w3.org/1999/02/22-rdf-syntax-ns#"
   xmlns:svg="http://www.w3.org/2000/svg"
   xmlns="http://www.w3.org/2000/svg"
   version="1.1"
   width="1701"
   height="1212"
   id="svg2">
  <defs
     id="defs4" />
  <metadata
     id="metadata7">
    <rdf:RDF>
      <cc:Work
         rdf:about="">
        <dc:format>image/svg+xml</dc:format>
        <dc:type
           rdf:resource="http://purl.org/dc/dcmitype/StillImage" />
        <dc:title></dc:title>
      </cc:Work>
    </rdf:RDF>
  </metadata>
  <g
     transform="translate(623.6,-311.2)"
     id="layer1">
    <g
       transform="translate(-478.8,129.3)"
       id="g3088">
      <path
         d="m -144.6,1300 c -0.2,-37 0,-42 1.3,-42 2.4,1 10.6,-2 10.3,-4 -0.2,-1 1.2,-2 5.1,-3 l 5.3,-1 6.4,7 c 5.5,6 8,10 5.7,10 -0.4,0 -3.3,-3 -6.5,-6 l -5.7,-5 -10.5,3 -10.6,4 0,16 0,16 12.6,0 c 9.6,0 12.5,0 12.2,1 -0.3,1 -4,1 -12.6,2 l -12.2,0 0,7 0,8 10,0 c 8.4,0 9.9,0 9.4,1 -0.5,2 -2.6,2 -10,2 l -9.3,0 -0.3,13 c -0.2,7 -0.4,-6 -0.6,-29 z M 864,397.2 c -1,-0.3 -1.8,-1.4 -1.8,-2.5 0,-2.1 0.8,-2 7,0.4 2.4,0.9 2.4,1 0.5,1.8 -2.2,0.9 -3.1,1 -5.7,0.3 z m 32.2,-9.3 c 0,-0.5 1,-3.4 2.2,-6.6 l 2.2,-5.7 -2.3,-6.6 c -3.4,-9.6 -4.1,-10.4 -12.6,-14.1 -7,-3.1 -8,-3.3 -10.8,-2.1 -5.8,2.3 -6.7,2.4 -6.7,0.7 0,-0.9 1.1,-2.2 2.5,-2.8 3,-1.4 3.2,-2.9 0.5,-5.3 -1.1,-1 -2,-3 -2,-4.4 l 0,-2.5 2.8,2.7 c 1.6,1.5 3.1,2.7 3.5,2.7 0.3,0 0.7,-14.6 0.9,-32.3 0.2,-23.1 0.7,-32.8 1.5,-34.2 1,-1.6 1.3,5.3 1.3,34.3 l 0,36.3 6.5,2.9 c 3.6,1.6 6.9,3 7.5,3 0.7,0 1,-16 1,-48 0,-26.4 -0.3,-48 -0.7,-48 -0.4,0 -3.5,2.7 -6.8,6 -5.9,5.8 -6.1,5.9 -5.7,3.1 0.3,-1.8 2.3,-4.8 5.8,-8.2 3,-3 5.4,-5.9 5.4,-6.4 0,-0.6 -2,-3.1 -4.5,-5.5 -4,-4 -5.9,-8 -3.7,-8 0.4,0 3.4,2.7 6.7,6 4,4 6.7,6 8.4,6 2.7,0 27.1,-12.8 27.1,-14.2 0,-0.5 -9.5,-0.8 -21.1,-0.8 -16.4,0 -21,-0.3 -20.6,-1.3 0.3,-0.9 6.4,-1.3 25,-1.5 l 24.7,-0.3 1.4,-2.7 c 0.7,-1.5 1.9,-4.5 2.6,-6.6 l 1.2,-3.9 -18.3,-18.3 c -17.8,-17.8 -18.4,-18.4 -22.8,-18.7 -2.5,-0.2 14.7,-0.4 38.3,-0.3 33.4,0 43,0.3 43.4,1.3 0.3,1 -4,1.3 -19.2,1.3 -10.8,0 -19.6,0.3 -19.6,0.8 0,0.5 5.6,3.9 12.4,7.5 11.6,6.3 12.6,6.7 19,6.7 5.1,0 6.6,0.3 6.6,1.4 0,1.1 -1.6,1.5 -6.7,1.8 l -6.7,0.3 -12.3,29 c -6.7,15.9 -12.2,29.5 -12.2,30.1 -0.1,1.2 9.1,9.4 10.5,9.4 0.5,0 5,-4.2 10.1,-9.3 8.2,-8 9.3,-8.9 9.3,-6.7 0,1.8 -2,4.5 -7,9.5 -3.8,3.8 -7,7.3 -7,7.7 0,0.4 2.9,0.8 6.5,0.8 5.1,0 6.5,0.3 6.5,1.5 0,1.2 -1.6,1.5 -8.5,1.5 l -8.5,0 0,11.5 0,11.5 6.5,0 c 5.1,0 6.5,0.3 6.5,1.5 0,1.1 -1.4,1.5 -6.7,1.5 l -6.8,0 -27.4,27.4 -27.4,27.4 2.4,6.6 c 1.2,3.6 2.8,6.6 3.3,6.6 0.6,0 14.2,-13.1 30.2,-29.1 24.2,-24.2 29,-28.6 28.7,-26.2 -0.4,2.3 -6.7,9.2 -27.4,29.9 -14.8,14.7 -26.9,27.2 -26.9,27.6 0,0.4 8,0.8 17.8,0.8 23,0.2 19.5,2.1 -5.3,2.9 l -16.9,0.6 -2,5.2 c -1.2,2.9 -2.8,5.3 -3.8,5.6 -1,0.3 -1.8,0.1 -1.8,-0.3 z m 27.3,-60.8 c 13.6,-13.6 24.7,-25.3 24.7,-26 0,-0.7 -10.3,-11.6 -23,-24.2 -17.8,-17.8 -23.5,-23 -25.5,-23 l -2.5,0 0,49 c 0,26.9 0.3,49 0.8,49 0.4,0 11.8,-11.2 25.5,-24.8 z m 26.7,-41.1 0,-9.9 -6.5,-5.7 c -6,-5.3 -7.4,-6 -19.2,-9.6 -7,-2.1 -12.8,-3.8 -13,-3.6 -0.4,0.4 37.1,38.5 38,38.6 0.4,0 0.7,-4.4 0.7,-9.8 z m -14,-29.9 c -0.1,-5.7 -1.5,-17.1 -2.2,-17.8 -0.6,-0.6 -25.8,12.6 -25.8,13.6 0,0.7 23,7.7 25.8,7.8 1.9,0.1 2.2,-0.3 2.2,-3.6 z M 950,231.7 c 5.1,-12.1 9.1,-22.3 8.8,-22.6 -0.2,-0.2 -3.8,2.2 -8,5.3 -7,5.4 -7.7,6.3 -10.5,13.4 -2.8,7.1 -2.9,8 -2.1,15.1 0.5,4.1 0.9,8.2 1,9.2 0,1 0.4,1.8 0.8,1.8 0.4,0 5,-10 10,-22.2 z m 1.7,-22.5 c 4.7,-3.6 8.5,-7 8.5,-7.4 0,-1.1 -24,-14.2 -24.7,-13.6 -0.5,0.6 6.7,27.7 7.4,27.7 0.2,0 4.2,-3 8.8,-6.7 z m -14.5,0.9 c 0,-1.3 -6.9,-25.2 -7.5,-26.3 -0.7,-1.1 -20.5,-1.3 -20.5,-0.2 0,1 26.3,27.3 27.3,27.3 0.4,0 0.7,-0.4 0.7,-0.8 z"
         id="path3110"
         style="fill:#bec1fe" />
    </g>
  </g>
</svg>
