<?xml version="1.0" encoding="UTF-8" standalone="no"?>
<!-- Created with Inkscape (http://www.inkscape.org/) -->

<svg
   xmlns:dc="http://purl.org/dc/elements/1.1/"
   xmlns:cc="http://creativecommons.org/ns#"
   xmlns:rdf="http://www.w3.org/1999/02/22-rdf-syntax-ns#"
   xmlns:svg="http://www.w3.org/2000/svg"
   xmlns="http://www.w3.org/2000/svg"
   version="1.1"
   width="1701"
   height="1212"
   id="svg2">
  <defs
     id="defs4" />
  <metadata
     id="metadata7">
    <rdf:RDF>
      <cc:Work
         rdf:about="">
        <dc:format>image/svg+xml</dc:format>
        <dc:type
           rdf:resource="http://purl.org/dc/dcmitype/StillImage" />
        <dc:title></dc:title>
      </cc:Work>
    </rdf:RDF>
  </metadata>
  <g
     transform="translate(623.6,-311.2)"
     id="layer1">
    <g
       transform="translate(-478.8,129.3)"
       id="g3088">
      <path
         d="m -83.79,541.3 0,-6.4 -7.5,0 -7.5,0 0,5.5 c 0,7.4 -2.41,7 -2.81,-0.4 l -0.3,-5.1 -16.4,0 -16.5,0 0,2.9 c 0,1.6 -0.6,3.1 -1.5,3.4 -1.1,0.5 -1.5,-0.2 -1.5,-2.9 0,-3.1 -0.2,-3.4 -2.9,-3.4 -2.8,0 -3,0.3 -3.4,4.2 -0.2,2.3 -0.3,-15.3 -0.3,-39.2 l 0.1,-43.5 0.3,37.7 0.2,37.8 3,0 3,0 0,-37.5 c 0,-32.7 0.2,-37.5 1.5,-37.5 1.3,0 1.5,4.8 1.5,37.5 l 0,37.5 16.5,0 16.5,0 0,-36 c 0,-31.4 0.2,-36 1.5,-36 1.32,0 1.51,4.6 1.51,36 l 0,36 7.5,0 7.5,0 0,-32.7 0,-32.7 -3.19,-3.3 c -3.01,-3.1 -3.07,-3.3 -0.99,-3.3 1.22,0 3.09,0.5 4.17,1.2 1.69,1 2.41,0.8 5.24,-1.8 1.8,-1.7 4.51,-3.8 6.02,-4.8 1.52,-0.9 3.99,-2.4 5.5,-3.3 1.58,-1 0.1,1.1 -3.5,4.8 -3.43,3.5 -6.25,6.7 -6.25,7.1 0,0.4 13.73,0.8 30.5,0.8 16.78,0 30.5,-0.4 30.5,-0.8 0,-0.4 -3.04,-3.8 -6.77,-7.5 l -6.78,-6.7 -15.97,-0.1 c -14.37,-0.1 -15.68,-0.2 -12.98,-1.5 2.03,-0.9 7.15,-1.4 15.75,-1.4 l 12.75,0 0,-5 c 0,-3.8 0.37,-5 1.5,-5 1,0 1.5,1 1.5,3 0,1.6 0.32,3 0.72,3 0.39,0 2.53,-1.8 4.75,-4 2.22,-2.1 5.38,-4.2 7.03,-4.6 2.76,-0.6 2.46,-0.1 -3.75,6.2 -3.71,3.8 -6.75,7.4 -6.75,7.9 0,1.3 13.24,14.5 14.56,14.5 1.267,0 14.444,-13.3 14.444,-14.5 0,-0.6 -3.025,-4 -6.723,-7.8 -6.057,-6.1 -6.475,-6.7 -4.221,-6.7 1.752,0 4.435,1.9 8.956,6.5 l 6.453,6.5 38.461,-0.3 38.45,-0.2 2.31,-6 c 1.27,-3.3 2.31,-6.5 2.31,-7.3 0,-1 -8.86,-1.2 -44.25,-1.3 -35.24,0 -43.839,-0.2 -42.246,-1.2 1.467,-0.9 13.006,-1.3 43.246,-1.5 22.69,-0.2 41.25,-0.7 41.25,-1.1 0,-0.4 -3.13,-3.8 -6.96,-7.6 -5.52,-5.5 -6.73,-7.2 -5.83,-8.3 0.92,-1.1 2.81,0.3 9.88,7.4 l 8.75,8.7 6.55,-2.8 c 3.7,-1.6 6.6,-3.3 6.6,-3.9 0,-0.6 -4.8,-5.9 -10.63,-11.8 -8.13,-8.1 -10.48,-11.1 -9.96,-12.4 0.57,-1.5 2.61,0.1 11.41,8.9 5.88,5.9 11.08,10.7 11.48,10.7 0.4,0 0.7,-12.8 0.7,-28.5 l 0,-28.4 7.7,-13.8 c 4.2,-7.6 7.2,-13.9 6.6,-14.1 -0.6,-0.2 7.9,-9.2 19,-20.1 l 20,-19.8 -2.4,-6.7 c -1.3,-3.6 -2.8,-6.6 -3.4,-6.6 -0.5,0 -5.1,4.1 -10.3,9.2 -8.8,8.8 -9.2,9 -7.6,5.3 0.9,-2.2 4.2,-6.7 7.5,-10.1 3.3,-3.3 5.9,-6.3 5.9,-6.7 0,-0.4 -1.2,-0.7 -2.6,-0.7 -4.1,0 -1.1,-2.9 3.4,-3.2 3.4,-0.3 3.7,-0.7 5.9,-6.3 1.3,-3.3 2.2,-6.7 2.1,-7.5 -0.3,-1.8 2.6,-6.3 3.5,-5.4 0.9,0.8 13.7,-3.9 13.7,-5.1 0,-0.5 -1.7,-2.7 -3.7,-4.7 -2.9,-3 -3.4,-4.1 -2.5,-5 0.9,-1 1.9,-0.5 4.5,2 1.8,1.7 3.6,3.2 4,3.2 0.4,0 0.7,-4.3 0.7,-9.4 0,-7 0.4,-9.7 1.5,-10.6 1.3,-1.1 1.5,0.4 1.7,11.6 l 0.3,12.7 6,2.4 c 3.3,1.2 6.5,2.3 7.2,2.3 1,0 1.3,-5.8 1.3,-27.3 0.1,-21.7 0.4,-27.7 1.5,-29.7 1.3,-2.2 1.4,0.8 1.5,26.2 0,15.8 0.4,28.8 0.8,28.8 0.4,0 9.2,-8.5 19.6,-18.9 l 18.9,-18.9 -1.2,-3.4 c -0.6,-1.8 -3,-8.3 -5.4,-14.3 l -4.3,-11 -12,-0.6 c -10.4,-0.5 -9.2,-0.6 8.8,-0.7 l 20.7,-0.2 -1,3 c -1.3,3.5 -2,3.8 -1.6,0.7 0.2,-2 -0.3,-2.3 -5,-2.5 -4.2,-0.3 -5.3,0 -5.3,1.1 0,2.4 6.2,17.7 7.2,17.7 0.4,0 0.8,3 0.8,6.7 l 0,6.7 -20.1,20.2 -20.2,20.2 2.8,6.6 c 1.6,3.6 3.3,6.6 3.9,6.6 0.6,0 3.3,-2.2 6,-4.8 3.8,-3.7 4.5,-4 2.8,-1.6 -1.2,1.7 -3,5.2 -4.1,7.7 -1.1,2.6 -2.5,4.7 -3.1,4.7 -1.1,0 -7,11.8 -7,13.9 0,0.6 0.7,1.1 1.6,1.1 1,0 1.4,0.6 1.1,1.7 -0.3,1 -0.8,2.8 -1.2,4.1 l -0.7,2.3 -2.3,-2.2 -2.4,-2.2 -6.5,2.8 c -3.6,1.5 -6.6,3.3 -6.6,3.9 0,0.6 3.2,4.2 7,8.1 5,4.9 7,7.6 7,9.4 0,2.2 -0.9,1.7 -7.8,-5.2 -4.2,-4.3 -8.1,-7.7 -8.5,-7.7 -0.4,0 -0.7,12.1 -0.7,26.9 0,24.4 0.2,27.1 1.7,27.9 1.5,0.8 1.5,1.4 0.5,3.5 -0.7,1.6 -1.7,2.4 -2.5,2.1 -1.1,-0.4 -3.4,3 -8.2,11.6 -3.6,6.7 -6.4,12.4 -6.1,12.7 0.3,0.3 2.6,-0.2 5.1,-1.1 3.6,-1.2 4.5,-1.3 4.5,-0.2 0,2 -1.9,3.2 -8,4.9 -5.1,1.5 -6.8,2.9 -22.9,19 l -17.4,17.5 2.8,6.6 c 1.6,3.6 3.3,6.6 4,6.6 0.6,0 7.5,-6.5 15.2,-14.3 13.3,-13.5 13.9,-14 11.7,-9.3 -1.5,3.2 -5.9,8.5 -12.3,15 -5.6,5.6 -10.1,10.4 -10.1,10.8 0,0.4 2,0.8 4.5,0.8 3.3,0 4.5,0.4 4.5,1.5 0,1.1 -1.4,1.5 -6.5,1.5 l -6.6,0 -2.9,6.4 c -1.7,3.6 -3,7 -3,7.5 0,0.6 2.9,1.1 7,1.1 5.8,0 6.9,0.2 6.4,1.5 -0.4,1 -2.1,1.5 -6,1.5 -3,0 -5.4,0.3 -5.4,0.7 0,0.3 1.2,1.9 2.7,3.4 2.3,2.5 2.4,2.9 0.9,3.5 -1.2,0.4 -2.9,-0.5 -5.6,-3.1 l -3.8,-3.8 -6.6,2.3 c -3.6,1.3 -6.6,2.8 -6.6,3.4 0,0.5 1.8,2.9 4.1,5.1 3.7,3.8 3.9,4.2 2.1,4.7 -1.4,0.4 -2.9,-0.4 -4.8,-2.4 -1.5,-1.5 -3.1,-2.8 -3.5,-2.8 -0.4,0 -0.9,2.1 -1.1,4.6 -0.2,2.6 -0.8,4.9 -1.5,5.1 -1,0.3 -1.3,-1.4 -1.3,-6.7 l 0,-7.1 -4.7,-2 c -2.6,-1.2 -6.02,-2.3 -7.54,-2.6 l -2.75,-0.6 0,13.5 c 0,11.1 -0.26,13.7 -1.5,14.1 -1.28,0.5 -1.5,-1.3 -1.5,-12.4 0,-7.1 -0.34,-12.9 -0.76,-12.9 -0.42,0 -7.84,7.1 -16.5,15.7 -15.17,15.2 -15.74,15.9 -15.74,19.9 l 0,4 -4.55,0.1 -4.56,0.1 1.64,-2.5 c 0.9,-1.4 1.39,-2.8 1.1,-3 -0.6,-0.6 -22.17,5.1 -27.37,7.2 -3,1.3 -3.79,1.1 -10.72,-2.1 -7.394,-3.3 -7.556,-3.3 -15.753,-2.4 -4.556,0.5 -8.845,1 -9.537,1 -3.1,0 -0.67,1.9 5.754,4.5 3.8503,1.5 7,3.1 7,3.5 0,2.1 -4.642,1.3 -13.374,-2.3 l -9.73,-4.1 -4.95,4.9 c -2.72,2.7 -4.95,5.3 -4.95,5.9 0,0.5 1.44,2.5 3.2,4.3 3.19,3.3 3.2,3.3 0.75,3.3 -1.34,0 -3.41,0.2 -4.6,0.6 -1.78,0.4 -2.26,0 -2.83,-2.5 -0.37,-1.7 -0.97,-3.1 -1.32,-3.1 -1.71,0 -31.2,9.5 -31.2,10.1 0,0.3 1.43,1.2 3.18,1.9 l 3.17,1.3 -2.6,0.9 c -1.93,0.7 -3.63,0.4 -6.63,-1.2 -2.22,-1.1 -5.63,-2 -7.58,-2 l -3.54,0 0,5.9 c 0,4.3 -0.4,6 -1.5,6.4 -1.23,0.5 -1.5,-0.5 -1.5,-5.9 z m 40.88,-39.6 c 19.67,-19.4 30.74,-31 30.94,-32.5 l 0.32,-2.3 -34.57,0 -34.57,0 0,32.5 0,32.5 3.63,0 c 3.41,0 5.44,-1.8 34.25,-30.2 z M -48,523.9 c 12.52,-4 12.89,-4.2 19.03,-10.4 6.01,-6 6.41,-6.7 9.57,-17.2 1.81,-6 3.62,-12 4.02,-13.2 0.47,-1.4 0.32,-2.2 -0.42,-2.2 -1.38,0 -47.99,45.9 -47.99,47.2 0,0.6 0.69,0.7 1.52,0.4 0.83,-0.3 7.25,-2.4 14.27,-4.6 z m 99.31,-44.2 c 16.45,-16 29.9,-29.5 29.9,-30 0,-0.5 -16.2,-0.8 -36,-0.8 l -35.996,0 0,27.5 0,27.6 5.246,2.4 c 2.89,1.3 5.64,2.4 6.1,2.4 0.47,0 14.3,-13.1 30.75,-29.1 z m -7.1,23.6 12.5,-3.5 17.39,-17.3 17.38,-17.4 -2.38,-6.6 c -1.3,-3.7 -2.76,-6.6 -3.25,-6.6 -1.16,0 -55.64,53 -55.64,54.1 0,1.2 0.23,1.2 14,-2.7 z M -3.571,505 c 3.6934,-0.4 6.999,-1 7.345,-1.4 0.625,-0.6 -12.603,-25.7 -13.56,-25.7 -0.594,0 -8.094,24.9 -8.034,26.7 0,1.4 4.05,1.5 14.249,0.4 z m 9.785,-30.6 c 0,-11.9 -0.326,-21.5 -0.725,-21.5 -0.398,0 -3.773,3 -7.5,6.7 -4.675,4.6 -6.775,7.5 -6.775,9.1 0,2.7 12.758,27.2 14.146,27.2 0.47,0 0.854,-9.7 0.854,-21.5 z M 120.7,467 l 7,-2.6 3.7,-7.5 c 2.1,-4.2 3.7,-8.3 3.8,-9.2 0,-1 -1.5,-5.1 -3.4,-9.3 l -3.5,-7.6 -7.6,-3.5 c -4.2,-1.9 -8.4,-3.4 -9.3,-3.4 -0.9,0 -5.1,1.7 -9.2,3.8 l -7.49,3.7 -2.94,7.8 -2.95,7.8 2.4,7.1 c 1.32,3.9 3.1,7.9 3.95,8.9 1.69,2 13.33,6.7 16.53,6.7 1.1,0 5.2,-1.2 9,-2.7 z m 7.5,-85.6 c 0,-24.5 -0.4,-44.5 -0.8,-44.5 -0.5,0 -3.9,5.5 -7.5,12.3 l -6.7,12.3 0,29.3 0,29.2 6.3,2.9 c 3.4,1.6 6.8,2.9 7.5,2.9 0.9,0.1 1.2,-9.5 1.2,-44.4 z m 20.3,26.7 15.7,-15.7 0,-47.8 c 0,-26.2 -0.3,-47.7 -0.7,-47.7 -0.4,0 -7.9,7 -16.5,15.7 l -15.8,15.7 0,47.8 c 0,26.3 0.3,47.8 0.8,47.8 0.4,0 7.8,-7.1 16.5,-15.8 z m 27.1,-36.6 6.6,-12.3 0,-29.2 0,-29.3 -6.5,-2.9 c -3.5,-1.6 -6.9,-2.9 -7.5,-2.9 -0.6,0 -1,14.8 -1,44.5 0,24.4 0.4,44.5 0.9,44.5 0.4,0 3.8,-5.6 7.5,-12.4 z m 17.1,-78.1 7.6,-3.5 3.5,-7.6 c 1.9,-4.1 3.4,-8.3 3.4,-9.2 -0.1,-1 -1.7,-5.1 -3.8,-9.2 l -3.7,-7.5 -7.8,-3 -7.9,-2.9 -7.1,2.4 c -4,1.3 -8.1,3.3 -9.2,4.4 -1.1,1.2 -3.1,5.3 -4.5,9.2 l -2.4,7.2 3,7.8 2.9,7.9 7.5,3.7 c 4.1,2 8.3,3.7 9.2,3.7 0.9,0 5.1,-1.5 9.3,-3.4 z"
         id="path3096"
         style="fill:#fe8b18" />
    </g>
  </g>
</svg>
