<?xml version="1.0" encoding="UTF-8" standalone="no"?>
<!-- Created with Inkscape (http://www.inkscape.org/) -->

<svg
   xmlns:dc="http://purl.org/dc/elements/1.1/"
   xmlns:cc="http://creativecommons.org/ns#"
   xmlns:rdf="http://www.w3.org/1999/02/22-rdf-syntax-ns#"
   xmlns:svg="http://www.w3.org/2000/svg"
   xmlns="http://www.w3.org/2000/svg"
   version="1.1"
   width="1701"
   height="1212"
   id="svg2">
  <defs
     id="defs4" />
  <metadata
     id="metadata7">
    <rdf:RDF>
      <cc:Work
         rdf:about="">
        <dc:format>image/svg+xml</dc:format>
        <dc:type
           rdf:resource="http://purl.org/dc/dcmitype/StillImage" />
        <dc:title></dc:title>
      </cc:Work>
    </rdf:RDF>
  </metadata>
  <g
     transform="translate(623.6,-311.2)"
     id="layer1">
    <g
       transform="translate(-478.8,129.3)"
       id="g3088">
      <path
         d="m -144.4,1362 c 0,-10 0.2,-13 0.4,-6 0.1,6 0.6,11 1,11 0.5,0 1.3,-1 2,-1 0.9,-1 1,-1 0.2,2 -0.5,2 -1.3,4 -1.9,4 -0.5,1 -1.1,3 -1.3,5 -0.3,2 -0.4,-5 -0.4,-15 z M 966.2,367 c 0,-1.2 6.2,-16.8 13.7,-34.4 l 7.6,-17.8 -4.8,-5 c -2.7,-2.7 -5.4,-4.9 -5.9,-4.9 -0.6,0 -4.1,3 -7.8,6.7 -5.7,5.7 -6.8,6.4 -6.8,4.4 0,-1.3 1.9,-4.3 4.5,-7 2.5,-2.7 4.5,-5.1 4.5,-5.5 0,-0.3 -1.1,-0.6 -2.5,-0.6 -1.5,0 -2.5,-0.6 -2.5,-1.5 0,-1.1 1.2,-1.5 4.5,-1.5 l 4.5,0 0,-11.5 0,-11.5 -2.5,0 c -1.5,0 -2.5,-0.6 -2.5,-1.5 0,-1 1,-1.5 2.6,-1.5 3.6,0 11.1,-6.8 36.2,-33.1 l 21,-21.9 -2,-6.5 c -1,-3.6 -3,-6.5 -3,-6.5 -1,0 -13,11.8 -27.5,26.2 -21.7,21.7 -26.3,25.8 -26.3,23.7 0,-1.9 5.6,-8 24.5,-26.9 13.3,-13.5 24.3,-24.9 24.3,-25.3 0,-0.4 -9,-0.7 -20.3,-0.7 -17.4,0 -20.5,-0.3 -20.5,-1.5 0,-1.3 3.5,-1.5 22.8,-1.8 l 23,-0.2 2,-6 c 1,-3.3 2,-6.5 2,-7.3 0,-1 -5,-1.2 -23,-1.2 -20.7,0 -23.6,-0.2 -23.1,-1.5 0.5,-1.3 6.4,-1.5 46.1,-1.4 25,0 45,0.3 44,0.6 -2,0.6 -2,1 1,8.4 3,6.1 3,6.7 2,13 -1,3.7 -2,8.1 -3,9.9 -1,2.5 -1,3.3 0,3.9 1,0.5 1,2 1,4.5 l -1,3.7 -2,-2.2 -3,-2.2 -6,2.8 c -4,1.5 -7,3.2 -7,3.8 0,0.6 4,5 9,9.8 7,6.7 8,9 8,10.2 -1,1.4 -3,0.1 -10,-6.8 -4,-4.7 -9,-8.5 -9,-8.5 0,0 -1,16.2 -1,36 l 0,36 6,0 c 5,0 6,0.3 6,1.5 0,1 -1,1.5 -4,1.5 -2,0 -4,0.3 -4,0.7 0,0.4 2,2.1 3,3.9 3,2.3 3,3.6 3,4.8 -1,1.3 -2,0.8 -6,-2.9 -2,-2.5 -5,-4.5 -5,-4.5 -2,0 -15,13.2 -15,14.5 0,0.6 3,4.1 7,8 7,6.2 7,6.8 9,5.7 2,-1.3 3,-0.7 1,1.5 -1,2.9 -8,3.7 -33,4.2 l -26.2,0.6 -2.5,5.8 c -1.9,4.6 -2.2,6.2 -1.3,7.6 1.3,2.2 0.7,3.1 -2.4,3.1 -1.3,0 -4.7,0.9 -7.6,2 l -5.3,2.1 3.9,-3.3 c 2.2,-1.8 4.5,-3.8 5.2,-4.3 0.7,-0.6 2.6,-4.4 4.3,-8.5 2.9,-7.1 3,-7.9 2.1,-14.5 -0.5,-3.9 -0.9,-7.8 -1,-8.8 0,-1 -0.4,-1.7 -0.9,-1.7 -0.9,0 -10.7,22.4 -15.6,35.6 -1.8,4.9 -3.3,7.3 -4.6,7.7 -1,0.2 -1.9,0.2 -1.9,-0.2 z m 78.8,-26.9 c 0,-0.4 -3,-3.7 -7,-7.5 -4,-4.6 -7,-6.7 -9,-6.7 -2,0 -27,12.7 -27,14.1 0,0.5 10,0.9 22,0.9 12,0 21,-0.4 21,-0.8 z m -38,-7.6 c 6,-3.5 12,-6.8 12,-7.3 0,-0.5 -5,-2.5 -12,-4.3 -7,-1.8 -12.9,-3.6 -13.7,-3.9 -1.2,-0.4 -1.3,1.1 -0.7,9.3 0.8,9.8 1.3,12.6 2.5,12.5 0.3,0 5.9,-2.8 11.9,-6.3 z m 24,-58.6 c 0,-27 0,-49 0,-49 -1,0 -50.8,50.2 -50.8,51 0,0.2 10.5,10.9 22.8,23.7 17,16.6 24,23.3 26,23.3 l 2,0 0,-49 z m -14,45.2 c 0,-1 -37,-38.2 -38,-38.2 -0.4,0 -0.8,4.4 -0.8,9.7 l 0,9.8 6.3,6.2 c 6.1,6.1 6.5,6.3 18.5,9.7 13,3.6 14,4 14,2.8 z m 25,-7 7,-6.7 0,-38.3 0,-38.4 -6,-2.9 c -4,-1.6 -7,-2.9 -8,-2.9 0,0 -1,15.9 -1,48 0,26.4 1,48 1,48 0,0 4,-3.1 7,-6.8 z m 18,-90.7 7,-3.5 4,-7.6 c 2,-4.1 3,-8.2 3,-8.9 0,-2.9 -7,-16.4 -9,-17.5 -1,-0.6 -7,-1 -15,-1 -15,0 -16,0.3 -20,11.6 l -2,7.2 3,7.8 3,7.9 7,3.7 c 4,2 8,3.7 9,3.7 1,0 6,-1.5 10,-3.4 z"
         id="path3114"
         style="fill:#d4fecb" />
    </g>
  </g>
</svg>
