<?xml version="1.0" encoding="UTF-8" standalone="no"?>
<!-- Created with Inkscape (http://www.inkscape.org/) -->

<svg
   xmlns:dc="http://purl.org/dc/elements/1.1/"
   xmlns:cc="http://creativecommons.org/ns#"
   xmlns:rdf="http://www.w3.org/1999/02/22-rdf-syntax-ns#"
   xmlns:svg="http://www.w3.org/2000/svg"
   xmlns="http://www.w3.org/2000/svg"
   version="1.1"
   width="1701"
   height="1212"
   id="svg2">
  <defs
     id="defs4" />
  <metadata
     id="metadata7">
    <rdf:RDF>
      <cc:Work
         rdf:about="">
        <dc:format>image/svg+xml</dc:format>
        <dc:type
           rdf:resource="http://purl.org/dc/dcmitype/StillImage" />
        <dc:title></dc:title>
      </cc:Work>
    </rdf:RDF>
  </metadata>
  <g
     transform="translate(623.6,-311.2)"
     id="layer1">
    <g
       transform="translate(-478.8,129.3)"
       id="g3088">
      <path
         d="m -101.8,454.4 0,-5.5 -16.5,0 -16.5,0 0,4 c 0,2.9 -0.4,4 -1.5,4 -0.8,0 -1.5,-0.9 -1.5,-2 0,-1.1 -0.4,-2 -0.8,-2 -0.5,0 -1.7,0.9 -2.7,2 -1,1.1 -2.2,2 -2.6,2 -0.5,0 -0.9,-22.2 -0.9,-49.3 l 0,-49.3 8.8,0.7 c 14.1,1.1 15.9,2.7 3,2.8 l -10.8,0.1 0,11 0,11 30,0 30.01,0 0,-11 0,-11 -11.25,-0.1 c -10.26,0 -11.06,-0.1 -8.76,-1.4 1.6,-1 5.57,-1.5 11.26,-1.5 8.08,0 8.75,-0.2 8.75,-2 0,-1.1 0.67,-2 1.5,-2 0.84,0 1.5,0.9 1.5,2 0,1.8 0.67,2 7.5,2 l 7.5,0 0,-3.5 c 0,-2.5 0.46,-3.5 1.5,-3.5 1.05,0 1.5,1 1.5,3.5 l 0,3.5 16.45,0 16.45,0 0.3,-5.7 c 0.43,-8.2 2.8,-8.5 2.8,-0.4 l 0,6.1 7.5,0 7.5,0 0,-11.8 c 0,-8.7 0.4,-12.2 1.5,-13.7 1.31,-1.7 1.464,-0.5 1.464,11.8 l 0,13.7 3.756,0 c 3.593,0 5.0753,-1.4 34,-30.3 24.96,-25 30.24,-30.7 30.24,-33 l 0,-2.7 -12.19,0 c -10.93,0 -11.99,-0.2 -10.25,-1.5 1.34,-1 4.53,-1.5 10.19,-1.5 4.54,0 8.25,-0.3 8.25,-0.7 0,-0.3 -1.37,-2.1 -3.04,-4 -2.43,-2.8 -2.81,-3.8 -1.88,-4.9 0.97,-1.2 1.85,-0.7 5.13,3.1 2.18,2.4 4.5,4.5 5.16,4.5 1.39,0 14.63,-13.1 14.63,-14.5 0,-0.5 -1.66,-2.7 -3.7,-4.7 -2.89,-3 -3.43,-4.1 -2.49,-5 0.94,-1 2.25,-0.2 5.98,3.5 l 4.78,4.7 35.32,0 c 31.3,0 35.2,0.1 34.1,1.5 -1,1.2 -6.2,1.5 -35.1,1.5 l -33.89,0 0,27.5 0,27.5 6.52,3.2 6.52,3.2 24.05,-24 c 20.3,-20.1 23.8,-23.3 22.5,-19.9 -1.2,2.7 -7.4,9.7 -19.8,22.2 -10,10 -18,18.4 -17.7,18.7 0.3,0.2 5.6,-1.1 11.8,-3 6.3,-1.9 11.6,-3.3 11.8,-3.1 1.3,1.3 -6.1,5 -16.1,8.1 -6.6,2 -12.13,3.8 -12.37,4 -0.23,0.2 2.77,4.2 6.57,8.8 5.7,6.8 6.9,8.9 6.5,11 l -0.5,2.5 -13.63,-6 C 83.54,350 53.01,337.9 51.68,337.9 c -1.19,0 -10.47,8.3 -10.47,9.4 0,0.6 10.37,11.4 23.05,24.1 18.05,18.1 22.89,23.5 22.35,24.9 -0.55,1.4 -4.62,-2.2 -21.5,-19 C 53.66,365.8 44,356.7 43.64,357.1 c -0.36,0.4 1.45,6.6 4.01,13.9 l 4.66,13.2 11.95,12.3 c 6.57,6.8 11.95,12.7 11.95,13.3 0,3.2 -3.32,0.8 -14.1,-10.4 l -12.14,-12.5 -29.38,0 -29.376,0 0,20.5 0,20.5 8.7503,0 8.7497,0 -4,1.5 c -2.2,0.8 -5.1997,1.4 -6.666,1.4 -1.467,0.1 -2.817,0.5 -3,0.9 -0.184,0.5 -2.934,1.1 -6.108,1.4 l -5.78,0.4 2.53,-2.6 2.52,-2.6 0,-20.7 0,-20.7 -7.5,0 -7.5,0 0,24.5 c 0,21.1 -0.2,24.5 -1.5,24.5 -1.29,0 -1.5,-3.4 -1.5,-24.5 l 0,-24.5 -16.5,0 -16.5,0 0,29.5 0,29.5 3.75,0 3.75,0 -5.74,2.4 c -3.16,1.3 -6.99,3.3 -8.5,4.3 -5.23,3.6 -5.74,3.5 -2.01,-0.4 2.07,-2.1 3.75,-4.4 3.75,-4.9 0,-1.3 -13.25,-14.4 -14.55,-14.4 -1.27,0 -14.45,13.2 -14.45,14.5 0,0.5 2.58,3.5 5.72,6.7 5.28,5.3 5.53,5.8 3.2,5.8 -1.57,0 -3.8,-1.4 -5.92,-3.5 -1.86,-2 -3.75,-3.5 -4.19,-3.5 -0.44,0 -0.81,1.5 -0.81,3.5 0,2.4 -0.45,3.5 -1.51,3.5 -1.1,0 -1.5,-1.3 -1.5,-5.5 z m -38.6,-5.8 c 0.7,-1.1 0.6,-2 -0.3,-3.2 -2.1,-2.5 -3.1,-1.8 -3.1,2 0,3.8 1.5,4.3 3.4,1.2 z m 45.84,-9.5 c 3.73,-3.7 6.77,-7 6.77,-7.5 0,-0.4 -12.61,-0.7 -28.01,-0.7 l -28,0 0,3.2 c 0,2.4 1,4.2 4.2,7.5 l 4.2,4.3 17,0 17.1,0 6.74,-6.8 z m 28.77,-24.7 0,-27.5 -7.5,0 -7.5,0 0,20.7 0,20.7 6.73,6.8 c 3.7,3.7 7.07,6.8 7.5,6.8 0.42,0 0.77,-12.4 0.77,-27.5 z m -18,-7 0,-20.5 -30.01,0 -30,0 0,20.5 0,20.5 30,0 30.01,0 0,-20.5 z m 18,-34.5 0,-11 -7.5,0 -7.5,0 0,11 0,11 7.5,0 7.5,0 0,-11 z m 36,0 0,-11 -16.5,0 -16.5,0 0,11 0,11 16.5,0 16.5,0 0,-11 z m 18,0 0,-11 -7.5,0 -7.5,0 0,11 0,11 7.5,0 7.5,0 0,-11 z m 52,10.2 c 0,-0.4 -9.22,-5.4 -20.5,-11 C 3.98,364.2 -1.729,361.9 -4.792,361.9 l -3.994,0 0,11 0,11 24.496,0 c 13.48,0 24.5,-0.4 24.5,-0.8 z m 6.75,-3.5 c -0.25,-0.7 -2.67,-7.6 -5.36,-15.5 -2.68,-7.8 -5.19,-14.2 -5.56,-14.2 -1.58,0 -29.826,10.2 -29.826,10.8 0,0.9 38.046,20 39.856,20.1 0.75,0 1.15,-0.5 0.89,-1.2 z M 23.58,350.3 c 11.88,-4.1 13.73,-5.1 19.4,-10.3 l 6.26,-5.6 3.56,-12.9 c 1.95,-7.1 3.28,-13.1 2.95,-13.4 -0.65,-0.7 -46.536,44.7 -46.536,46 0,1.2 0.339,1.1 14.366,-3.8 z m 79.62,3 c 0,-0.4 -2.3,-3.4 -5.09,-6.8 -3.87,-4.6 -6.87,-7 -12.34,-9.8 l -7.22,-3.7 -8.34,1.2 c -4.58,0.6 -8.5,1.7 -8.7,2.3 -0.2,0.6 4.72,3 10.92,5.4 6.21,2.4 15.11,6 19.78,8.1 8.39,3.7 10.99,4.5 10.99,3.3 z M 65.21,331.7 c 4.68,-0.6 8.88,-1.5 9.34,-1.9 0.9,-0.8 -11.34,-23.1 -12.98,-23.7 -0.54,-0.1 -2.48,5.2 -4.32,12 -1.83,6.7 -3.54,12.8 -3.79,13.5 -0.57,1.6 0.95,1.6 11.75,0.1 z m 12,-30.8 c 0,-12.1 -0.32,-22 -0.72,-22 -0.4,0 -3.77,3 -7.5,6.7 -5.32,5.3 -6.78,7.3 -6.78,9.7 0,2.9 12.72,27.5 14.25,27.5 0.42,0.1 0.75,-9.8 0.75,-21.9 z m -1,-45.5 c 1.07,-1.3 7.07,-1.5 42.59,-1.5 22.8,0 41.4,-0.4 41.4,-0.8 0,-0.4 -8.6,-9.4 -19.2,-20 l -19.3,-19.2 -10.4,-0.3 c -7.2,-0.2 -10.5,-0.6 -10.8,-1.5 -0.3,-0.9 1.2,-1.2 5.6,-1.2 3.4,0 6.1,-0.4 6.1,-0.9 0,-0.4 -2.7,-2.1 -6,-3.6 -4.1,-2 -6,-3.5 -6,-4.7 0,-1 0.2,-1.8 0.5,-1.8 0.3,0 4.3,1.9 9,4.2 4.6,2.3 8.7,3.9 9,3.6 0.3,-0.3 -1.4,-6 -3.7,-12.6 l -4.3,-12.1 -4.5,-0.4 c -2.5,-0.2 19.6,-0.4 49,-0.4 29.4,0 52.3,0.1 50.8,0.4 -2.6,0.4 -2.8,0.7 -2.8,5.1 0,2.6 -0.7,5.8 -1.5,7.2 -1.3,2.3 -1.4,2 -1.5,-4.8 l 0,-7.2 -7.5,0 -7.5,0 0,19.3 c 0,16 -0.2,19.6 -1.5,20.7 -1.3,1.1 -1.5,-1.2 -1.5,-19.4 l 0,-20.6 -30,0 c -16.5,0 -30,0.1 -29.9,0.2 0,0.1 11.7,12.1 26,26.7 21,21.4 25.7,26.6 24.8,27.7 -1,1.2 -5.5,-2.9 -24.4,-22.3 -22.8,-23.4 -32.1,-32.1 -33.1,-31 -0.3,0.3 1.5,6.6 4.1,13.9 l 4.7,13.4 19.9,19.9 c 11,11 19.9,20.4 19.9,21 0,0.7 -0.8,1.9 -1.8,2.8 -1.7,1.5 -6.2,1.7 -44.6,1.7 -37.96,0 -42.69,-0.2 -41.59,-1.5 z"
         id="path3100"
         style="fill:#fefb00" />
    </g>
  </g>
</svg>
