<?xml version="1.0" encoding="UTF-8" standalone="no"?>
<!-- Created with Inkscape (http://www.inkscape.org/) -->

<svg
   xmlns:dc="http://purl.org/dc/elements/1.1/"
   xmlns:cc="http://creativecommons.org/ns#"
   xmlns:rdf="http://www.w3.org/1999/02/22-rdf-syntax-ns#"
   xmlns:svg="http://www.w3.org/2000/svg"
   xmlns="http://www.w3.org/2000/svg"
   version="1.1"
   width="1701"
   height="1212"
   id="svg2">
  <defs
     id="defs4" />
  <metadata
     id="metadata7">
    <rdf:RDF>
      <cc:Work
         rdf:about="">
        <dc:format>image/svg+xml</dc:format>
        <dc:type
           rdf:resource="http://purl.org/dc/dcmitype/StillImage" />
        <dc:title></dc:title>
      </cc:Work>
    </rdf:RDF>
  </metadata>
  <g
     transform="translate(623.6,-311.2)"
     id="layer1">
    <g
       transform="translate(-478.8,129.3)"
       id="g3088">
      <path
         d="m -144.5,592.9 c 0.1,-27.8 0.3,-47.1 0.5,-42.8 l 0.3,7.8 2.9,0 2.9,0 0.3,-8.2 c 0.2,-5.4 0.7,-8.3 1.6,-8.6 0.9,-0.3 1.2,1.8 1.2,8.2 l 0,8.6 16.5,0 16.5,0 0,-6.5 c 0,-5.3 0.3,-6.4 1.5,-5.9 1.11,0.4 1.51,2.2 1.51,6.5 l 0,5.9 7.45,0 7.45,0 0.3,-5.2 c 0.43,-7.4 2.8,-7.8 2.8,-0.4 l 0,5.6 25,0 c 13.75,0 25,-0.4 25,-0.8 0,-0.4 -7.62,-4.6 -16.93,-9.2 -9.32,-4.6 -16.72,-8.8 -16.44,-9.2 1.14,-1.9 5.29,-0.4 21.49,7.7 9.41,4.7 17.28,8.4 17.51,8.2 0.22,-0.3 -1.48,-5.7 -3.77,-12.2 -4.62,-12.9 -4.53,-13.5 2.14,-13.5 3.29,-0.1 5.38,1.8 33.563,30.4 16.527,16.8 30.377,30.6 30.767,30.6 0.39,0 0.59,-12.5 0.44,-27.7 l -0.27,-27.7 -18,-7.3 c -9.896,-4 -18.671,-7.6 -19.4957,-7.9 -1.1567,-0.5 -0.9573,-0.8 0.8717,-1.6 1.879,-0.7 4.989,0.2 15.004,4.3 6.94,2.8 13.19,5.3 13.87,5.6 2.54,1 1.13,-2.2 -3.31,-7.4 -4.12,-4.8 -4.95,-7.3 -2.41,-7.3 0.51,0 3.89,3.6 7.54,8 3.64,4.4 6.99,8 7.45,8 0.46,0 3.15,-4.1 5.98,-9 3.72,-6.5 5.7,-9 7.11,-9 2.25,0 2.52,-0.7 -6.03,14.5 l -5.07,9 0,29.8 -0,29.8 3.25,1.3 c 1.79,0.7 4.15,1.6 5.25,2 1.92,0.7 1.91,0.8 -0.35,1.7 -1.52,0.6 -3.74,0.5 -6.22,-0.3 -3.41,-1 -4.72,-0.8 -11.49,1.7 -5.76,2.1 -8.07,3.5 -9.42,5.7 -0.98,1.6 -2.82,3.6 -4.08,4.5 -2.17,1.5 -2.25,1.5 -1.48,-0.3 0.44,-1.1 1.02,-3 1.29,-4.2 l 0.49,-2.2 -47.62,0 c -26.19,0 -47.62,0.3 -47.62,0.7 0,0.5 3.05,3.8 6.78,7.5 l 6.77,6.8 35.35,0 c 31.308,0 35.207,0.1 34.104,1.5 -1.061,1.2 -6.2287,1.5 -35.124,1.5 l -33.88,0 0,3.5 c 0,2.4 -0.45,3.5 -1.5,3.5 -0.82,0 -1.5,-0.7 -1.5,-1.5 0,-2.2 -1.32,-1.9 -4.02,1 -3.95,4.2 -11.02,7.6 -19.93,9.6 -6.91,1.5 -12.56,1.9 -31.16,1.9 -20.8,0 -22.8,0.1 -23.2,1.7 -0.2,1 -0.4,-21 -0.4,-48.7 z m 56.71,43.2 c 0,-0.4 -3.02,-3.7 -6.72,-7.5 l -6.69,-6.7 -17,0 -17,0 -4.3,4.2 c -3.3,3.2 -4.3,4.9 -4.3,7.5 l 0,3.3 28,0 c 15.4,0 28.01,-0.4 28.01,-0.8 z m 13.23,-8 c 3.73,-3.7 6.77,-7.1 6.77,-7.7 0,-1.3 -13.14,-14.5 -14.44,-14.5 -1.32,0 -14.56,13.1 -14.56,14.4 0,1.3 13.15,14.6 14.45,14.6 0.55,0 4.05,-3.1 7.78,-6.8 z m -65.84,-6.5 c 0.7,-1.1 0.6,-2 -0.3,-3.2 -2.1,-2.5 -3.1,-1.8 -3.1,2 0,3.8 1.5,4.3 3.4,1.2 z m 38.6,-31.7 0,-29 -16.5,0 -16.5,0 0,29 0,29 16.5,0 16.5,0 0,-29 z m -36,-2 0,-27 -3,0 -3,0 0,24.6 c 0,24 0.1,24.8 2.2,27 1.2,1.3 2.5,2.4 3,2.4 0.4,0 0.8,-12.2 0.8,-27 z m 47.24,20.2 6.77,-6.7 0,-20.3 0,-20.2 -7.5,0 -7.5,0 0,27 c 0,14.8 0.33,27 0.73,27 0.4,0 3.77,-3.1 7.5,-6.8 z m 106.77,-8 c 0,-0.4 -8.662,-9.4 -19.255,-20 l -19.255,-19.2 -29.25,0 -29.24,0 0,20 0,20 48.5,0 c 26.679,0 48.5,-0.4 48.5,-0.8 z m 12.78,-2.5 c 3.52,-1.3 6.15,-2.8 6,-3.4 -0.36,-1.6 -50.32,-52.9 -57.35,-58.9 -3.01,-2.6 -5.74,-4.5 -6.06,-4.1 -0.32,0.3 1.51,6.5 4.07,13.9 l 4.65,13.3 20.701,20.7 c 11.379,11.4 20.929,20.8 21.209,20.8 0.28,0 3.33,-1.1 6.78,-2.3 z m 27.22,-43.8 c 0,-37.5 0.19,-42.9 1.5,-42.9 1.31,0 1.5,5.3 1.5,42.4 0,36.7 -0.2,42.4 -1.5,42.9 -1.31,0.5 -1.5,-4.6 -1.5,-42.4 z m 21.25,26.3 14.73,-14.7 0.26,-34.5 c 0.2,-26.4 0.55,-34.5 1.51,-34.8 0.99,-0.3 1.25,6.2 1.25,30.2 0,16.8 0.39,30.6 0.86,30.6 0.47,0 3.84,-5.6 7.53,-12.4 l 6.6,-12.3 0,-22.1 c 0,-18.5 0.2,-22.1 1.5,-22.6 1.3,-0.5 1.5,2.6 1.7,22.1 l 0.3,22.7 21.8,9.1 c 20,8.4 23.4,10.5 17.1,10.5 -0.8,0 -8.4,-3 -17,-6.6 -8.6,-3.6 -15.8,-6.3 -16.1,-6.1 -0.3,0.3 2.1,3.8 5.2,7.9 4.2,5.4 6.9,7.8 10.4,9.3 4.1,1.9 4.4,2.2 2.7,3.1 -1.3,0.8 -2.7,0.8 -4.6,0 -2.7,-1 -3.4,-0.4 -19,14.6 -9.7,9.3 -17.19,15.8 -18.7,16 -1.9,0.4 1.05,-3.1 11.8,-13.8 7.9,-7.9 14,-14.6 13.7,-15 -0.3,-0.3 -6.4,1 -13.4,3 l -12.79,3.5 -13.56,13.5 c -10.1,10.1 -14.19,13.6 -16.04,13.6 -2.08,0 -0.12,-2.4 12.25,-14.8 z m 35.34,-20.8 c 7.1,-2 13.1,-3.8 13.3,-4 0.5,-0.5 -13.1,-17.4 -14,-17.4 -0.7,0 -13.89,23.2 -13.89,24.4 0,0.9 1.13,0.7 14.59,-3 z m 37.6,-45.7 c -16,-16.1 -29.2,-29.6 -29.2,-30 0,-3.3 7.4,3.1 32.3,28.1 23.1,23.1 28.6,29 27.5,29.9 -1.1,0.9 -7.3,-4.7 -30.6,-28 z m 33.8,15.7 0,-7.8 -23.5,-23.2 c -17.2,-17.1 -23,-23.4 -21.9,-23.8 1.8,-0.7 17.9,13.8 35.4,32 6,6.3 11.3,11.4 11.7,11.4 0.5,0 7.1,-6.3 14.8,-14 7.6,-7.7 14.1,-13.8 14.2,-13.7 1.3,1.4 -4.2,8.8 -13.1,17.6 -5.8,5.8 -10.6,10.9 -10.6,11.3 0,0.4 3.4,0.8 7.5,0.8 6.2,0 7.4,0.2 6.9,1.5 -0.5,1.1 -2.5,1.5 -9.5,1.5 l -8.9,0 0,5.8 c 0,4 -0.5,6.3 -1.5,7.2 -1.3,1.1 -1.5,0.2 -1.5,-6.6 z m -37.7,-63.7 c 0.3,-1 9.6,-1.3 41,-1.5 35.9,-0.2 40.6,-0.1 40.1,1.3 -0.5,1.3 -5.9,1.5 -41.1,1.5 -31.9,0 -40.4,-0.3 -40,-1.3 z m 75.2,-10.7 -5.9,-6 -31.8,0 c -27.6,0 -31.8,-0.2 -31.8,-1.5 0,-1.3 4.2,-1.5 31.5,-1.5 l 31.5,0 0,-28.1 0,-28 -5.5,-2.5 c -3.1,-1.3 -6.1,-2.4 -6.9,-2.4 -0.7,0 -9.7,8.5 -19.9,19 -10.3,10.4 -18.7,18.7 -18.7,18.4 0,-2.9 6.4,-11.1 16.8,-21.7 6.9,-6.9 12.4,-12.9 12.1,-13.2 -0.3,-0.2 -3.4,0.4 -6.9,1.5 -3.6,1.1 -6.6,2 -6.6,2 -0.1,0 0,-0.9 0.3,-2 0.4,-1.3 2.5,-2.5 7.3,-4 3.8,-1.1 7.2,-2 7.7,-2.1 0.4,0 1.4,-0.4 2.2,-0.8 1,-0.7 -0.1,-2.6 -4.9,-8.4 -5.6,-6.9 -6,-7.8 -4.9,-9.9 0.6,-1.3 1.3,-2.5 1.4,-2.6 0.2,-0.2 10.6,3.9 23.1,9.1 12.6,5.1 25,10.1 27.6,11.1 l 4.7,1.8 5.1,-4.3 c 2.7,-2.3 5,-4.8 5,-5.6 0,-0.7 -11.7,-13.1 -26,-27.6 -19.3,-19.4 -26,-26.8 -25.7,-28.2 0.2,-1.6 6.1,3.8 26.5,24.2 14.5,14.4 26.5,26.3 26.8,26.3 0.2,0 0.4,-4.4 0.4,-9.8 l 0,-9.7 -9.2,-8.6 c -5.1,-4.8 -16.4,-16.1 -25.1,-25.3 -11.7,-12.1 -15.7,-17.1 -15.3,-18.3 0.5,-1.3 6.3,4.1 24.9,23 13.3,13.6 24.9,24.7 25.7,24.7 0.8,0 6.5,-5 12.6,-11.1 9.8,-9.8 11,-10.7 10.7,-8.1 -0.3,2 -3,5.4 -8.9,11.3 -4.6,4.6 -8.4,8.7 -8.4,9.1 0,0.4 3.2,0.8 7,0.8 5.6,0 7,0.3 7,1.5 0,1.2 -1.7,1.5 -9,1.5 l -9,0 0,11.5 0,11.5 3.5,0 c 2.7,0 3.3,0.3 2.9,1.5 -0.4,0.8 -1.9,1.5 -3.7,1.5 -2.4,0 -4.7,1.4 -9.5,5.7 l -6.3,5.8 -3.5,12.8 c -1.9,7.1 -3.3,13.1 -2.9,13.5 0.3,0.3 3.3,-2.1 6.6,-5.4 5.7,-5.6 6,-5.8 5.4,-2.9 -0.5,1.8 -3.6,5.9 -8.1,10.5 -5.4,5.5 -7.4,8.2 -7.4,10.2 0,2 0.6,2.7 2.4,2.9 2.4,0.4 2.4,0.5 1.1,3.6 -1.3,3 -1.6,3.2 -3.4,2.1 -1.9,-1.2 -2.7,-0.6 -9.1,5.7 -3.8,3.8 -7,7.4 -7,8 0,0.6 2.2,3.2 4.9,5.9 2.8,2.7 4.7,5.4 4.4,6.2 -0.8,2.1 -1.5,1.7 -7.8,-4.6 z m 4.7,-19.8 c 5.3,-5.2 6.8,-7.3 6.8,-9.6 0,-3.1 -12.6,-27.6 -14.1,-27.6 -0.5,0 -0.9,9.9 -0.9,22 0,12.1 0.3,22 0.7,22 0.4,0 3.8,-3.1 7.5,-6.8 z m 12,-33.5 c 2,-7.3 3.5,-13.4 3.3,-13.6 -0.7,-0.7 -19.1,1 -20.4,1.8 -1.4,0.9 -0.8,2.1 9.1,19.8 1.6,2.9 3.3,5.3 3.7,5.3 0.3,0 2.3,-6 4.3,-13.3 z m -8.9,-16.3 c 3.1,-0.4 5.7,-1 5.7,-1.3 0,-0.5 -26.4,-11.6 -39.5,-16.6 -4.3,-1.6 -3.9,0.2 1.5,6.7 4.3,5.1 6.5,6.8 12.4,9.4 4.9,2.2 8.2,3.1 10.6,2.8 1.9,-0.2 6.1,-0.7 9.3,-1 z m -21.6,-93.9 c 0.5,-1.3 5.6,-1.5 37.9,-1.5 20.6,0 37.4,-0.4 37.4,-0.9 0,-0.5 -5.5,-3.8 -12.3,-7.5 l -12.4,-6.6 -22.6,0 c -19.7,0 -22.5,-0.2 -22,-1.5 0.4,-1.3 3.9,-1.5 22.9,-1.5 l 22.4,0 26.4,-26.3 c 14.5,-14.4 26,-25.1 25.4,-23.8 -2.1,5.5 -5.5,9.5 -23.9,27.5 -10.5,10.3 -18.8,19 -18.6,19.2 0.3,0.3 6.3,-1.1 13.3,-3.1 10.4,-2.9 13.5,-4.2 16.1,-6.7 l 3.3,-3.2 0,2.5 c 0,1.5 -0.6,3.2 -1.4,3.8 -0.8,0.7 -1.5,2.4 -1.4,3.9 0,3 -2.2,11 -4.6,16.2 -1.6,3.4 -1.6,3.2 -1,-6.4 0.6,-8.2 0.4,-9.9 -0.7,-9.4 -0.8,0.2 -6.9,2 -13.7,3.8 -6.7,1.8 -12.1,3.8 -11.9,4.3 0.2,0.7 21.2,12.9 24.1,13.9 0.5,0.2 0.6,1.3 0.2,2.6 l -0.7,2.2 -41.4,0 c -36.4,0 -41.4,-0.2 -40.8,-1.5 z m 9.5,-25.5 c 1.4,-2.8 12.2,-14.6 28.6,-31.2 22.1,-22.6 27.8,-28.9 26,-28.8 -0.9,0 -25.8,7.9 -26.7,8.4 -2.5,1.6 -0.5,-21.9 2.5,-29 l 1.4,-3.4 39.6,0 c 31.2,0 39.5,0.2 39.2,1.2 -0.4,1 -8.5,1.3 -35.1,1.5 -20,0.2 -34.7,0.7 -34.7,1.2 0,0.5 5.4,3.9 11.9,7.5 l 11.8,6.6 19.7,0 c 16.8,0 19.6,0.2 19.6,1.5 0,1.2 -2.8,1.5 -19.5,1.5 l -19.6,0 -33.5,33.7 c -26.1,26.2 -33,32.8 -31.2,29.3 z m 45.1,-60.8 c 7,-2 12.7,-4 12.7,-4.3 0,-1.1 -24.2,-14.1 -24.9,-13.3 -0.8,0.8 -3.1,15.8 -3.1,19.6 0,2.4 0.8,2.3 15.3,-2 z"
         id="path3094"
         style="fill:#fe3232" />
    </g>
  </g>
</svg>
