<?xml version="1.0" encoding="UTF-8" standalone="no"?>
<!-- Created with Inkscape (http://www.inkscape.org/) -->

<svg
   xmlns:dc="http://purl.org/dc/elements/1.1/"
   xmlns:cc="http://creativecommons.org/ns#"
   xmlns:rdf="http://www.w3.org/1999/02/22-rdf-syntax-ns#"
   xmlns:svg="http://www.w3.org/2000/svg"
   xmlns="http://www.w3.org/2000/svg"
   version="1.1"
   width="1701"
   height="1212"
   id="svg3200">
  <defs
     id="defs3202" />
  <metadata
     id="metadata3205">
    <rdf:RDF>
      <cc:Work
         rdf:about="">
        <dc:format>image/svg+xml</dc:format>
        <dc:type
           rdf:resource="http://purl.org/dc/dcmitype/StillImage" />
        <dc:title></dc:title>
      </cc:Work>
    </rdf:RDF>
  </metadata>
  <g
     transform="translate(475.3,73.7)"
     id="layer1">
    <path
       d="m -456.8,104.8 c -3.7,-1.2 -2.9,-1.4 10.5,-1.4 13,0 14.2,0.1 12,1.4 -3.2,1.8 -17,1.8 -22.5,0 z m -18.3,-46.63 -0.2,-44.64 2.2,-0.6 c 4.8,-1.27 7.8,-0.74 7.8,1.37 0,1.86 0.7,2 9.7,2.03 6.6,0 10.6,0.51 12.3,1.47 2.3,1.3 1.3,1.43 -10.1,1.46 l -12.5,0 -4.2,4.29 c -3.2,3.24 -4.2,5.07 -4.2,7.5 l 0,3.21 28,0 c 15.4,0 28,-0.38 28,-0.83 0,-0.46 -3.3,-4.04 -7.4,-7.97 l -7.3,-7.13 4.6,-3.83 c 2.5,-2.11 6.2,-4.899 8.1,-6.195 3,-2.003 2.7,-1.539 -1.8,3.075 -2.8,2.99 -5.2,5.89 -5.2,6.44 0,1.29 13.2,14.44 14.5,14.44 1.3,0 14.5,-13.24 14.5,-14.56 0,-0.55 -2.9,-3.89 -6.5,-7.43 -5.4,-5.342 -6.2,-6.593 -4.9,-7.338 1.3,-0.696 3.2,0.708 8.8,6.214 l 7.1,7.114 17,0 17,0 6.8,-6.776 c 3.7,-3.727 6.7,-7.102 6.7,-7.5 0,-0.399 -12.7,-0.739 -28.3,-0.756 -22.6,-0.02 -27.8,-0.2714 -26.2,-1.2497 1.4,-0.8626 10.3,-1.3093 30.2,-1.5263 l 28.3,-0.308 0,-9.824 c 0,-7.51 0.3,-10.11 1.5,-11.06 1.3,-1.1 1.5,0.13 1.5,10.15 l 0,11.402 6.8,6.724 c 3.7,3.697 7.1,6.724 7.5,6.724 0.4,0 0.7,-12.1513 0.7,-27 l 0,-27 -4.1,0 c -5.2,0 -4.9,-2.37 0.4,-2.81 l 3.7,-0.31 0,-9.54 c 0,-7.21 0.4,-10.24 1.7,-12.44 l 1.7,-2.9 16.3,0 c 13.7,0 16.3,-0.24 16.3,-1.48 0,-1.22 -2.7,-1.52 -15.8,-1.77 -8.6,-0.17 5,-0.34 30.3,-0.38 25.3,-0 42.6,0.26 38.5,0.65 -7.3,0.71 -17,3.47 -17,4.86 0,0.38 4.9,3.13 11,6.12 7.9,3.88 11,5.93 11,7.21 0,0.98 -0.2,1.79 -0.5,1.79 -0.3,0 -6.8,-3.15 -14.5,-7 -11.1,-5.57 -14.9,-7 -18.5,-7 l -4.5,0 0,11 0,11 18.9,0 c 15.9,0 19,0.24 19.5,1.5 0.5,1.3 -2,1.5 -18.9,1.5 l -19.5,0 0,20 0,19.999 7.6,0 c 6.7,0 7.5,0.189 6.4,1.4997 -0.8,0.9153 -3,1.5003 -5.6,1.5003 -4.9,0 -5.4,0.789 -2.4,3.496 1.5,1.409 1.7,2.114 0.8,3.198 -0.9,1.156 -1.7,0.875 -4.3,-1.651 -1.7,-1.674 -3.6,-3.043 -4.2,-3.043 -1.2,0 -13.3,13.261 -13.3,14.571 0,0.44 1,1.85 2.2,3.13 1.7,1.79 1.9,2.6 1,3.51 -0.9,0.91 -2,0.45 -4.5,-2.01 l -3.3,-3.2 -17,0 -17,0 -6.7,6.77 c -3.7,3.73 -6.7,7.11 -6.7,7.5 0,0.4 9.8,0.74 21.7,0.76 19.4,0 21.6,0.19 19.8,1.5 -1.5,1.19 -6.1,1.47 -23.7,1.47 l -21.8,0 0,19.31 c 0,15.43 -0.3,19.7 -1.5,21.25 -1.3,1.72 -1.5,-0.44 -1.5,-19.59 l 0,-21.52 -6.8,-6.73 c -3.7,-3.7 -7.1,-6.72 -7.5,-6.72 -0.4,0 -0.7,15.25 -0.7,33.89 0,29.21 -0.2,33.97 -1.5,34.47 -1.3,0.51 -1.5,-3.89 -1.5,-35.89 l 0,-36.47 -16.5,0 -16.5,0 0,38.5 c 0,33.55 -0.2,38.5 -1.5,38.5 -1.3,0 -1.5,-4.72 -1.5,-36.5 0,-20.08 -0.4,-36.5 -0.8,-36.5 -0.4,0 -3.8,3.05 -7.5,6.77 l -6.7,6.78 0,31.22 c 0,27.09 -0.2,31.23 -1.5,31.23 -1.3,0 -1.5,-4.11 -1.5,-31 l 0,-31 -30,0 -30,0 -0.3,32.75 c -0.2,30.25 -0.3,29.3 -0.5,-11.88 z m 142,-32.59 c 3.7,-3.7 6.8,-7.18 6.8,-7.73 0,-1.31 -13.2,-14.551 -14.5,-14.551 -1.3,0 -14.5,13.141 -14.5,14.451 0,1.31 13.1,14.55 14.4,14.55 0.6,0 4.1,-3.03 7.8,-6.72 z m -137.8,-6.51 c 0.7,-1.13 0.6,-2.07 -0.3,-3.19 -2.1,-2.51 -3.1,-1.86 -3.1,2 0,3.73 1.4,4.24 3.4,1.19 z m 182.6,-31.77 0,-29 -16.5,0 -16.5,0 0,29 0,29 16.5,0 16.5,0 0,-29 z m 10.7,18.062 6.3,-6.917 0,-20.075 0,-20.07 -7,0 -7,0 0,27 c 0,14.8487 0.3,26.99 0.7,26.99 0.5,-0 3.6,-3.123 7,-6.928 z m -10.7,-61.062 0,-11 -16.5,0 -16.5,0 0,11 0,11 16.5,0 16.5,0 0,-11 z m 17,0 0,-11 -7,0 -7,0 0,11 0,11 7,0 7,0 0,-11 z m 0,-15.5 c 0,-1.19 -1.5,-1.5 -7,-1.5 -5.6,0 -7,0.31 -7,1.5 0,1.19 1.4,1.5 7,1.5 5.5,0 7,-0.31 7,-1.5 z m 12.7,-0.25 c 0.3,-0.89 -1,-1.25 -4.6,-1.25 -4,0 -5.1,0.35 -5.1,1.55 0,1.23 1,1.49 4.7,1.25 2.6,-0.17 4.8,-0.85 5,-1.55 z"
       id="path3092"
       style="fill:#00fe29" />
  </g>
</svg>
