<?xml version="1.0" encoding="UTF-8" standalone="no"?>
<!-- Created with Inkscape (http://www.inkscape.org/) -->

<svg
   xmlns:dc="http://purl.org/dc/elements/1.1/"
   xmlns:cc="http://creativecommons.org/ns#"
   xmlns:rdf="http://www.w3.org/1999/02/22-rdf-syntax-ns#"
   xmlns:svg="http://www.w3.org/2000/svg"
   xmlns="http://www.w3.org/2000/svg"
   version="1.1"
   width="1701"
   height="1212"
   id="svg2">
  <defs
     id="defs4" />
  <metadata
     id="metadata7">
    <rdf:RDF>
      <cc:Work
         rdf:about="">
        <dc:format>image/svg+xml</dc:format>
        <dc:type
           rdf:resource="http://purl.org/dc/dcmitype/StillImage" />
        <dc:title></dc:title>
      </cc:Work>
    </rdf:RDF>
  </metadata>
  <g
     transform="translate(623.6,-311.2)"
     id="layer1">
    <g
       transform="translate(-478.8,129.3)"
       id="g3088">
      <path
         d="m -144.6,949.1 c -0.1,-23.2 0.2,-42.2 0.6,-42.2 0.4,0 0.6,4.5 0.4,10 -0.2,5.5 0.1,10 0.5,10 0.5,0 5.3,-4.5 10.8,-10 7.3,-7.4 10.6,-10 12.5,-10 2.1,0 0.5,1.9 -10.7,13.2 l -13.3,13.3 0,16.2 0,16.3 21,0 21,0 0,-29 c 0,-25.1 0.2,-29 1.5,-29 1.31,0 1.51,3.6 1.51,27 0,14.8 0.35,27 0.78,27 0.43,0 3.8,-3.1 7.5,-6.8 l 6.72,-6.8 -0,-8 c -0,-7.9 -0.1,-8.1 -6.38,-19.7 -5.65,-10.4 -6.13,-11.6 -4.23,-11.5 1.55,0.2 3.41,2.6 6.92,9 2.63,4.8 5.18,8.8 5.66,8.8 1.59,0 14.33,-16.2 13.25,-16.9 -0.58,-0.4 -4.91,-1.8 -9.63,-3.1 -4.71,-1.4 -8.58,-2.9 -8.58,-3.3 0,-1.6 4.74,-1.7 8.91,-0.3 2.42,0.9 4.64,1.3 4.93,1.1 0.28,-0.3 -0.76,-1.9 -2.32,-3.5 -2.51,-2.6 -2.63,-3.1 -1.1,-3.6 1.26,-0.5 3.23,0.8 7.08,4.6 l 5.35,5.2 6.33,-2.5 6.32,-2.5 0.31,-4.6 c 0.19,-2.9 0.72,-4.4 1.5,-4.2 0.66,0.2 2.44,0.7 3.96,1 2.75,0.6 2.75,0.6 1.15,3.7 -1.24,2.4 -1.32,3.3 -0.38,3.9 1.25,0.8 19.17,2.5 22.05,2.1 2.5,-0.3 17.881,15.9 17.899,18.8 0.01,2.2 -1.058,1.5 -8.449,-5.9 l -8.46,-8.4 -12.79,4.8 c -7.03,2.7 -20.21,8.1 -29.29,12 l -16.5,7.1 -0.29,7.8 -0.29,7.7 34.13,0 c 26.85,0 34.03,0.2 33.7,1.2 -0.31,1 -7.82,1.3 -32.08,1.5 -17.42,0.2 -31.67,0.6 -31.67,1.1 0,0.4 3.05,3.7 6.78,7.4 l 6.77,6.8 22.7,0 c 19.76,0 22.62,0.2 22.12,1.5 -0.49,1.2 -3.93,1.5 -22.47,1.5 l -21.9,0 0,11 c 0,9.1 -0.25,11 -1.5,11 -1.22,0 -1.5,-1.7 -1.5,-9 0,-5 -0.35,-9 -0.77,-9 -1.46,0 -14.05,13.5 -14.39,15.4 -0.47,2.7 -2.84,3.2 -2.84,0.6 0,-2 -0.26,-2 -29.91,-2 l -29.9,0 -0.5,2.2 c -0.2,1.2 -0.5,-16.8 -0.5,-40 z m 56.81,34 c 0,-0.4 -3.02,-3.7 -6.72,-7.5 l -6.69,-6.7 -21.3,0 -21.3,0 0,7.5 0,7.5 28,0 c 15.4,0 28.01,-0.4 28.01,-0.8 z m 13.23,-8 c 3.73,-3.7 6.77,-7.1 6.77,-7.7 0,-1.3 -13.14,-14.5 -14.44,-14.5 -1.32,0 -14.56,13.1 -14.56,14.4 0,1.3 13.15,14.6 14.45,14.6 0.55,0 4.05,-3.1 7.78,-6.8 z M -60.62,920 c 6.23,-2.6 15.27,-6.3 20.08,-8.1 4.82,-1.8 8.75,-3.7 8.75,-4.2 0,-0.4 -0.11,-0.8 -0.25,-0.8 -0.13,0 -4.02,-0.5 -8.63,-1 -8.11,-0.9 -8.63,-0.9 -15.5,2 -6.05,2.5 -7.9,3.9 -12.37,9.4 -2.88,3.5 -5.25,6.7 -5.25,7 0,1.1 2.03,0.5 13.17,-4.3 z m -59.18,29.4 c 0,-0.9 0.7,-1.5 1.5,-1.5 0.8,0 1.5,0.6 1.5,1.5 0,0.8 -0.7,1.5 -1.5,1.5 -0.8,0 -1.5,-0.7 -1.5,-1.5 z m 119.0368,-46 -2.3708,-2.5 2.615,0 c 3.05,0 4.196,1.3 2.984,3.5 -0.727,1.3 -1.218,1.1 -3.2282,-1 z M 470.2,515.5 c 0,-6.2 1.1,-7.5 10.6,-12.7 5.2,-2.7 9.4,-5.4 9.4,-5.9 0,-0.5 -3.1,-3.2 -7,-6.2 -7.4,-5.6 -7.4,-5.6 -6.2,-7.5 0.5,-0.9 2.3,0 6.1,2.8 2.9,2.2 5.4,3.9 5.7,3.6 0.2,-0.2 -1.3,-4.4 -3.4,-9.2 -2.5,-5.8 -3.7,-9.8 -3.4,-11.7 0.3,-1.6 0.6,-2.8 0.8,-2.6 0.2,0.2 3.2,6.9 6.7,14.8 l 6.3,14.5 7.7,0.3 7.7,0.2 0,-48.5 c 0,-26.7 -0.3,-48.5 -0.7,-48.5 -0.4,0 -3.3,2.5 -6.6,5.7 l -5.8,5.8 1.7,-4 c 0.9,-2.2 3.6,-6.2 6.2,-8.7 l 4.5,-4.7 -1.7,-4.4 c -1.5,-4.1 -1.4,-7.7 0.3,-7.7 0.4,0 1.5,2.2 2.5,5 2.1,5.7 3.4,6.8 12.7,10 l 6.5,2.3 7.8,-2.8 c 8.6,-3.2 9.3,-3.9 12.7,-13.6 l 2.3,-6.6 -2.9,-7.9 -3,-7.9 -7.5,-3.7 c -4.1,-2.1 -8.2,-3.8 -9.2,-3.8 -0.9,0 -5.1,1.5 -9.3,3.4 -6.1,2.8 -7.8,4.1 -9,6.8 l -1.4,3.3 0,-5.8 c -0.1,-3.9 0.3,-5.6 1,-5.2 1.3,0.8 13.9,-4.5 13.9,-5.9 0,-0.6 -2.3,-3.4 -5.1,-6.3 -3.8,-3.8 -5,-5.7 -4.5,-6.9 0.6,-1.5 1.5,-1 5.9,3.4 2.9,2.8 5.6,5.2 6,5.2 0.4,0 0.7,-9.4 0.7,-20.9 0,-16.1 0.3,-21.7 1.5,-24.3 1.3,-3 1.4,-1 1.5,23 l 0,26.3 6.5,2.9 c 3.6,1.6 6.9,3 7.5,3 0.6,0 1.1,-16 1.2,-44.8 0.2,-24.6 0.7,-45.4 1.1,-46.2 0.5,-1 -0.2,-2.6 -1.8,-4.5 -1.6,-1.9 -2.3,-3.5 -1.9,-4.8 0.4,-1.4 -0.4,-3 -3,-5.6 -2,-2.1 -4.1,-5.3 -4.6,-7.2 -0.9,-3.3 -0.7,-3.1 5.8,3.3 l 6.8,6.8 7.9,0 c 7.8,0 7.9,-0.1 20.2,-6.7 6.8,-3.6 12.3,-7 12.3,-7.5 0,-0.5 -12.1,-0.8 -26.9,-0.8 -22.9,0 -27,-0.3 -27.4,-1.5 -0.5,-1.3 3.6,-1.5 31.5,-1.8 29.3,-0.2 32.2,-0.4 33.2,-2 0.9,-1.5 -1.9,-4.8 -20.4,-23.2 -17.1,-17.1 -21.2,-21.7 -20.2,-22.7 1,-1 5.4,2.8 21.5,18.9 11.1,11.2 20.6,20.3 21,20.3 0.4,0 0.7,-4.2 0.7,-9.3 l 0,-9.3 -11.2,-11.2 -11.3,-11.2 -8.5,-0.3 c -4.7,-0.2 6.8,-0.4 25.5,-0.4 18.7,-0.1 33.1,0.2 32,0.5 -1.9,0.6 -19.5,18.2 -19.5,19.5 0,0.4 4,0.7 8.9,0.7 l 8.9,0 1.6,4 c 1.1,2.6 1.6,7 1.6,12.7 0,6.5 0.4,9 1.6,10.4 0.9,1 1.4,2.5 1.1,3.3 -0.5,1.4 -1,1.4 -2.7,0.3 -1.8,-1.1 -3.5,0.3 -21,17.8 -10.4,10.4 -19,19.5 -19,20.2 0,0.7 1.1,3.7 2.5,6.7 l 2.4,5.6 8.6,0 c 6.5,0 8.6,0.3 8.3,1.2 -0.3,0.7 -2.3,1.4 -4.6,1.6 -2.3,0.1 -4.2,0.6 -4.2,1.1 0,0.4 1.6,1.6 3.5,2.6 3.3,1.8 4.3,3.4 2.9,4.8 -0.4,0.3 -3.5,-1 -7.1,-3 -3.5,-2 -6.7,-3.3 -7,-2.9 -0.8,0.7 -2.2,12 -2.2,17.8 -0.1,4.5 0.9,4.7 9.4,1.8 7,-2.5 6.5,-2.4 6.5,-0.2 0,1.5 -1.8,2.4 -8.7,4.5 l -8.8,2.6 -20.9,20.9 -20.9,21 2.4,6.6 c 1.2,3.6 2.8,6.6 3.3,6.6 0.6,0 12.2,-11.2 25.9,-24.8 20.9,-20.9 24.6,-24.2 23.7,-21.2 -0.7,2.5 -6.7,9.1 -23,25.5 -12.1,12.1 -22,22.3 -22,22.7 0,0.4 7.9,0.8 17.5,0.8 15.1,0 17.4,0.2 16.9,1.5 -0.5,1.2 -3.6,1.5 -19.5,1.5 l -19,0 -2,4.7 c -1.1,2.6 -2.3,6 -2.6,7.5 l -0.5,2.8 20.1,0 c 17.2,0 20.1,0.2 20.1,1.5 0,1.2 -2.8,1.5 -19,1.5 -10.4,0 -19,0.3 -19,0.7 0,0.4 7.2,8 16,16.8 13.8,13.7 18.3,19.5 15.3,19.5 -0.4,0 -8.9,-8.2 -18.9,-18.2 l -18.2,-18.1 -6.6,2.3 c -3.6,1.3 -6.6,2.8 -6.6,3.4 0,0.6 10.4,11.5 23.1,24.2 18.3,18.3 23,23.4 22.3,24.7 -0.8,1.3 -5.3,-2.8 -23.9,-21.4 -12.6,-12.6 -23.3,-22.9 -23.7,-22.9 -0.4,0 -0.8,16.4 -0.8,36.5 l 0,36.5 19.5,0 c 16.7,0 19.5,0.2 19.5,1.5 0,1.2 -2.6,1.5 -17.5,1.5 -9.6,0 -17.5,0.3 -17.5,0.6 0,0.4 3.1,3.6 6.8,7 5.8,5.4 6.4,6.3 4.3,6.3 -1.5,0 -4.8,-2.1 -9.1,-5.9 -3.7,-3.3 -7.1,-6 -7.5,-6 -1.3,0 -14.5,12.1 -14.5,13.4 0,0.6 1.4,2.5 3,4.1 2.6,2.5 2.8,3 1.4,3.8 -1.2,0.6 -2.5,0 -5.3,-2.7 -3.6,-3.6 -3.9,-3.6 -11.5,-3.6 -7.8,0 -8,0 -20.2,6.6 -6.8,3.7 -12.4,7 -12.4,7.5 0,0.5 6.9,0.9 15.3,0.9 13.6,0 15,0.2 13.3,1.5 -2.8,2.1 -29.6,2.2 -29.6,0.1 z m 52.4,-30 6.6,-5.8 0,-38.9 0,-39 -4.7,-2 c -2.6,-1.2 -6,-2.3 -7.5,-2.6 l -2.8,-0.6 0,47.7 c 0,29.1 0.4,47.6 0.9,47.4 0.6,-0.2 3.9,-3 7.5,-6.2 z m 48,-152.5 c 16.7,-16.7 18.7,-19.1 18.1,-21.3 -1,-3.3 -14.6,-37.5 -19.3,-48.3 l -3.8,-9 -7.7,-0.3 -7.7,-0.3 0,49 c 0,27 0.4,49.1 0.8,49.1 0.4,0 9.2,-8.5 19.6,-18.9 z m 20.6,-29.9 c 0,-0.4 0.5,-4.4 1,-8.9 0.9,-7.9 0.8,-8.4 -2.3,-15.6 -2.7,-6.4 -4.2,-8.3 -9.5,-12.8 -6.4,-5.3 -8.3,-5.7 -6.6,-1.5 11.8,30.4 17.4,42.8 17.4,38.8 z m -3,-36.7 c 0,-0.2 1.8,-6.3 4.1,-13.6 2.2,-7.2 3.8,-13.4 3.6,-13.6 -0.9,-0.9 -24.8,12.8 -24.4,13.9 0.2,0.6 3.7,3.9 7.8,7.3 6.8,5.8 8.9,7.2 8.9,6 z m 21.3,-19.3 c 8.1,-8.1 14.7,-15.1 14.7,-15.5 0,-0.4 -4.2,-0.7 -9.3,-0.7 -12,0 -12.5,0.4 -17.7,17.6 -2.2,7.1 -4,13 -4,13.1 0,1.4 3.6,-1.9 16.3,-14.5 z m 18.7,-30.2 0,-11 -11,0 -11,0 0,11 0,11 11,0 11,0 0,-11 z m -14.3,-24.3 c 4.6,-4.5 8.3,-8.5 8.3,-9 0,-0.4 -7.9,-0.7 -17.5,-0.7 -9.6,0 -17.5,0.3 -17.5,0.7 0,1.1 16.3,17.3 17.5,17.3 0.5,0 4.7,-3.7 9.2,-8.3 z"
         id="path3112"
         style="fill:#fefc8b" />
    </g>
  </g>
</svg>
