<?xml version="1.0" encoding="UTF-8" standalone="no"?>
<!-- Created with Inkscape (http://www.inkscape.org/) -->

<svg
   xmlns:dc="http://purl.org/dc/elements/1.1/"
   xmlns:cc="http://creativecommons.org/ns#"
   xmlns:rdf="http://www.w3.org/1999/02/22-rdf-syntax-ns#"
   xmlns:svg="http://www.w3.org/2000/svg"
   xmlns="http://www.w3.org/2000/svg"
   version="1.1"
   width="1701"
   height="1212"
   id="svg2">
  <defs
     id="defs4" />
  <metadata
     id="metadata7">
    <rdf:RDF>
      <cc:Work
         rdf:about="">
        <dc:format>image/svg+xml</dc:format>
        <dc:type
           rdf:resource="http://purl.org/dc/dcmitype/StillImage" />
        <dc:title></dc:title>
      </cc:Work>
    </rdf:RDF>
  </metadata>
  <g
     transform="translate(623.6,-311.2)"
     id="layer1">
    <g
       transform="translate(-478.8,129.3)"
       id="g3088">
      <path
         d="m -144.3,1113 c 0,-24 0.1,-37 0.3,-28 l 0.3,17 3.6,4 c 2.1,2 4.1,4 4.5,4 0.5,0 0.8,-9 0.8,-21 0,-17 0.3,-20 1.5,-20 1.3,-1 1.5,2 1.7,22 l 0.3,23 6,3 c 3.3,1 6.5,2 7.2,2 1,0 1.3,-6 1.3,-27 0,-23 0.2,-26 1.5,-26 1.3,0 1.5,3 1.5,25 0,14 0.4,26 0.8,26 0.4,0 12,-11 25.71,-25 22.91,-23 24.88,-25 23.74,-27 -1.16,-2 -1,-2 2.26,-2 1.93,0 3.5,0 3.5,1 0,0 2.02,1 4.47,1 3.56,0 4.35,0 3.9,1 -0.39,1 -1.96,2 -4.73,2 -4.1,0 -4.48,0 -31.54,27 l -27.41,28 2.4,6 c 1.3,4 2.8,7 3.5,7 0.7,-1 12.76,-12 26.83,-25 14.07,-14 25.58,-25 25.58,-24 0,3 -4.73,8 -25.43,28 -12.41,12 -22.58,23 -22.58,23 0,0 7.03,1 15.6,1 12.02,0 15.49,0 15.17,1 -0.31,1 -5.15,1 -17.78,2 l -17.39,0 -2.2,6 c -1.2,3 -2.9,6 -3.8,6 -2.1,0 -2,-1 0.6,-8 l 2.2,-5 -2.3,-7 c -3.4,-10 -4.1,-11 -12.6,-14 -7.6,-2 -7.6,-2 -13,-1 l -5.4,2 -0.3,19 c -0.2,10 -0.3,-2 -0.3,-27 z m 4.3,3 c 2.8,-1 2.8,-2 0,-5 -3,-3 -3.8,-3 -3.8,2 0,4 0.2,4 3.8,3 z M 702.2,446.9 c 0,-0.7 -5.8,-1 -15.5,-1 -13.1,0 -15.5,-0.3 -15.5,-1.5 0,-1.3 2.2,-1.5 13.5,-1.5 7.4,0 13.5,-0.4 13.5,-0.8 0,-0.4 -3,-3.8 -6.8,-7.5 l -6.7,-6.7 -5.8,0 c -4.4,0 -5.7,-0.4 -5.7,-1.5 0,-1.2 1.3,-1.5 5.5,-1.5 l 5.5,0 0,-25.6 0,-25.5 -2.5,-1.1 c -1.4,-0.6 -2.5,-2 -2.5,-3 0,-2.2 0.1,-2.2 3.5,-0.7 2.2,1 2.9,0.9 5,-1.1 3.5,-3.3 3.2,-4.5 -2,-6.5 -5,-1.9 -5.7,-2.6 -4.6,-4.4 0.6,-0.9 1.8,-0.7 5.2,0.8 7.1,3.2 7,3.4 6.7,-8.6 l -0.3,-10.7 -5,-2.1 c -3.6,-1.5 -4.9,-2.5 -4.7,-3.7 0.3,-1.6 0.8,-1.6 5.8,0.4 l 5.5,2.1 2.4,-2.4 c 1.4,-1.2 2.5,-2.8 2.5,-3.5 0,-0.6 -3.1,-2.2 -6.8,-3.5 -5.7,-1.9 -6.8,-2.6 -6.4,-4.2 0.3,-1.2 1,-1.6 2.1,-1.2 0.9,0.4 4.8,1.8 8.7,3.3 l 7.1,2.5 7.9,-2.9 7.9,-2.9 3.7,-7.5 c 2.1,-4.2 3.7,-8.4 3.7,-9.5 0,-1.1 -1.6,-5.4 -3.7,-9.5 l -3.7,-7.5 -7.5,-2.9 c -6.4,-2.5 -8,-2.7 -11.2,-1.9 -3.3,0.9 -3.8,0.8 -3.8,-0.7 0,-1 1.1,-2.2 2.5,-2.9 2.1,-0.9 2.5,-1.8 2.5,-5.2 0,-3.7 -0.2,-4.1 -2,-3.6 -1.5,0.3 -2,0 -2,-1.4 0,-1 0.9,-2.3 2,-2.9 1.5,-0.9 2,-2.1 2,-5.5 0,-2.4 0.7,-5.8 1.5,-7.7 1.4,-3.3 1.4,-3.3 1.5,4.4 0,6.6 0.3,7.8 1.9,8.7 3.8,2 4.1,1.4 4.1,-9.4 0,-8.6 -0.3,-10.6 -1.6,-11.4 -2,-1.1 -1,-3.1 1.5,-3.1 2.8,0 6.4,-4.5 5.6,-7 -0.5,-1.7 -0.2,-2.3 1.3,-2.7 1.6,-0.4 2,-1.9 2.9,-11.7 0.6,-6.1 0.8,-13.1 0.6,-15.4 -0.3,-2.4 -0.1,-6.9 0.4,-10 0.6,-4.5 0.9,-1 1.3,16.7 l 0.5,22.4 16,6.8 c 8.8,3.7 16.8,6.8 17.7,6.8 1.6,0.1 16.8,-15.4 16.8,-17.2 0,-2 -44.3,-46.2 -46.9,-46.9 -1.4,-0.3 15,-0.7 36.4,-0.7 l 39,-0.1 -9.8,9.7 c -5.3,5.4 -9.7,10.1 -9.7,10.5 0,0.4 2.9,0.8 6.5,0.8 5.1,0 6.5,0.3 6.5,1.5 0,1.2 -1.6,1.5 -8.5,1.5 l -8.5,0 0,11 0,11 7,0 c 5.6,0 7,0.3 7,1.5 0,1.2 -1.5,1.5 -7.2,1.5 l -7.3,0 -9.2,9.9 -9.2,9.8 2.6,6.2 c 1.5,3.3 3,6.1 3.5,6.1 0.4,0 5.6,-5 11.5,-11.1 11.4,-11.8 14.3,-14.1 14.3,-11.4 0,0.8 -5.4,7.2 -12,14.1 -6.6,7 -12,13 -12,13.5 0,2 13.2,32.4 14.4,33.2 1,0.7 0.4,2.6 -2.6,8.5 -2.1,4.2 -3.8,8.2 -3.8,8.9 0,0.7 1.2,1.3 2.6,1.3 3.8,0 2.5,2.4 -1.6,3 -3.3,0.5 -3.5,0.8 -9.7,15.5 -3.5,8.2 -6.3,15.5 -6.3,16.2 0,0.9 2.3,1.3 8.5,1.3 6.9,0 8.5,0.2 8.5,1.5 0,1.1 -1.3,1.5 -5.5,1.5 -3,0 -5.5,0.4 -5.5,0.8 0,0.5 2.5,2.2 5.5,3.8 3.5,1.8 5.5,3.5 5.5,4.6 0,2.4 -0.3,2.3 -8.7,-2.3 -4.1,-2.3 -7.7,-3.9 -7.9,-3.6 -0.7,0.7 7.5,27 8.6,27.7 1.2,0.7 0.3,3.7 -3.5,12.8 -1.8,4.5 -2.4,7.3 -1.9,9.4 0.9,4.1 -0.5,14.5 -1.7,12.7 -0.5,-0.8 -0.9,-3.5 -0.9,-5.9 0,-8 -0.5,-8 -13.6,-0.8 -6.5,3.6 -11.9,6.9 -12.1,7.4 -0.2,0.5 3.7,2 8.7,3.4 5,1.3 9,2.7 9,3.1 0,1.5 -4.8,1.7 -9.8,0.2 -2.9,-0.8 -5.6,-1.3 -5.9,-0.9 -0.4,0.3 0.4,1.7 1.7,3.1 l 2.4,2.5 -2.5,0 c -1.6,0 -4,-1.6 -6.9,-4.5 -3.1,-3.2 -5.2,-4.5 -7.2,-4.5 -2.8,0 -2.8,0 -2.8,6.9 0,5.2 -0.4,7 -1.5,7.4 -1.2,0.5 -1.5,-0.4 -1.5,-4.9 0,-3 -0.4,-5.4 -0.9,-5.4 -0.4,0 -4.3,3.6 -8.5,8 -7.7,8 -8.6,8.8 -8.6,7 z m 9.2,-12.8 c 3.8,-3.7 6.8,-7.1 6.8,-7.7 0,-1.3 -13.1,-14.5 -14.4,-14.5 -1.3,0 -14.6,13.1 -14.6,14.4 0,1.3 13.2,14.6 14.5,14.6 0.5,0 4,-3.1 7.7,-6.8 z m 29.5,-15.9 c 6.8,-3.6 12.3,-7 12.3,-7.5 0,-0.5 -9.9,-0.8 -22,-0.8 -12.1,0 -22,0.3 -22,0.7 0,0.4 3,3.8 6.7,7.5 5.3,5.3 7.4,6.8 9.7,6.8 1.7,0 8.1,-2.8 15.3,-6.7 z m -45.5,-4.1 6.8,-6.7 0,-13.3 0,-13.3 -4.7,-2 c -2.6,-1.2 -6,-2.3 -7.5,-2.6 l -2.8,-0.6 0,22.6 c 0,12.5 0.3,22.7 0.7,22.7 0.4,0 3.8,-3.1 7.5,-6.8 z M 764,400 l 2.5,-6.3 -13.4,-13.4 c -7.3,-7.4 -13.8,-13.4 -14.4,-13.4 -0.5,0 -8.2,3.1 -17,6.8 l -16,6.7 -0.3,13.3 -0.2,13.2 28.1,-0.3 28.1,-0.2 2.6,-6.4 z m -0.1,-16.6 c -0.3,-0.8 -2,-6.3 -3.8,-12.2 -1.7,-6 -3.2,-11 -3.4,-11.1 -0.5,-0.7 -12.5,4.3 -12.5,5.2 0,1.2 18.1,19.6 19.4,19.6 0.4,0 0.6,-0.7 0.3,-1.5 z M 702,371.6 c -0.3,-3.8 -0.6,-4.3 -3.6,-5.1 -2.8,-0.8 -3.6,-0.6 -5.7,1.4 -3.4,3.2 -3.1,4.3 1.8,6.1 7.1,2.7 7.9,2.5 7.5,-2.4 z m 20.7,-2.1 15,-6.3 0.3,-3.7 c 0.3,-3 0,-3.6 -1.5,-3.6 -1,0.1 -8.3,2.7 -16.3,5.8 l -14.5,5.7 -0.3,4.3 c -0.2,2.9 0.1,4.2 1,4.1 0.7,0 8.1,-2.8 16.3,-6.3 z m -20.5,-16.1 c 0,-9.3 -0.2,-10.6 -1.9,-11.5 -3.8,-2 -4.1,-1.3 -4.1,9.5 0,10 0.1,10.6 2.3,11.4 1.2,0.5 2.6,1 3,1 0.4,0 0.7,-4.6 0.7,-10.4 z m 19.2,4.2 c 7.6,-2.9 13.8,-5.7 13.8,-6.3 0,-0.5 -3.1,-4.1 -6.9,-7.8 -7.7,-7.7 -7.3,-7.6 -17.4,-3.2 l -5.7,2.5 0,10 c 0,7.3 0.4,10.1 1.3,10.1 0.6,0 7.4,-2.4 14.9,-5.3 z m 26.9,1.5 c 2.7,-0.9 4.9,-2.2 4.9,-2.8 0,-0.6 -1.1,-2.1 -2.5,-3.4 -2.4,-2.3 -2.6,-2.4 -6,-0.7 -3,1.4 -3.5,2.1 -3.5,5.1 0,4.1 0.5,4.2 7.1,1.8 z m 15.8,-21.8 6.4,-15.5 -2.3,-2.5 c -1.3,-1.3 -2.8,-2.4 -3.4,-2.4 -0.9,0 -8.9,17.7 -13.2,29.3 -0.7,1.8 2.9,6.7 5,6.7 0.6,0 4,-7 7.5,-15.6 z m -21.5,12 c 2.7,-1.1 1.8,-2.8 -5.2,-9.8 -6,-5.9 -7.2,-6.7 -9.5,-6.1 -1.5,0.4 -2.7,1 -2.7,1.3 0,0.9 14.3,15.2 15.2,15.2 0.3,0 1.4,-0.3 2.2,-0.6 z m 11.9,-19.4 c 3.1,-7.7 5.7,-14.4 5.7,-15 0,-0.8 -3.3,-1 -10.2,-0.8 l -10.2,0.3 -3.5,7.8 -3.4,7.7 6.9,7 c 3.8,3.8 7.3,7 7.9,7 0.6,0 3.6,-6.3 6.8,-14 z m -52.3,5.9 c 0,-2.5 -2.3,-2.1 -2.8,0.4 -0.2,1 0.3,1.7 1.2,1.7 1,0 1.6,-0.9 1.6,-2.1 z m 11.8,-0.6 c 6.1,-2.6 6.2,-2.7 6.2,-6.6 0,-3.8 -0.1,-4 -2.7,-3.4 -1.5,0.3 -4.9,1.4 -7.5,2.6 -4.6,1.9 -4.8,2.2 -4.8,6 0,4.9 0.5,4.9 8.8,1.4 z m 12,-6 c -0.4,-2.5 -2.8,-2.9 -2.8,-0.4 0,1.2 0.7,2.1 1.6,2.1 0.9,0 1.4,-0.7 1.2,-1.7 z m 7.7,-9.9 2.8,-6.5 -2.3,-2.5 c -1.3,-1.3 -2.9,-2.4 -3.5,-2.4 -0.7,0 -2.4,2.9 -4,6.5 l -2.7,6.6 2.3,2.4 c 1.2,1.4 2.8,2.5 3.4,2.5 0.7,0 2.5,-3 4,-6.6 z m 41.4,-7.6 c 1.2,-2.8 2.1,-5.5 2.1,-6 0,-0.4 -1.8,-0.8 -4,-0.8 -3.6,0 -4.2,0.3 -5.7,3.5 -1.6,3.4 -1.6,3.5 0.7,6 1.3,1.3 2.9,2.5 3.6,2.5 0.6,0 2.1,-2.3 3.3,-5.2 z m -11.9,-2.8 c 2,-3.7 1.3,-4 -9,-4 -8.8,0 -10,0.2 -11,1.9 -2,3.8 -1.3,4.1 9,4.1 8.8,0 10.1,-0.3 11,-2 z m -24,-2.5 c 0,-0.9 -0.9,-1.5 -2,-1.5 -2,0 -2.6,1 -1.3,2.3 1.2,1.2 3.3,0.7 3.3,-0.8 z m 0,-5.6 c 0,-0.5 -1.3,-3.9 -2.9,-7.5 -2.9,-6.4 -3,-6.4 -7,-6.4 -2.3,0 -4.1,0.4 -4.1,1 0,0.5 1.3,3.9 3,7.5 2.9,6.4 2.9,6.5 7,6.5 2.2,0 4,-0.5 4,-1.1 z m 25,0 c 0,-2.2 -11.5,-28.9 -12.5,-28.9 -1.1,0 -14.5,13 -14.5,14.1 0,0.4 1.6,4.2 3.5,8.3 l 3.4,7.6 10.1,0 c 6.3,0 10,-0.4 10,-1.1 z m 13,-0.2 c 0,-0.7 -2.9,-8 -6.3,-16.2 l -6.3,-15 -4.2,-0.3 c -2.9,-0.3 -4.2,0 -4.2,1 0,1.1 11.2,28.6 12.6,30.9 0.9,1.4 8.4,1.1 8.4,-0.4 z m -46,-18.3 c 0,-0.9 -0.7,-1.5 -1.7,-1.3 -2.5,0.5 -2.8,2.9 -0.4,2.9 1.3,0 2.1,-0.7 2.1,-1.6 z m -7.3,-1.6 c 1.3,-1.2 2.3,-2.7 2.3,-3.3 0,-0.9 -10.3,-5.5 -12.5,-5.5 -1.3,0 -5.5,4.1 -5.5,5.4 0,0.9 9.8,5.2 12.4,5.5 0.6,0 2,-0.9 3.3,-2.1 z m 19.7,-6.7 c 5.5,-5.6 6.7,-7.3 6.2,-9 -0.4,-1.2 -1.3,-2.1 -1.9,-2.1 -0.7,0 -4.3,3.1 -8.1,6.8 -5.5,5.6 -6.7,7.3 -6.1,9 0.3,1.2 1.2,2.2 1.9,2.2 0.6,0 4.2,-3.1 8,-6.9 z m -6.2,-6.9 c 3.8,-3.7 6.8,-7.2 6.8,-7.7 0,-1.1 -26.4,-12.5 -28.8,-12.5 -0.8,0 -1.2,3 -1.2,10.4 l 0,10.4 7.3,3 c 4,1.7 7.7,3.1 8.2,3.1 0.5,0 4,-3 7.7,-6.7 z m -29.4,4.6 c 1.8,-1.8 1.5,-2.8 -0.8,-2.8 -1.3,0 -2,0.6 -2,2 0,2.2 1.1,2.5 2.8,0.8 z m 54.2,-6.7 c 0,-1.6 -4.2,-11.1 -4.9,-11.1 -0.4,0 -2,1.3 -3.5,2.9 -2.7,2.8 -2.7,2.9 -1.1,6 1.3,2.6 2.1,3.1 5.5,3.1 2.2,0 4,-0.4 4,-0.9 z m -10,-11.7 c 1.5,-1.5 2,-2.8 1.5,-3.3 -1,-1 -30,-13.1 -31.2,-13.1 -1.1,0 -5.3,4.2 -5.3,5.4 0,1.1 28.2,13.3 31.1,13.5 0.9,0 2.6,-1.1 3.9,-2.5 z m 24,-38.7 -0.1,-9.2 -5.7,-6.3 -5.7,-6.3 -13,-4 c -15,-4.5 -13.5,-4.2 -13.5,-2.9 0,1.3 35.9,38 37.2,38 0.4,0 0.8,-4.2 0.8,-9.3 z m 10.7,-22 c 4.6,-4.5 8.3,-8.5 8.3,-9 0,-0.4 -5.5,-0.7 -12.3,-0.7 l -12.4,0 -1.2,4 c -1.2,3.9 -1.1,4.1 3,9 2.3,2.7 4.7,5 5.3,5 0.6,0 4.8,-3.7 9.3,-8.3 z m -23.7,-7.2 c 0,-2.5 -0.2,-2.5 -7,-2.5 -3.8,0 -7,0.3 -7,0.8 0,1 8.6,3.9 11.8,4.1 1.7,0 2.2,-0.5 2.2,-2.4 z"
         id="path3106"
         style="fill:#fea5a5" />
    </g>
  </g>
</svg>
