<?xml version="1.0" encoding="UTF-8" standalone="no"?>
<!-- Created with Inkscape (http://www.inkscape.org/) -->

<svg
   xmlns:dc="http://purl.org/dc/elements/1.1/"
   xmlns:cc="http://creativecommons.org/ns#"
   xmlns:rdf="http://www.w3.org/1999/02/22-rdf-syntax-ns#"
   xmlns:svg="http://www.w3.org/2000/svg"
   xmlns="http://www.w3.org/2000/svg"
   version="1.1"
   width="1701"
   height="1212"
   id="svg3200">
  <defs
     id="defs3202" />
  <metadata
     id="metadata3205">
    <rdf:RDF>
      <cc:Work
         rdf:about="">
        <dc:format>image/svg+xml</dc:format>
        <dc:type
           rdf:resource="http://purl.org/dc/dcmitype/StillImage" />
        <dc:title></dc:title>
      </cc:Work>
    </rdf:RDF>
  </metadata>
  <g
     transform="translate(475.3,73.7)"
     id="layer1">
    <path
       d="m -443.3,17.8 c -2.4,-1.35 -2.1,-1.43 4.2,-1.47 l 6.8,-0 0,-29 0,-29 -16.5,0 -16.5,0 0,27 c 0,23.332 -0.2,27 -1.5,27 -1.3,0 -1.5,-3.668 -1.5,-27 l 0,-27 -3,0 -3,0 0,24.84 c 0,23.676 0.1,24.935 2,26.68 1.6,1.4 1.7,2.02 0.8,2.64 -3.8,2.38 -3.8,2.16 -3.8,-42.66 l 0,-43.5 78.2,0.1 c 43.1,0 77.7,0.3 77,0.58 -0.6,0.28 -1.2,1.48 -1.2,2.67 -0.1,1.19 -0.7,3.04 -1.5,4.11 -0.9,1.07 -1.5,1.4 -1.5,0.75 0,-0.82 -2.4,-1.19 -7.5,-1.19 l -7.5,0 0,11 0,11 4,0 c 3.1,0 3.8,0.32 3.4,1.5 -0.4,0.92 -1.9,1.5 -4,1.5 l -3.4,0 0,8.88 c 0,6.67 -0.4,9.18 -1.5,10.12 -1.3,1.09 -1.5,0 -1.5,-8.88 l 0,-10.12 -34.5,0 -34.5,0 0,20 0,19.999 7.7,0.05 7.8,0.05 -4.5,1.459 c -2.5,0.8024 -5.9,1.906 -7.6,2.452 -1.7,0.547 -3.6,0.994 -4.2,0.994 -1.5,0 -9.8,5.85 -16.8,11.711 -5.6,4.68 -9.7,5.48 -14.4,2.79 z m 22.2,-12.224 6.8,-6.724 0,-20.272 0,-20.28 -7.5,0 -7.5,0 0,27 c 0,14.8487 0.3,27 0.7,27 0.4,0 3.8,-3.027 7.5,-6.724 z m -47.2,-61.276 0,-11 -3,0 -3,0 0,11 0,11 3,0 3,0 0,-11 z m 36,0 0,-11 -16.5,0 -16.5,0 0,11 0,11 16.5,0 16.5,0 0,-11 z m 18,0 0,-11 -7.5,0 -7.5,0 0,11 0,11 7.5,0 7.5,0 0,-11 z m 72,0 0,-11 -34.5,0 -34.5,0 0,11 0,11 34.5,0 34.5,0 0,-11 z m -126,-15.5 c 0,-1 -1,-1.5 -3,-1.5 -2,0 -3,0.5 -3,1.5 0,1 1,1.5 3,1.5 2,0 3,-0.5 3,-1.5 z m 36,0 c 0,-1.27 -2.5,-1.5 -16.5,-1.5 -14,0 -16.5,0.23 -16.5,1.5 0,1.27 2.5,1.5 16.5,1.5 14,0 16.5,-0.23 16.5,-1.5 z m 18,0 c 0,-1.2 -1.5,-1.5 -7.5,-1.5 -6,0 -7.5,0.3 -7.5,1.5 0,1.2 1.5,1.5 7.5,1.5 6,0 7.5,-0.3 7.5,-1.5 z m 72,0 c 0,-1.31 -4.5,-1.5 -34.5,-1.5 -30,0 -34.5,0.19 -34.5,1.5 0,1.3 4.5,1.5 34.5,1.5 30,0 34.5,-0.2 34.5,-1.5 z m 18,0 c 0,-1.2 -1.5,-1.5 -7.5,-1.5 -6,0 -7.5,0.3 -7.5,1.5 0,1.2 1.5,1.5 7.5,1.5 6,0 7.5,-0.3 7.5,-1.5 z"
       id="path3090"
       style="fill:#000bfe" />
  </g>
</svg>
