<?xml version="1.0" encoding="UTF-8" standalone="no"?>
<!-- Created with Inkscape (http://www.inkscape.org/) -->

<svg
   xmlns:dc="http://purl.org/dc/elements/1.1/"
   xmlns:cc="http://creativecommons.org/ns#"
   xmlns:rdf="http://www.w3.org/1999/02/22-rdf-syntax-ns#"
   xmlns:svg="http://www.w3.org/2000/svg"
   xmlns="http://www.w3.org/2000/svg"
   version="1.1"
   width="1701"
   height="1212"
   id="svg2">
  <defs
     id="defs4" />
  <metadata
     id="metadata7">
    <rdf:RDF>
      <cc:Work
         rdf:about="">
        <dc:format>image/svg+xml</dc:format>
        <dc:type
           rdf:resource="http://purl.org/dc/dcmitype/StillImage" />
        <dc:title></dc:title>
      </cc:Work>
    </rdf:RDF>
  </metadata>
  <g
     transform="translate(623.6,-311.2)"
     id="layer1">
    <g
       transform="translate(-478.8,129.3)"
       id="g3088">
      <path
         d="m 1054,338.7 c 0,-1.3 3,-4.8 6,-7.9 3,-3 5,-5.9 5,-6.4 0,-0.5 -1,-1.9 -2,-3.2 -1,-1.4 -2,-2.9 -1,-4 0,-1.4 1,-1.1 4,2 3,2.5 5,3.7 7,3.7 3,0 27,-12.7 27,-14.2 0,-0.5 -8,-0.8 -18,-0.8 -15,0 -18,-0.3 -18,-1.5 0,-1.3 3,-1.5 22,-1.5 l 22,0 2,-4.3 c 4,-9.3 5,-7.4 -17,-29 -15,-15.1 -20,-20.1 -20,-21.8 1,-1.7 4,1.1 19,15.6 10,9.8 18,17.5 19,17.3 0,-0.2 -2,-6.2 -4,-13.3 l -4,-13 -15,-15 c -11,-11.3 -15,-15.7 -15,-17.5 0,-2.1 3,0.1 16,13.7 l 17,16.3 28,0 c 25,0 29,0.2 29,1.5 0,1.3 -3,1.5 -24,1.5 -14,0 -25,0.3 -25,0.8 0,0.5 6,3.9 13,7.5 l 12,6.7 10,0 c 7,0 9,0.3 9,1.2 0,0.8 -4,1.4 -10,1.8 l -9,0.5 -4,8 c -1,4.4 -6,14.5 -9,22.4 -4,10.4 -6,14.7 -8,15.2 -1,0.5 -2,0.6 -2,0.4 0,-0.2 3,-7.7 7,-16.7 3,-9 7,-17.6 8,-19 1,-4.6 0,-4.3 -7,1.3 -6,4.7 -7,6.2 -10,12.9 -2,6.8 -3,8 -2,14.5 1,3.8 1,7.4 0,7.8 -1,1.8 -3,-0.6 -3,-5.1 0,-8.2 0,-8.2 -14,-0.6 -7,3.8 -13,7.1 -13,7.4 0,0.3 2,1.2 5,1.9 8,1.8 8,3.7 0,3.3 -1,-0.1 -2,0.5 -2,1.3 -1,2.2 -3,1.8 -6,-1.5 -2,-2 -4,-3 -6,-3 -3,0 -3,0.2 -3,4.9 0,3.4 0,5 -1,5.4 -1,0.5 -2,-0.2 -2,-2.9 0,-1.9 0,-3.4 -1,-3.4 0,0 -2,2 -5,4.5 -2,2.6 -5,5.1 -6,5.6 -2,0.9 -2,0.7 -1,-1.3 z m 71,-57.4 c 5,-3.7 8,-7 8,-7.5 0,-1 -24,-14.3 -24,-13.6 -1,0.3 1,5.8 3,12.3 2,6.5 4,12.6 4,13.6 0,1 1,1.8 1,1.8 0,0 4,-3 8,-6.6 z m -51,-61.9 c 0,-1.3 6,-1.5 44,-1.5 24,0 43,-0.4 43,-0.9 0,-0.5 -5,-3.8 -12,-7.5 l -12,-6.6 -30,0 -29,0 -1,2.7 c -2,2.7 -2,2.7 -1,-2.1 0,-4.4 1,-5.4 8,-11.8 4,-3.9 7,-7.5 7,-7.9 0,-0.5 -2,-1 -4,-1.2 -2,-0.2 15,-0.4 38,-0.4 23,-0.1 41,0.1 40,0.4 -2,0.5 -2,1.5 0,3.7 2,1.5 2,5.6 0,5.6 0,0 0,3.2 0,7.2 0,8.3 0,8.2 -3,-3.2 -2,-4.6 -3,-8.6 -3,-8.8 -1,-0.6 -17,12.7 -17,13.8 0,0.5 5,3.7 12,7.1 11,6.1 11,6.5 11,9.6 l 0,3.3 -45,0 c -40,0 -46,-0.2 -46,-1.5 z m 65,-25.8 c 2,-3.5 3,-7.3 4,-8.5 l 0,-2.2 -22,0 -23,0 -8,7.7 c -4,4.2 -8,8.1 -8,8.5 0,0.4 12,0.8 27,0.8 l 27,0 3,-6.3 z m 11,-4.8 c 3,-2.3 5,-4.5 5,-5 0,-0.5 -2,-0.9 -4,-0.9 -3,0 -4,0.3 -5,4 -3,7.3 -2,7.5 4,1.9 z"
         id="path3120"
         style="fill:#fefdd8" />
    </g>
  </g>
</svg>
